<?xml version="1.0" encoding="UTF-8"?>
<svg id="Layer_2" data-name="Layer 2" xmlns="http://www.w3.org/2000/svg" width="1149.07" height="704.85" viewBox="0 0 1149.07 704.85">
  <defs>
    <style>
      .cls-1 {
        stroke: #fff;
      }

      .cls-1, .cls-2, .cls-3 {
        stroke-miterlimit: 10;
        stroke-width: 3px;
      }

      .cls-2 {
        fill: none;
      }

      .cls-2, .cls-3 {
        stroke: #000;
      }

      .cls-3 {
        fill: #fff;
      }
    </style>
  </defs>
  <g id="Layer_7" data-name="Layer 7">
    <path class="cls-1" d="M554.77,520.25H166V1.5c210.17,0,608.66,0,818.77,0V520.25h-430Z"/>
    <path class="cls-1" d="M1.55,683.47l19.99,19.85c287.82,.19,819.94-.57,1107.7-2.37l18.18-18.05c.22-.22,.05-.59-.26-.58-2.88,.15-3.18,.18-3.88,.18L1.68,683.16c-.16,0-.24,.2-.13,.31Z"/>
    <path class="cls-2" d="M552.18,680.11c-1.36-.13-533.19,.24-550.12-.11-.16,0-.23-.19-.12-.3,7.71-7.48,165.01-159.99,165.01-159.99,213.81,.19,603.12-.57,816.89-.37-1.29,.14,156.08,149.6,163.67,159.87,.17,.23,0,.54-.27,.54l-595.05,.37Z"/>
    <path class="cls-3" d="M558.02,494.16H184.8V25.87c201.47,.19,583.43-.57,784.86-.37V493.79c-8.29,.04-423.29-.2-411.63,.37Z"/>
    <g>
      <path d="M705.36,26.93l3.16,5.85,5.85-3.16-1.94-3.59c-1.8,0-3.59,0-5.39,0l-1.67,.91Z"/>
      <rect x="732.88" y="32.8" width="6.65" height="6.65" transform="translate(71.49 354.64) rotate(-28.41)"/>
      <rect x="759.22" y="40.64" width="6.65" height="6.65" transform="translate(70.92 368.11) rotate(-28.41)"/>
      <path d="M595.17,28.21l3.85-2.08c-1.66,0-3.32,0-4.98,0l1.12,2.08Z"/>
      <rect x="619.32" y="27.41" width="7.35" height="7.35" transform="translate(60.25 300.16) rotate(-28.41)"/>
      <rect x="645.66" y="35.25" width="7.35" height="7.35" transform="translate(59.68 313.63) rotate(-28.41)"/>
      <rect x="672.01" y="43.1" width="7.35" height="7.35" transform="translate(59.12 327.11) rotate(-28.41)"/>
      <rect x="698.35" y="50.95" width="7.35" height="7.35" transform="translate(58.56 340.59) rotate(-28.41)"/>
      <rect x="724.69" y="58.8" width="7.35" height="7.35" transform="translate(58 354.07) rotate(-28.41)"/>
      <rect x="751.03" y="66.64" width="7.35" height="7.35" transform="translate(57.45 367.56) rotate(-28.41)"/>
      <path d="M508.16,31.47l7.07-3.82-.78-1.44c-3.05,0-6.09,0-9.13,0l2.84,5.25Z"/>
      <rect x="532.1" y="29.86" width="8.03" height="8.03" transform="translate(48.45 259.15) rotate(-28.41)"/>
      <rect x="558.45" y="37.71" width="8.03" height="8.03" transform="translate(47.89 272.64) rotate(-28.41)"/>
      <rect x="584.79" y="45.55" width="8.03" height="8.03" transform="translate(47.33 286.11) rotate(-28.41)"/>
      <rect x="611.13" y="53.4" width="8.03" height="8.03" transform="translate(46.77 299.6) rotate(-28.41)"/>
      <rect x="637.47" y="61.25" width="8.03" height="8.03" transform="translate(46.21 313.07) rotate(-28.41)"/>
      <rect x="663.81" y="69.09" width="8.03" height="8.03" transform="translate(45.65 326.55) rotate(-28.41)"/>
      <rect x="690.16" y="76.94" width="8.03" height="8.03" transform="translate(45.09 340.04) rotate(-28.41)"/>
      <rect x="716.5" y="84.79" width="8.03" height="8.03" transform="translate(44.52 353.5) rotate(-28.41)"/>
      <rect x="742.84" y="92.64" width="8.03" height="8.03" transform="translate(43.97 367) rotate(-28.41)"/>
      <path d="M395.87,26.31c-.46,0-.92,0-1.38,0l.31,.57,1.06-.58Z"/>
      <path d="M421.16,34.74l7.67-4.15-2.33-4.3c-2.7,0-5.38,0-8.07,0l-1.43,.77,4.15,7.67Z"/>
      <rect x="444.89" y="32.31" width="8.72" height="8.72" transform="translate(36.66 218.17) rotate(-28.41)"/>
      <rect x="471.23" y="40.16" width="8.72" height="8.72" transform="translate(36.1 231.64) rotate(-28.41)"/>
      <rect x="497.57" y="48.01" width="8.72" height="8.72" transform="translate(35.54 245.12) rotate(-28.41)"/>
      <rect x="523.91" y="55.85" width="8.72" height="8.72" transform="translate(34.98 258.59) rotate(-28.41)"/>
      <rect x="550.25" y="63.7" width="8.72" height="8.72" transform="translate(34.42 272.08) rotate(-28.41)"/>
      <rect x="576.6" y="71.55" width="8.72" height="8.72" transform="translate(33.86 285.56) rotate(-28.41)"/>
      <rect x="602.94" y="79.4" width="8.72" height="8.72" transform="translate(33.29 299.03) rotate(-28.41)"/>
      <rect x="629.28" y="87.24" width="8.72" height="8.72" transform="translate(32.73 312.52) rotate(-28.41)"/>
      <rect x="655.62" y="95.09" width="8.72" height="8.72" transform="translate(32.17 325.98) rotate(-28.41)"/>
      <rect x="681.96" y="102.94" width="8.72" height="8.72" transform="translate(31.61 339.47) rotate(-28.41)"/>
      <rect x="708.31" y="110.79" width="8.72" height="8.72" transform="translate(31.05 352.95) rotate(-28.41)"/>
      <rect x="734.65" y="118.63" width="8.72" height="8.72" transform="translate(30.49 366.43) rotate(-28.41)"/>
      <path d="M307.8,30.17l7.04-3.81c-3.05,0-6.09,0-9.1,0l2.06,3.81Z"/>
      <path d="M334.14,38.01l8.29-4.48-3.89-7.19c-.88,0-1.75,0-2.63,0l-6.25,3.38,4.48,8.29Z"/>
      <rect x="357.67" y="34.77" width="9.42" height="9.42" transform="translate(24.86 177.17) rotate(-28.41)"/>
      <rect x="384.01" y="42.61" width="9.42" height="9.42" transform="translate(24.3 190.65) rotate(-28.41)"/>
      <rect x="410.35" y="50.46" width="9.42" height="9.42" transform="translate(23.74 204.12) rotate(-28.41)"/>
      <rect x="436.7" y="58.31" width="9.42" height="9.42" transform="translate(23.18 217.61) rotate(-28.41)"/>
      <rect x="463.04" y="66.16" width="9.42" height="9.42" transform="translate(22.62 231.08) rotate(-28.41)"/>
      <rect x="489.38" y="74" width="9.42" height="9.42" transform="translate(22.06 244.57) rotate(-28.41)"/>
      <rect x="515.72" y="81.85" width="9.42" height="9.42" transform="translate(21.49 258.04) rotate(-28.41)"/>
      <rect x="542.06" y="89.7" width="9.42" height="9.42" transform="translate(20.94 271.52) rotate(-28.41)"/>
      <rect x="568.41" y="97.55" width="9.42" height="9.42" transform="translate(20.38 285) rotate(-28.41)"/>
      <rect x="594.75" y="105.39" width="9.42" height="9.42" transform="translate(19.81 298.47) rotate(-28.41)"/>
      <rect x="621.09" y="113.24" width="9.42" height="9.42" transform="translate(19.25 311.96) rotate(-28.41)"/>
      <rect x="647.43" y="121.09" width="9.42" height="9.42" transform="translate(18.69 325.43) rotate(-28.41)"/>
      <rect x="673.77" y="128.93" width="9.42" height="9.42" transform="translate(18.13 338.91) rotate(-28.41)"/>
      <rect x="700.11" y="136.78" width="9.42" height="9.42" transform="translate(17.57 352.38) rotate(-28.41)"/>
      <rect x="726.46" y="144.63" width="9.42" height="9.42" transform="translate(17.01 365.86) rotate(-28.41)"/>
      <path d="M229.68,28.62l-1.22-2.26c-3.88,0-7.71,0-11.49,0l3.82,7.07,8.89-4.81Z"/>
      <rect x="244.11" y="29.37" width="10.11" height="10.11" transform="translate(13.63 122.7) rotate(-28.41)"/>
      <rect x="270.45" y="37.22" width="10.11" height="10.11" transform="translate(13.07 136.17) rotate(-28.41)"/>
      <rect x="296.79" y="45.07" width="10.11" height="10.11" transform="translate(12.51 149.65) rotate(-28.41)"/>
      <rect x="323.14" y="52.92" width="10.11" height="10.11" transform="translate(11.95 163.14) rotate(-28.41)"/>
      <rect x="349.48" y="60.76" width="10.11" height="10.11" transform="translate(11.39 176.61) rotate(-28.41)"/>
      <rect x="375.82" y="68.61" width="10.11" height="10.11" transform="translate(10.83 190.09) rotate(-28.41)"/>
      <rect x="402.16" y="76.46" width="10.11" height="10.11" transform="translate(10.26 203.57) rotate(-28.41)"/>
      <rect x="428.5" y="84.3" width="10.11" height="10.11" transform="translate(9.7 217.05) rotate(-28.41)"/>
      <rect x="454.85" y="92.15" width="10.11" height="10.11" transform="translate(9.14 230.53) rotate(-28.41)"/>
      <rect x="481.19" y="100" width="10.11" height="10.11" transform="translate(8.58 244) rotate(-28.41)"/>
      <rect x="507.53" y="107.85" width="10.11" height="10.11" transform="translate(8.02 257.48) rotate(-28.41)"/>
      <rect x="533.87" y="115.69" width="10.11" height="10.11" transform="translate(7.46 270.96) rotate(-28.41)"/>
      <rect x="560.21" y="123.54" width="10.11" height="10.11" transform="translate(6.9 284.43) rotate(-28.41)"/>
      <rect x="586.56" y="131.39" width="10.11" height="10.11" transform="translate(6.34 297.92) rotate(-28.41)"/>
      <rect x="612.9" y="139.24" width="10.11" height="10.11" transform="translate(5.78 311.4) rotate(-28.41)"/>
      <rect x="639.24" y="147.08" width="10.11" height="10.11" transform="translate(5.21 324.87) rotate(-28.41)"/>
      <rect x="665.58" y="154.93" width="10.11" height="10.11" transform="translate(4.65 338.35) rotate(-28.41)"/>
      <rect x="691.91" y="162.78" width="10.11" height="10.11" transform="translate(4.09 351.83) rotate(-28.41)"/>
      <rect x="718.25" y="170.62" width="10.11" height="10.11" transform="translate(3.53 365.3) rotate(-28.41)"/>
      <polygon points="182.96 42.01 182.96 45.91 186.46 52.39 195.96 47.25 190.82 37.76 182.96 42.01"/>
      <rect x="209.58" y="47.52" width="10.8" height="10.8" transform="translate(.71 108.66) rotate(-28.41)"/>
      <rect x="235.92" y="55.37" width="10.8" height="10.8" transform="translate(.15 122.14) rotate(-28.41)"/>
      <rect x="262.26" y="63.21" width="10.8" height="10.8" transform="translate(-.41 135.61) rotate(-28.41)"/>
      <rect x="288.6" y="71.06" width="10.8" height="10.8" transform="translate(-.97 149.09) rotate(-28.41)"/>
      <rect x="314.95" y="78.91" width="10.8" height="10.8" transform="translate(-1.53 162.57) rotate(-28.41)"/>
      <rect x="341.29" y="86.76" width="10.8" height="10.8" transform="translate(-2.09 176.05) rotate(-28.41)"/>
      <rect x="367.63" y="94.6" width="10.8" height="10.8" transform="translate(-2.65 189.53) rotate(-28.41)"/>
      <rect x="393.97" y="102.45" width="10.8" height="10.8" transform="translate(-3.21 203) rotate(-28.41)"/>
      <rect x="420.31" y="110.3" width="10.8" height="10.8" transform="translate(-3.77 216.48) rotate(-28.41)"/>
      <rect x="446.65" y="118.14" width="10.8" height="10.8" transform="translate(-4.34 229.95) rotate(-28.41)"/>
      <rect x="473" y="125.99" width="10.8" height="10.8" transform="translate(-4.9 243.44) rotate(-28.41)"/>
      <rect x="499.34" y="133.84" width="10.8" height="10.8" transform="translate(-5.46 256.92) rotate(-28.41)"/>
      <rect x="525.68" y="141.69" width="10.8" height="10.8" transform="translate(-6.02 270.4) rotate(-28.41)"/>
      <rect x="552.02" y="149.53" width="10.8" height="10.8" transform="translate(-6.58 283.87) rotate(-28.41)"/>
      <rect x="578.36" y="157.38" width="10.8" height="10.8" transform="translate(-7.14 297.35) rotate(-28.41)"/>
      <rect x="604.71" y="165.23" width="10.8" height="10.8" transform="translate(-7.7 310.83) rotate(-28.41)"/>
      <rect x="631.05" y="173.08" width="10.8" height="10.8" transform="translate(-8.26 324.31) rotate(-28.41)"/>
      <rect x="657.39" y="180.92" width="10.8" height="10.8" transform="translate(-8.82 337.79) rotate(-28.41)"/>
      <rect x="683.72" y="188.77" width="10.79" height="10.8" transform="translate(-9.38 351.26) rotate(-28.41)"/>
      <rect x="710.06" y="196.62" width="10.8" height="10.8" transform="translate(-9.95 364.74) rotate(-28.41)"/>
      <polygon points="188.58 73.74 183.11 63.63 182.96 63.71 182.96 76.77 188.58 73.74"/>
      <rect x="201.39" y="73.52" width="11.49" height="11.49" transform="translate(-12.77 108.1) rotate(-28.41)"/>
      <rect x="227.73" y="81.37" width="11.49" height="11.49" transform="translate(-13.33 121.58) rotate(-28.41)"/>
      <rect x="254.07" y="89.21" width="11.49" height="11.49" transform="translate(-13.89 135.06) rotate(-28.41)"/>
      <rect x="280.41" y="97.06" width="11.49" height="11.49" transform="translate(-14.45 148.53) rotate(-28.41)"/>
      <rect x="306.75" y="104.91" width="11.49" height="11.49" transform="translate(-15.01 162.01) rotate(-28.41)"/>
      <rect x="333.1" y="112.76" width="11.49" height="11.49" transform="translate(-15.57 175.49) rotate(-28.41)"/>
      <rect x="359.44" y="120.6" width="11.49" height="11.49" transform="translate(-16.13 188.97) rotate(-28.41)"/>
      <rect x="385.78" y="128.45" width="11.49" height="11.49" transform="translate(-16.69 202.44) rotate(-28.41)"/>
      <rect x="412.12" y="136.3" width="11.49" height="11.49" transform="translate(-17.25 215.92) rotate(-28.41)"/>
      <rect x="438.46" y="144.14" width="11.49" height="11.49" transform="translate(-17.81 229.4) rotate(-28.41)"/>
      <rect x="464.8" y="151.99" width="11.49" height="11.49" transform="translate(-18.38 242.87) rotate(-28.41)"/>
      <rect x="491.15" y="159.84" width="11.49" height="11.49" transform="translate(-18.94 256.36) rotate(-28.41)"/>
      <rect x="517.49" y="167.69" width="11.49" height="11.49" transform="translate(-19.5 269.84) rotate(-28.41)"/>
      <rect x="543.83" y="175.53" width="11.49" height="11.49" transform="translate(-20.06 283.31) rotate(-28.41)"/>
      <rect x="570.16" y="183.38" width="11.49" height="11.49" transform="translate(-20.62 296.79) rotate(-28.41)"/>
      <rect x="596.5" y="191.23" width="11.49" height="11.49" transform="translate(-21.18 310.27) rotate(-28.41)"/>
      <rect x="622.86" y="199.08" width="11.49" height="11.49" transform="translate(-21.74 323.76) rotate(-28.41)"/>
      <rect x="649.2" y="206.92" width="11.49" height="11.49" transform="translate(-22.3 337.23) rotate(-28.41)"/>
      <rect x="675.53" y="214.77" width="11.49" height="11.49" transform="translate(-22.86 350.71) rotate(-28.41)"/>
      <rect x="701.87" y="222.62" width="11.49" height="11.49" transform="translate(-23.43 364.18) rotate(-28.41)"/>
      <rect x="193.19" y="99.51" width="12.18" height="12.18" transform="translate(-26.24 107.53) rotate(-28.41)"/>
      <rect x="219.54" y="107.36" width="12.18" height="12.18" transform="translate(-26.8 121.02) rotate(-28.41)"/>
      <rect x="245.88" y="115.21" width="12.18" height="12.18" transform="translate(-27.36 134.5) rotate(-28.41)"/>
      <rect x="272.22" y="123.05" width="12.18" height="12.18" transform="translate(-27.93 147.97) rotate(-28.41)"/>
      <rect x="298.56" y="130.9" width="12.18" height="12.18" transform="translate(-28.49 161.45) rotate(-28.41)"/>
      <rect x="324.9" y="138.75" width="12.18" height="12.18" transform="translate(-29.05 174.92) rotate(-28.41)"/>
      <rect x="351.25" y="146.6" width="12.18" height="12.18" transform="translate(-29.61 188.41) rotate(-28.41)"/>
      <rect x="377.59" y="154.44" width="12.18" height="12.18" transform="translate(-30.17 201.88) rotate(-28.41)"/>
      <rect x="403.93" y="162.29" width="12.18" height="12.18" transform="translate(-30.73 215.36) rotate(-28.41)"/>
      <rect x="430.27" y="170.14" width="12.18" height="12.18" transform="translate(-31.29 228.84) rotate(-28.41)"/>
      <rect x="456.61" y="177.98" width="12.18" height="12.18" transform="translate(-31.85 242.32) rotate(-28.41)"/>
      <rect x="482.96" y="185.83" width="12.18" height="12.18" transform="translate(-32.41 255.8) rotate(-28.41)"/>
      <rect x="509.3" y="193.68" width="12.18" height="12.18" transform="translate(-32.98 269.28) rotate(-28.41)"/>
      <rect x="535.64" y="201.53" width="12.18" height="12.18" transform="translate(-33.54 282.76) rotate(-28.41)"/>
      <rect x="561.97" y="209.37" width="12.18" height="12.18" transform="translate(-34.1 296.22) rotate(-28.41)"/>
      <rect x="588.31" y="217.22" width="12.18" height="12.18" transform="translate(-34.66 309.71) rotate(-28.41)"/>
      <rect x="614.65" y="225.07" width="12.18" height="12.18" transform="translate(-35.22 323.18) rotate(-28.41)"/>
      <rect x="641" y="232.92" width="12.18" height="12.18" transform="translate(-35.78 336.67) rotate(-28.41)"/>
      <rect x="667.34" y="240.76" width="12.18" height="12.18" transform="translate(-36.34 350.14) rotate(-28.41)"/>
      <rect x="693.68" y="248.61" width="12.18" height="12.18" transform="translate(-36.9 363.62) rotate(-28.41)"/>
      <polygon points="182.96 129.21 182.96 129.8 188.84 140.66 200.15 134.54 194.03 123.22 182.96 129.21"/>
      <rect x="211.34" y="133.35" width="12.87" height="12.87" transform="translate(-40.28 120.45) rotate(-28.41)"/>
      <rect x="237.69" y="141.2" width="12.87" height="12.87" transform="translate(-40.84 133.93) rotate(-28.41)"/>
      <rect x="264.03" y="149.05" width="12.87" height="12.87" transform="translate(-41.4 147.41) rotate(-28.41)"/>
      <rect x="290.37" y="156.9" width="12.87" height="12.87" transform="translate(-41.96 160.89) rotate(-28.41)"/>
      <rect x="316.71" y="164.74" width="12.87" height="12.87" transform="translate(-42.52 174.36) rotate(-28.41)"/>
      <rect x="343.05" y="172.59" width="12.87" height="12.87" transform="translate(-43.09 187.84) rotate(-28.41)"/>
      <rect x="369.4" y="180.44" width="12.87" height="12.87" transform="translate(-43.65 201.33) rotate(-28.41)"/>
      <rect x="395.74" y="188.29" width="12.87" height="12.87" transform="translate(-44.21 214.8) rotate(-28.41)"/>
      <rect x="422.08" y="196.13" width="12.87" height="12.87" transform="translate(-44.77 228.28) rotate(-28.41)"/>
      <rect x="448.42" y="203.98" width="12.87" height="12.87" transform="translate(-45.33 241.76) rotate(-28.41)"/>
      <rect x="474.75" y="211.82" width="12.87" height="12.87" transform="translate(-45.89 255.23) rotate(-28.41)"/>
      <rect x="501.11" y="219.68" width="12.87" height="12.87" transform="translate(-46.45 268.71) rotate(-28.41)"/>
      <rect x="527.45" y="227.52" width="12.87" height="12.87" transform="translate(-47.01 282.2) rotate(-28.41)"/>
      <rect x="553.78" y="235.37" width="12.87" height="12.87" transform="translate(-47.57 295.67) rotate(-28.41)"/>
      <rect x="580.12" y="243.22" width="12.87" height="12.87" transform="translate(-48.13 309.15) rotate(-28.41)"/>
      <rect x="606.46" y="251.06" width="12.87" height="12.87" transform="translate(-48.7 322.62) rotate(-28.41)"/>
      <rect x="632.8" y="258.91" width="12.87" height="12.87" transform="translate(-49.26 336.1) rotate(-28.41)"/>
      <rect x="659.15" y="266.76" width="12.87" height="12.87" transform="translate(-49.82 349.58) rotate(-28.41)"/>
      <rect x="685.49" y="274.61" width="12.87" height="12.87" transform="translate(-50.38 363.06) rotate(-28.41)"/>
      <polygon points="186.32 149.09 182.96 150.91 182.96 166.32 192.77 161.01 186.32 149.09"/>
      <rect x="203.15" y="159.35" width="13.56" height="13.56" transform="translate(-53.76 119.89) rotate(-28.41)"/>
      <rect x="229.5" y="167.2" width="13.56" height="13.56" transform="translate(-54.32 133.37) rotate(-28.41)"/>
      <rect x="255.84" y="175.04" width="13.56" height="13.56" transform="translate(-54.88 146.85) rotate(-28.41)"/>
      <rect x="282.18" y="182.89" width="13.56" height="13.56" transform="translate(-55.44 160.33) rotate(-28.41)"/>
      <rect x="308.52" y="190.74" width="13.56" height="13.56" transform="translate(-56 173.8) rotate(-28.41)"/>
      <rect x="334.86" y="198.58" width="13.56" height="13.56" transform="translate(-56.56 187.28) rotate(-28.41)"/>
      <rect x="361.19" y="206.43" width="13.56" height="13.56" transform="translate(-57.12 200.76) rotate(-28.41)"/>
      <rect x="387.55" y="214.28" width="13.56" height="13.56" transform="translate(-57.68 214.24) rotate(-28.41)"/>
      <rect x="413.89" y="222.13" width="13.56" height="13.56" transform="translate(-58.25 227.72) rotate(-28.41)"/>
      <rect x="440.22" y="229.97" width="13.56" height="13.56" transform="translate(-58.81 241.19) rotate(-28.41)"/>
      <rect x="466.56" y="237.82" width="13.56" height="13.56" transform="translate(-59.37 254.67) rotate(-28.41)"/>
      <rect x="492.9" y="245.67" width="13.56" height="13.56" transform="translate(-59.93 268.15) rotate(-28.41)"/>
      <rect x="519.26" y="253.52" width="13.56" height="13.56" transform="translate(-60.49 281.63) rotate(-28.41)"/>
      <rect x="545.59" y="261.36" width="13.56" height="13.56" transform="translate(-61.05 295.11) rotate(-28.41)"/>
      <rect x="571.93" y="269.21" width="13.56" height="13.56" transform="translate(-61.61 308.59) rotate(-28.41)"/>
      <rect x="598.27" y="277.06" width="13.56" height="13.56" transform="translate(-62.17 322.06) rotate(-28.41)"/>
      <rect x="624.61" y="284.9" width="13.56" height="13.56" transform="translate(-62.73 335.54) rotate(-28.41)"/>
      <rect x="650.95" y="292.75" width="13.56" height="13.56" transform="translate(-63.29 349.01) rotate(-28.41)"/>
      <rect x="677.3" y="300.6" width="13.56" height="13.56" transform="translate(-63.86 362.5) rotate(-28.41)"/>
      <polygon points="182.96 182.98 182.96 188.83 185.41 187.5 182.96 182.98"/>
      <rect x="194.96" y="185.35" width="14.25" height="14.25" transform="translate(-67.24 119.33) rotate(-28.41)"/>
      <rect x="221.3" y="193.19" width="14.25" height="14.25" transform="translate(-67.8 132.81) rotate(-28.41)"/>
      <rect x="247.65" y="201.04" width="14.25" height="14.25" transform="translate(-68.36 146.29) rotate(-28.41)"/>
      <rect x="273.99" y="208.89" width="14.25" height="14.25" transform="translate(-68.92 159.77) rotate(-28.41)"/>
      <rect x="300.33" y="216.74" width="14.25" height="14.25" transform="translate(-69.48 173.24) rotate(-28.41)"/>
      <rect x="326.67" y="224.58" width="14.25" height="14.25" transform="translate(-70.04 186.72) rotate(-28.41)"/>
      <rect x="353" y="232.43" width="14.25" height="14.25" transform="translate(-70.6 200.2) rotate(-28.41)"/>
      <rect x="379.34" y="240.27" width="14.25" height="14.25" transform="translate(-71.16 213.67) rotate(-28.41)"/>
      <rect x="405.7" y="248.13" width="14.25" height="14.25" transform="translate(-71.73 227.16) rotate(-28.41)"/>
      <rect x="432.03" y="255.97" width="14.25" height="14.25" transform="translate(-72.29 240.64) rotate(-28.41)"/>
      <rect x="458.37" y="263.82" width="14.25" height="14.25" transform="translate(-72.85 254.12) rotate(-28.41)"/>
      <rect x="484.71" y="271.67" width="14.25" height="14.25" transform="translate(-73.41 267.59) rotate(-28.41)"/>
      <rect x="511.05" y="279.51" width="14.25" height="14.25" transform="translate(-73.97 281.07) rotate(-28.41)"/>
      <rect x="537.4" y="287.36" width="14.25" height="14.25" transform="translate(-74.53 294.55) rotate(-28.41)"/>
      <rect x="563.74" y="295.21" width="14.25" height="14.25" transform="translate(-75.09 308.02) rotate(-28.41)"/>
      <rect x="590.08" y="303.06" width="14.25" height="14.25" transform="translate(-75.65 321.51) rotate(-28.41)"/>
      <rect x="616.42" y="310.9" width="14.25" height="14.25" transform="translate(-76.21 334.98) rotate(-28.41)"/>
      <rect x="642.76" y="318.75" width="14.25" height="14.25" transform="translate(-76.78 348.46) rotate(-28.41)"/>
      <rect x="669.11" y="326.6" width="14.25" height="14.25" transform="translate(-77.34 361.94) rotate(-28.41)"/>
      <rect x="186.77" y="211.34" width="14.94" height="14.94" transform="translate(-80.71 118.77) rotate(-28.41)"/>
      <rect x="213.11" y="219.19" width="14.94" height="14.94" transform="translate(-81.28 132.25) rotate(-28.41)"/>
      <rect x="239.44" y="227.03" width="14.94" height="14.94" transform="translate(-81.84 145.72) rotate(-28.41)"/>
      <rect x="265.8" y="234.88" width="14.94" height="14.94" transform="translate(-82.4 159.21) rotate(-28.41)"/>
      <rect x="292.14" y="242.73" width="14.94" height="14.94" transform="translate(-82.96 172.69) rotate(-28.41)"/>
      <rect x="318.47" y="250.58" width="14.94" height="14.94" transform="translate(-83.52 186.16) rotate(-28.41)"/>
      <rect x="344.81" y="258.42" width="14.94" height="14.94" transform="translate(-84.08 199.64) rotate(-28.41)"/>
      <rect x="371.15" y="266.27" width="14.94" height="14.94" transform="translate(-84.64 213.11) rotate(-28.41)"/>
      <rect x="397.49" y="274.12" width="14.94" height="14.94" transform="translate(-85.2 226.59) rotate(-28.41)"/>
      <rect x="423.84" y="281.97" width="14.94" height="14.94" transform="translate(-85.76 240.07) rotate(-28.41)"/>
      <rect x="450.18" y="289.81" width="14.94" height="14.94" transform="translate(-86.32 253.55) rotate(-28.41)"/>
      <rect x="476.52" y="297.66" width="14.94" height="14.94" transform="translate(-86.89 267.03) rotate(-28.41)"/>
      <rect x="502.86" y="305.51" width="14.94" height="14.94" transform="translate(-87.45 280.51) rotate(-28.41)"/>
      <rect x="529.2" y="313.35" width="14.94" height="14.94" transform="translate(-88.01 293.98) rotate(-28.41)"/>
      <rect x="555.55" y="321.2" width="14.94" height="14.94" transform="translate(-88.57 307.47) rotate(-28.41)"/>
      <rect x="581.89" y="329.05" width="14.94" height="14.94" transform="translate(-89.13 320.94) rotate(-28.41)"/>
      <rect x="608.23" y="336.9" width="14.94" height="14.94" transform="translate(-89.69 334.42) rotate(-28.41)"/>
      <rect x="634.57" y="344.74" width="14.94" height="14.94" transform="translate(-90.25 347.9) rotate(-28.41)"/>
      <rect x="660.91" y="352.59" width="14.94" height="14.94" transform="translate(-90.81 361.38) rotate(-28.41)"/>
      <polygon points="189.54 234.57 182.96 238.13 182.96 255.26 183.23 255.76 196.98 248.32 189.54 234.57"/>
      <rect x="204.91" y="245.2" width="15.63" height="15.63" transform="translate(-94.76 131.69) rotate(-28.41)"/>
      <rect x="231.25" y="253.04" width="15.63" height="15.63" transform="translate(-95.32 145.16) rotate(-28.41)"/>
      <rect x="257.59" y="260.89" width="15.63" height="15.63" transform="translate(-95.88 158.64) rotate(-28.41)"/>
      <rect x="283.94" y="268.74" width="15.63" height="15.63" transform="translate(-96.44 172.12) rotate(-28.41)"/>
      <rect x="310.28" y="276.59" width="15.63" height="15.63" transform="translate(-97 185.6) rotate(-28.41)"/>
      <rect x="336.62" y="284.43" width="15.63" height="15.63" transform="translate(-97.56 199.08) rotate(-28.41)"/>
      <rect x="362.96" y="292.28" width="15.63" height="15.63" transform="translate(-98.13 212.55) rotate(-28.41)"/>
      <rect x="389.3" y="300.13" width="15.63" height="15.63" transform="translate(-98.69 226.03) rotate(-28.41)"/>
      <rect x="415.65" y="307.98" width="15.63" height="15.63" transform="translate(-99.25 239.51) rotate(-28.41)"/>
      <rect x="441.99" y="315.82" width="15.63" height="15.63" transform="translate(-99.81 252.99) rotate(-28.41)"/>
      <rect x="468.33" y="323.67" width="15.63" height="15.63" transform="translate(-100.37 266.47) rotate(-28.41)"/>
      <rect x="494.67" y="331.52" width="15.63" height="15.63" transform="translate(-100.93 279.94) rotate(-28.41)"/>
      <rect x="521" y="339.36" width="15.63" height="15.63" transform="translate(-101.49 293.42) rotate(-28.41)"/>
      <rect x="547.34" y="347.21" width="15.63" height="15.63" transform="translate(-102.05 306.9) rotate(-28.41)"/>
      <rect x="573.7" y="355.06" width="15.63" height="15.63" transform="translate(-102.61 320.38) rotate(-28.41)"/>
      <rect x="600.03" y="362.91" width="15.63" height="15.63" transform="translate(-103.18 333.86) rotate(-28.41)"/>
      <rect x="626.37" y="370.75" width="15.63" height="15.63" transform="translate(-103.74 347.34) rotate(-28.41)"/>
      <rect x="652.71" y="378.6" width="15.63" height="15.63" transform="translate(-104.3 360.81) rotate(-28.41)"/>
      <polygon points="182.96 262.52 182.96 278.41 189.61 274.81 182.96 262.52"/>
      <rect x="196.72" y="271.19" width="16.33" height="16.33" transform="translate(-108.24 131.13) rotate(-28.41)"/>
      <rect x="223.06" y="279.04" width="16.33" height="16.33" transform="translate(-108.8 144.6) rotate(-28.41)"/>
      <rect x="249.4" y="286.89" width="16.33" height="16.33" transform="translate(-109.36 158.08) rotate(-28.41)"/>
      <rect x="275.74" y="294.73" width="16.33" height="16.33" transform="translate(-109.92 171.56) rotate(-28.41)"/>
      <rect x="302.09" y="302.58" width="16.33" height="16.33" transform="translate(-110.48 185.04) rotate(-28.41)"/>
      <rect x="328.43" y="310.43" width="16.33" height="16.33" transform="translate(-111.04 198.52) rotate(-28.41)"/>
      <rect x="354.77" y="318.28" width="16.33" height="16.33" transform="translate(-111.61 212) rotate(-28.41)"/>
      <rect x="381.11" y="326.12" width="16.33" height="16.33" transform="translate(-112.17 225.47) rotate(-28.41)"/>
      <rect x="407.44" y="333.97" width="16.33" height="16.33" transform="translate(-112.73 238.95) rotate(-28.41)"/>
      <rect x="433.8" y="341.82" width="16.33" height="16.33" transform="translate(-113.29 252.44) rotate(-28.41)"/>
      <rect x="460.14" y="349.67" width="16.33" height="16.33" transform="translate(-113.85 265.91) rotate(-28.41)"/>
      <rect x="486.47" y="357.51" width="16.33" height="16.33" transform="translate(-114.41 279.39) rotate(-28.41)"/>
      <rect x="512.81" y="365.36" width="16.33" height="16.33" transform="translate(-114.97 292.86) rotate(-28.41)"/>
      <rect x="539.15" y="373.21" width="16.33" height="16.33" transform="translate(-115.53 306.34) rotate(-28.41)"/>
      <rect x="565.49" y="381.05" width="16.33" height="16.33" transform="translate(-116.09 319.82) rotate(-28.41)"/>
      <rect x="591.84" y="388.9" width="16.33" height="16.33" transform="translate(-116.66 333.3) rotate(-28.41)"/>
      <rect x="618.18" y="396.75" width="16.33" height="16.33" transform="translate(-117.22 346.78) rotate(-28.41)"/>
      <rect x="644.52" y="404.6" width="16.33" height="16.33" transform="translate(-117.78 360.26) rotate(-28.41)"/>
      <rect x="188.53" y="297.19" width="17.02" height="17.02" transform="translate(-121.72 130.57) rotate(-28.41)"/>
      <rect x="214.87" y="305.04" width="17.02" height="17.02" transform="translate(-122.28 144.04) rotate(-28.41)"/>
      <rect x="241.21" y="312.88" width="17.02" height="17.02" transform="translate(-122.84 157.52) rotate(-28.41)"/>
      <rect x="267.55" y="320.73" width="17.02" height="17.02" transform="translate(-123.4 171) rotate(-28.41)"/>
      <rect x="293.89" y="328.58" width="17.02" height="17.02" transform="translate(-123.96 184.47) rotate(-28.41)"/>
      <rect x="320.24" y="336.43" width="17.02" height="17.02" transform="translate(-124.52 197.96) rotate(-28.41)"/>
      <rect x="346.58" y="344.27" width="17.02" height="17.02" transform="translate(-125.08 211.44) rotate(-28.41)"/>
      <rect x="372.92" y="352.12" width="17.02" height="17.02" transform="translate(-125.64 224.91) rotate(-28.41)"/>
      <rect x="399.25" y="359.97" width="17.02" height="17.02" transform="translate(-126.2 238.39) rotate(-28.41)"/>
      <rect x="425.59" y="367.81" width="17.02" height="17.02" transform="translate(-126.77 251.87) rotate(-28.41)"/>
      <rect x="451.95" y="375.66" width="17.02" height="17.02" transform="translate(-127.33 265.35) rotate(-28.41)"/>
      <rect x="478.28" y="383.51" width="17.02" height="17.02" transform="translate(-127.89 278.83) rotate(-28.41)"/>
      <rect x="504.62" y="391.36" width="17.02" height="17.02" transform="translate(-128.45 292.3) rotate(-28.41)"/>
      <rect x="530.96" y="399.2" width="17.02" height="17.02" transform="translate(-129.01 305.78) rotate(-28.41)"/>
      <rect x="557.3" y="407.05" width="17.02" height="17.02" transform="translate(-129.57 319.25) rotate(-28.41)"/>
      <rect x="583.65" y="414.9" width="17.02" height="17.02" transform="translate(-130.13 332.74) rotate(-28.41)"/>
      <rect x="609.99" y="422.75" width="17.02" height="17.02" transform="translate(-130.69 346.22) rotate(-28.41)"/>
      <rect x="636.33" y="430.59" width="17.02" height="17.02" transform="translate(-131.25 359.69) rotate(-28.41)"/>
      <polygon points="201.19 335.61 192.77 320.04 182.96 325.34 182.96 339.12 185.62 344.03 201.19 335.61"/>
      <rect x="206.68" y="331.03" width="17.7" height="17.7" transform="translate(-135.75 143.48) rotate(-28.41)"/>
      <rect x="233.02" y="338.88" width="17.7" height="17.7" transform="translate(-136.31 156.96) rotate(-28.41)"/>
      <rect x="259.36" y="346.72" width="17.7" height="17.7" transform="translate(-136.88 170.44) rotate(-28.41)"/>
      <rect x="285.69" y="354.57" width="17.7" height="17.7" transform="translate(-137.44 183.91) rotate(-28.41)"/>
      <rect x="312.03" y="362.42" width="17.7" height="17.7" transform="translate(-138 197.39) rotate(-28.41)"/>
      <rect x="338.39" y="370.27" width="17.7" height="17.7" transform="translate(-138.56 210.87) rotate(-28.41)"/>
      <rect x="364.73" y="378.11" width="17.7" height="17.7" transform="translate(-139.12 224.35) rotate(-28.41)"/>
      <rect x="391.06" y="385.96" width="17.7" height="17.7" transform="translate(-139.68 237.83) rotate(-28.41)"/>
      <rect x="417.4" y="393.81" width="17.7" height="17.7" transform="translate(-140.24 251.3) rotate(-28.41)"/>
      <rect x="443.74" y="401.65" width="17.7" height="17.7" transform="translate(-140.8 264.78) rotate(-28.41)"/>
      <rect x="470.09" y="409.5" width="17.7" height="17.7" transform="translate(-141.36 278.26) rotate(-28.41)"/>
      <rect x="496.43" y="417.35" width="17.7" height="17.7" transform="translate(-141.93 291.74) rotate(-28.41)"/>
      <rect x="522.77" y="425.2" width="17.7" height="17.7" transform="translate(-142.49 305.22) rotate(-28.41)"/>
      <rect x="549.11" y="433.04" width="17.7" height="17.7" transform="translate(-143.05 318.7) rotate(-28.41)"/>
      <rect x="575.45" y="440.89" width="17.7" height="17.7" transform="translate(-143.61 332.17) rotate(-28.41)"/>
      <rect x="601.8" y="448.74" width="17.7" height="17.7" transform="translate(-144.17 345.65) rotate(-28.41)"/>
      <rect x="628.14" y="456.59" width="17.7" height="17.7" transform="translate(-144.73 359.14) rotate(-28.41)"/>
      <polygon points="185.05 345.91 182.96 347.04 182.96 367.96 193.81 362.09 185.05 345.91"/>
      <rect x="198.49" y="357.03" width="18.4" height="18.4" transform="translate(-149.23 142.93) rotate(-28.41)"/>
      <rect x="224.83" y="364.88" width="18.4" height="18.4" transform="translate(-149.8 156.4) rotate(-28.41)"/>
      <rect x="251.17" y="372.72" width="18.4" height="18.4" transform="translate(-150.36 169.88) rotate(-28.41)"/>
      <rect x="277.5" y="380.57" width="18.4" height="18.4" transform="translate(-150.92 183.36) rotate(-28.41)"/>
      <rect x="303.84" y="388.42" width="18.4" height="18.4" transform="translate(-151.48 196.83) rotate(-28.41)"/>
      <rect x="330.2" y="396.27" width="18.4" height="18.4" transform="translate(-152.04 210.32) rotate(-28.41)"/>
      <rect x="356.53" y="404.11" width="18.4" height="18.4" transform="translate(-152.6 223.79) rotate(-28.41)"/>
      <rect x="382.87" y="411.96" width="18.4" height="18.4" transform="translate(-153.16 237.27) rotate(-28.41)"/>
      <rect x="409.21" y="419.81" width="18.4" height="18.4" transform="translate(-153.72 250.75) rotate(-28.41)"/>
      <rect x="435.55" y="427.65" width="18.4" height="18.4" transform="translate(-154.28 264.22) rotate(-28.41)"/>
      <rect x="461.89" y="435.5" width="18.4" height="18.4" transform="translate(-154.85 277.7) rotate(-28.41)"/>
      <rect x="488.24" y="443.35" width="18.4" height="18.4" transform="translate(-155.41 291.18) rotate(-28.41)"/>
      <rect x="514.58" y="451.2" width="18.4" height="18.4" transform="translate(-155.97 304.66) rotate(-28.41)"/>
      <rect x="540.92" y="459.04" width="18.4" height="18.4" transform="translate(-156.53 318.14) rotate(-28.41)"/>
      <rect x="567.26" y="466.89" width="18.4" height="18.4" transform="translate(-157.09 331.62) rotate(-28.41)"/>
      <path d="M606.51,471.47l-16.19,8.76,7.65,14.15c1.59,0,3.23,0,4.89-.01l12.4-6.71-8.76-16.19Z"/>
      <path d="M632.87,479.32l-16.19,8.76,3.39,6.26c6.61,0,13.6-.02,20.91-.03l-8.11-14.99Z"/>
      <polygon points="182.96 382.17 182.96 390.45 186.43 388.57 182.96 382.17"/>
      <rect x="190.28" y="383.02" width="19.09" height="19.09" transform="translate(-162.71 142.36) rotate(-28.41)"/>
      <rect x="216.64" y="390.87" width="19.09" height="19.09" transform="translate(-163.27 155.84) rotate(-28.41)"/>
      <rect x="242.97" y="398.72" width="19.09" height="19.09" transform="translate(-163.83 169.32) rotate(-28.41)"/>
      <rect x="269.31" y="406.56" width="19.09" height="19.09" transform="translate(-164.39 182.8) rotate(-28.41)"/>
      <rect x="295.65" y="414.41" width="19.09" height="19.09" transform="translate(-164.96 196.27) rotate(-28.41)"/>
      <rect x="321.99" y="422.26" width="19.09" height="19.09" transform="translate(-165.52 209.75) rotate(-28.41)"/>
      <rect x="348.34" y="430.11" width="19.09" height="19.09" transform="translate(-166.08 223.23) rotate(-28.41)"/>
      <rect x="374.68" y="437.95" width="19.09" height="19.09" transform="translate(-166.64 236.71) rotate(-28.41)"/>
      <rect x="401.02" y="445.8" width="19.09" height="19.09" transform="translate(-167.2 250.19) rotate(-28.41)"/>
      <rect x="427.36" y="453.65" width="19.09" height="19.09" transform="translate(-167.76 263.66) rotate(-28.41)"/>
      <rect x="453.7" y="461.49" width="19.09" height="19.09" transform="translate(-168.32 277.14) rotate(-28.41)"/>
      <rect x="480.04" y="469.34" width="19.09" height="19.09" transform="translate(-168.88 290.62) rotate(-28.41)"/>
      <polygon points="519.79 473.8 503 482.88 509.36 494.64 521.39 494.64 528.87 490.59 519.79 473.8"/>
      <polygon points="546.13 481.65 529.34 490.73 531.45 494.64 553.15 494.64 546.13 481.65"/>
      <path d="M572.47,489.49l-9.25,5c3.09-.02,7.1-.04,11.92-.06l-2.67-4.94Z"/>
      <polygon points="195.91 405.73 182.96 412.74 182.96 422.63 188.07 432.07 205.16 422.82 195.91 405.73"/>
      <rect x="208.61" y="417.03" width="19.43" height="19.43" transform="translate(-176.74 155.28) rotate(-28.41)"/>
      <rect x="234.95" y="424.87" width="19.43" height="19.43" transform="translate(-177.31 168.75) rotate(-28.41)"/>
      <rect x="261.29" y="432.72" width="19.43" height="19.43" transform="translate(-177.87 182.23) rotate(-28.41)"/>
      <rect x="287.64" y="440.57" width="19.43" height="19.43" transform="translate(-178.43 195.72) rotate(-28.41)"/>
      <rect x="313.98" y="448.42" width="19.43" height="19.43" transform="translate(-178.99 209.19) rotate(-28.41)"/>
      <rect x="340.32" y="456.27" width="19.43" height="19.43" transform="translate(-179.55 222.67) rotate(-28.41)"/>
      <rect x="366.66" y="464.11" width="19.43" height="19.43" transform="translate(-180.11 236.14) rotate(-28.41)"/>
      <polygon points="406.64 468.51 389.55 477.75 398.68 494.64 399.18 494.64 415.88 485.6 406.64 468.51"/>
      <polygon points="415.9 485.6 420.78 494.64 440.04 494.64 442.24 493.45 432.99 476.36 415.9 485.6"/>
      <polygon points="459.33 484.2 442.24 493.45 442.88 494.64 464.97 494.64 459.33 484.2"/>
      <polygon points="485.67 492.05 480.89 494.64 487.07 494.64 485.67 492.05"/>
      <polygon points="188.07 432.07 182.96 434.83 182.96 456.92 197.31 449.16 188.07 432.07"/>
      <rect x="200.77" y="443.37" width="19.43" height="19.43" transform="translate(-190.22 154.71) rotate(-28.41)"/>
      <rect x="227.1" y="451.21" width="19.43" height="19.43" transform="translate(-190.78 168.19) rotate(-28.41)"/>
      <rect x="253.44" y="459.06" width="19.43" height="19.43" transform="translate(-191.34 181.67) rotate(-28.41)"/>
      <rect x="279.8" y="466.91" width="19.43" height="19.43" transform="translate(-191.9 195.15) rotate(-28.41)"/>
      <polygon points="302.68 480.55 310.3 494.64 317.49 494.64 329.02 488.4 319.78 471.3 302.68 480.55"/>
      <polygon points="346.11 479.15 329.02 488.4 332.4 494.64 354.49 494.64 346.11 479.15"/>
      <polygon points="376.58 494.64 372.45 487 358.33 494.64 376.58 494.64"/>
      <polygon points="182.96 479.03 189.46 475.51 182.96 463.49 182.96 479.03"/>
      <rect x="192.92" y="469.72" width="19.43" height="19.43" transform="translate(-203.71 154.15) rotate(-28.41)"/>
      <polygon points="215.8 483.36 221.9 494.64 235.8 494.64 242.14 491.21 232.89 474.11 215.8 483.36"/>
      <polygon points="259.23 481.96 242.14 491.21 244 494.64 266.09 494.64 259.23 481.96"/>
      <polygon points="276.67 494.64 288.2 494.64 285.59 489.81 276.67 494.64"/>
      <polygon points="194.96 494.64 199.81 494.64 198.71 492.61 194.96 494.64"/>
      <rect x="906.04" y="27.51" width="5.27" height="5.27" transform="translate(95.09 435.96) rotate(-28.41)"/>
      <rect x="932.39" y="35.36" width="5.27" height="5.27" transform="translate(94.55 449.48) rotate(-28.41)"/>
      <rect x="958.73" y="43.21" width="5.27" height="5.27" transform="translate(93.97 462.93) rotate(-28.41)"/>
      <path d="M794.27,29.14l5.24-2.84-.19-.34c-2.25,0-4.51,0-6.77,0l1.72,3.18Z"/>
      <rect x="818.83" y="29.97" width="5.96" height="5.96" transform="translate(83.3 394.97) rotate(-28.41)"/>
      <rect x="845.17" y="37.82" width="5.96" height="5.96" transform="translate(82.75 408.47) rotate(-28.41)"/>
      <rect x="871.51" y="45.66" width="5.96" height="5.96" transform="translate(82.18 421.92) rotate(-28.41)"/>
      <rect x="897.85" y="53.51" width="5.96" height="5.96" transform="translate(81.62 435.4) rotate(-28.41)"/>
      <rect x="924.2" y="61.36" width="5.96" height="5.96" transform="translate(81.07 448.91) rotate(-28.41)"/>
      <rect x="950.54" y="69.21" width="5.96" height="5.96" transform="translate(80.49 462.35) rotate(-28.41)"/>
      <rect x="784.29" y="48.11" width="6.65" height="6.65" transform="translate(70.39 380.94) rotate(-28.41)"/>
      <rect x="810.64" y="55.96" width="6.65" height="6.65" transform="translate(69.83 394.42) rotate(-28.41)"/>
      <rect x="836.98" y="63.81" width="6.65" height="6.65" transform="translate(69.27 407.9) rotate(-28.41)"/>
      <rect x="863.32" y="71.66" width="6.65" height="6.65" transform="translate(68.7 421.35) rotate(-28.41)"/>
      <rect x="889.66" y="79.5" width="6.65" height="6.65" transform="translate(68.14 434.83) rotate(-28.41)"/>
      <rect x="916" y="87.35" width="6.65" height="6.65" transform="translate(67.59 448.33) rotate(-28.41)"/>
      <rect x="942.35" y="95.2" width="6.65" height="6.65" transform="translate(67.03 461.82) rotate(-28.41)"/>
      <polygon points="967.82 105.6 967.82 104.86 967.51 105.03 967.82 105.6"/>
      <rect x="776.1" y="74.11" width="7.35" height="7.35" transform="translate(56.91 380.37) rotate(-28.41)"/>
      <rect x="802.44" y="81.96" width="7.35" height="7.35" transform="translate(56.34 393.85) rotate(-28.41)"/>
      <rect x="828.79" y="89.81" width="7.35" height="7.35" transform="translate(55.79 407.35) rotate(-28.41)"/>
      <rect x="855.13" y="97.66" width="7.35" height="7.35" transform="translate(55.23 420.83) rotate(-28.41)"/>
      <rect x="881.47" y="105.5" width="7.35" height="7.35" transform="translate(54.66 434.29) rotate(-28.41)"/>
      <rect x="907.81" y="113.35" width="7.35" height="7.35" transform="translate(54.1 447.76) rotate(-28.41)"/>
      <rect x="934.15" y="121.19" width="7.35" height="7.35" transform="translate(53.54 461.24) rotate(-28.41)"/>
      <polygon points="959.19 131.24 962.69 137.7 967.82 134.92 967.82 131.74 965.66 127.74 959.19 131.24"/>
      <rect x="767.91" y="100.11" width="8.03" height="8.03" transform="translate(43.43 379.81) rotate(-28.41)"/>
      <rect x="794.25" y="107.95" width="8.03" height="8.03" transform="translate(42.87 393.28) rotate(-28.41)"/>
      <rect x="820.59" y="115.8" width="8.03" height="8.03" transform="translate(42.31 406.78) rotate(-28.41)"/>
      <rect x="846.94" y="123.65" width="8.03" height="8.03" transform="translate(41.75 420.26) rotate(-28.41)"/>
      <rect x="873.28" y="131.5" width="8.03" height="8.03" transform="translate(41.18 433.72) rotate(-28.41)"/>
      <rect x="899.62" y="139.34" width="8.03" height="8.03" transform="translate(40.63 447.21) rotate(-28.41)"/>
      <rect x="925.96" y="147.19" width="8.03" height="8.03" transform="translate(40.06 460.68) rotate(-28.41)"/>
      <rect x="952.3" y="155.04" width="8.03" height="8.03" transform="translate(39.51 474.17) rotate(-28.41)"/>
      <rect x="759.72" y="126.1" width="8.72" height="8.72" transform="translate(29.96 379.26) rotate(-28.41)"/>
      <rect x="786.06" y="133.95" width="8.72" height="8.72" transform="translate(29.4 392.74) rotate(-28.41)"/>
      <rect x="812.4" y="141.79" width="8.72" height="8.72" transform="translate(28.83 406.22) rotate(-28.41)"/>
      <rect x="838.75" y="149.64" width="8.72" height="8.72" transform="translate(28.27 419.7) rotate(-28.41)"/>
      <rect x="865.09" y="157.49" width="8.72" height="8.72" transform="translate(27.7 433.15) rotate(-28.41)"/>
      <rect x="891.43" y="165.34" width="8.72" height="8.72" transform="translate(27.15 446.65) rotate(-28.41)"/>
      <rect x="917.77" y="173.18" width="8.72" height="8.72" transform="translate(26.59 460.13) rotate(-28.41)"/>
      <rect x="944.11" y="181.03" width="8.72" height="8.72" transform="translate(26.03 473.6) rotate(-28.41)"/>
      <rect x="751.53" y="152.1" width="9.42" height="9.42" transform="translate(16.47 378.69) rotate(-28.41)"/>
      <rect x="777.87" y="159.95" width="9.42" height="9.42" transform="translate(15.92 392.19) rotate(-28.41)"/>
      <rect x="804.21" y="167.79" width="9.42" height="9.42" transform="translate(15.35 405.65) rotate(-28.41)"/>
      <rect x="830.55" y="175.64" width="9.42" height="9.42" transform="translate(14.79 419.12) rotate(-28.41)"/>
      <rect x="856.9" y="183.49" width="9.42" height="9.42" transform="translate(14.23 432.61) rotate(-28.41)"/>
      <rect x="883.24" y="191.34" width="9.42" height="9.42" transform="translate(13.67 446.1) rotate(-28.41)"/>
      <rect x="909.58" y="199.18" width="9.42" height="9.42" transform="translate(13.1 459.56) rotate(-28.41)"/>
      <rect x="935.91" y="207.03" width="9.42" height="9.42" transform="translate(12.54 473.03) rotate(-28.41)"/>
      <polygon points="965.06 225.97 967.82 224.48 967.82 213.77 960.58 217.68 965.06 225.97"/>
      <rect x="743.34" y="178.09" width="10.11" height="10.11" transform="translate(3 378.13) rotate(-28.41)"/>
      <rect x="769.68" y="185.94" width="10.11" height="10.11" transform="translate(2.44 391.62) rotate(-28.41)"/>
      <rect x="796.02" y="193.79" width="10.11" height="10.11" transform="translate(1.87 405.08) rotate(-28.41)"/>
      <rect x="822.36" y="201.63" width="10.11" height="10.11" transform="translate(1.32 418.57) rotate(-28.41)"/>
      <rect x="848.69" y="209.48" width="10.11" height="10.11" transform="translate(.75 432.04) rotate(-28.41)"/>
      <rect x="875.05" y="217.33" width="10.11" height="10.11" transform="translate(.19 445.53) rotate(-28.41)"/>
      <rect x="901.39" y="225.18" width="10.11" height="10.11" transform="translate(-.37 459.01) rotate(-28.41)"/>
      <rect x="927.72" y="233.02" width="10.11" height="10.11" transform="translate(-.93 472.47) rotate(-28.41)"/>
      <rect x="954.06" y="240.87" width="10.11" height="10.11" transform="translate(-1.49 485.95) rotate(-28.41)"/>
      <rect x="735.13" y="204.09" width="10.8" height="10.8" transform="translate(-10.48 377.56) rotate(-28.41)"/>
      <rect x="761.49" y="211.94" width="10.8" height="10.8" transform="translate(-11.04 391.06) rotate(-28.41)"/>
      <rect x="787.83" y="219.78" width="10.79" height="10.8" transform="translate(-11.6 404.53) rotate(-28.41)"/>
      <rect x="814.16" y="227.63" width="10.8" height="10.8" transform="translate(-12.16 418.01) rotate(-28.41)"/>
      <rect x="840.5" y="235.48" width="10.8" height="10.8" transform="translate(-12.72 431.49) rotate(-28.41)"/>
      <rect x="866.84" y="243.32" width="10.8" height="10.8" transform="translate(-13.28 444.96) rotate(-28.41)"/>
      <rect x="893.2" y="251.17" width="10.8" height="10.8" transform="translate(-13.85 458.45) rotate(-28.41)"/>
      <rect x="919.53" y="259.02" width="10.8" height="10.8" transform="translate(-14.41 471.91) rotate(-28.41)"/>
      <rect x="945.87" y="266.87" width="10.8" height="10.8" transform="translate(-14.97 485.4) rotate(-28.41)"/>
      <rect x="726.94" y="230.08" width="11.49" height="11.49" transform="translate(-23.96 377.01) rotate(-28.41)"/>
      <rect x="753.3" y="237.94" width="11.49" height="11.49" transform="translate(-24.52 390.49) rotate(-28.41)"/>
      <rect x="779.64" y="245.78" width="11.49" height="11.49" transform="translate(-25.08 403.97) rotate(-28.41)"/>
      <rect x="805.97" y="253.63" width="11.49" height="11.49" transform="translate(-25.64 417.44) rotate(-28.41)"/>
      <rect x="832.31" y="261.47" width="11.49" height="11.49" transform="translate(-26.2 430.93) rotate(-28.41)"/>
      <rect x="858.65" y="269.32" width="11.49" height="11.49" transform="translate(-26.76 444.41) rotate(-28.41)"/>
      <rect x="884.99" y="277.17" width="11.49" height="11.49" transform="translate(-27.33 457.88) rotate(-28.41)"/>
      <rect x="911.34" y="285.02" width="11.49" height="11.49" transform="translate(-27.89 471.36) rotate(-28.41)"/>
      <rect x="937.68" y="292.86" width="11.49" height="11.49" transform="translate(-28.45 484.84) rotate(-28.41)"/>
      <polygon points="967.45 314.25 967.82 314.05 967.82 300.98 961.98 304.14 967.45 314.25"/>
      <rect x="718.75" y="256.08" width="12.18" height="12.18" transform="translate(-37.44 376.45) rotate(-28.41)"/>
      <rect x="745.09" y="263.93" width="12.18" height="12.18" transform="translate(-38 389.92) rotate(-28.41)"/>
      <rect x="771.45" y="271.78" width="12.18" height="12.18" transform="translate(-38.56 403.41) rotate(-28.41)"/>
      <rect x="797.78" y="279.62" width="12.18" height="12.18" transform="translate(-39.12 416.88) rotate(-28.41)"/>
      <rect x="824.12" y="287.47" width="12.18" height="12.18" transform="translate(-39.68 430.36) rotate(-28.41)"/>
      <rect x="850.46" y="295.32" width="12.18" height="12.18" transform="translate(-40.24 443.85) rotate(-28.41)"/>
      <rect x="876.8" y="303.16" width="12.18" height="12.18" transform="translate(-40.8 457.32) rotate(-28.41)"/>
      <rect x="903.14" y="311.01" width="12.18" height="12.18" transform="translate(-41.36 470.79) rotate(-28.41)"/>
      <rect x="929.49" y="318.86" width="12.18" height="12.18" transform="translate(-41.93 484.27) rotate(-28.41)"/>
      <polygon points="959.46 341.05 967.82 336.53 967.82 330.9 964.38 324.54 953.67 330.34 959.46 341.05"/>
      <rect x="710.56" y="282.07" width="12.87" height="12.87" transform="translate(-50.91 375.88) rotate(-28.41)"/>
      <rect x="736.9" y="289.92" width="12.87" height="12.87" transform="translate(-51.47 389.37) rotate(-28.41)"/>
      <rect x="763.24" y="297.77" width="12.87" height="12.87" transform="translate(-52.04 402.85) rotate(-28.41)"/>
      <rect x="789.59" y="305.62" width="12.87" height="12.87" transform="translate(-52.6 416.32) rotate(-28.41)"/>
      <rect x="815.93" y="313.46" width="12.87" height="12.87" transform="translate(-53.16 429.81) rotate(-28.41)"/>
      <rect x="842.27" y="321.31" width="12.87" height="12.87" transform="translate(-53.72 443.28) rotate(-28.41)"/>
      <rect x="868.61" y="329.16" width="12.87" height="12.87" transform="translate(-54.28 456.74) rotate(-28.41)"/>
      <rect x="894.95" y="337" width="12.87" height="12.87" transform="translate(-54.84 470.24) rotate(-28.41)"/>
      <rect x="921.29" y="344.85" width="12.87" height="12.87" transform="translate(-55.4 483.71) rotate(-28.41)"/>
      <rect x="947.64" y="352.7" width="12.87" height="12.87" transform="translate(-55.96 497.2) rotate(-28.41)"/>
      <rect x="702.37" y="308.07" width="13.56" height="13.56" transform="translate(-64.39 375.33) rotate(-28.41)"/>
      <rect x="728.71" y="315.92" width="13.56" height="13.56" transform="translate(-64.95 388.8) rotate(-28.41)"/>
      <rect x="755.05" y="323.76" width="13.56" height="13.56" transform="translate(-65.51 402.28) rotate(-28.41)"/>
      <rect x="781.39" y="331.61" width="13.56" height="13.56" transform="translate(-66.07 415.76) rotate(-28.41)"/>
      <rect x="807.74" y="339.46" width="13.56" height="13.56" transform="translate(-66.63 429.24) rotate(-28.41)"/>
      <rect x="834.08" y="347.31" width="13.56" height="13.56" transform="translate(-67.19 442.73) rotate(-28.41)"/>
      <rect x="860.42" y="355.15" width="13.56" height="13.56" transform="translate(-67.76 456.19) rotate(-28.41)"/>
      <rect x="886.76" y="363" width="13.56" height="13.56" transform="translate(-68.32 469.66) rotate(-28.41)"/>
      <rect x="913.1" y="370.85" width="13.56" height="13.56" transform="translate(-68.88 483.15) rotate(-28.41)"/>
      <rect x="939.45" y="378.7" width="13.56" height="13.56" transform="translate(-69.44 496.63) rotate(-28.41)"/>
      <polygon points="967.82 398.79 967.82 388.18 963.38 390.58 967.82 398.79"/>
      <rect x="694.18" y="334.07" width="14.25" height="14.25" transform="translate(-77.87 374.77) rotate(-28.41)"/>
      <rect x="720.52" y="341.91" width="14.25" height="14.25" transform="translate(-78.43 388.25) rotate(-28.41)"/>
      <rect x="746.86" y="349.76" width="14.25" height="14.25" transform="translate(-78.99 401.73) rotate(-28.41)"/>
      <rect x="773.2" y="357.61" width="14.25" height="14.25" transform="translate(-79.55 415.2) rotate(-28.41)"/>
      <rect x="799.54" y="365.45" width="14.25" height="14.25" transform="translate(-80.11 428.68) rotate(-28.41)"/>
      <rect x="825.89" y="373.3" width="14.25" height="14.25" transform="translate(-80.68 442.15) rotate(-28.41)"/>
      <rect x="852.23" y="381.15" width="14.25" height="14.25" transform="translate(-81.24 455.64) rotate(-28.41)"/>
      <rect x="878.57" y="389" width="14.25" height="14.25" transform="translate(-81.8 469.12) rotate(-28.41)"/>
      <rect x="904.91" y="396.84" width="14.25" height="14.25" transform="translate(-82.36 482.59) rotate(-28.41)"/>
      <rect x="931.25" y="404.69" width="14.25" height="14.25" transform="translate(-82.92 496.07) rotate(-28.41)"/>
      <polygon points="961.85 429.33 967.82 426.1 967.82 410.41 967.6 410.01 955.07 416.79 961.85 429.33"/>
      <rect x="685.99" y="360.06" width="14.94" height="14.94" transform="translate(-91.35 374.21) rotate(-28.41)"/>
      <rect x="712.33" y="367.91" width="14.94" height="14.94" transform="translate(-91.91 387.69) rotate(-28.41)"/>
      <rect x="738.67" y="375.76" width="14.94" height="14.94" transform="translate(-92.47 401.16) rotate(-28.41)"/>
      <rect x="765.01" y="383.6" width="14.94" height="14.94" transform="translate(-93.03 414.63) rotate(-28.41)"/>
      <rect x="791.35" y="391.45" width="14.94" height="14.94" transform="translate(-93.59 428.12) rotate(-28.41)"/>
      <rect x="817.69" y="399.3" width="14.94" height="14.94" transform="translate(-94.15 441.59) rotate(-28.41)"/>
      <rect x="844.04" y="407.15" width="14.94" height="14.94" transform="translate(-94.71 455.08) rotate(-28.41)"/>
      <rect x="870.38" y="414.99" width="14.94" height="14.94" transform="translate(-95.27 468.56) rotate(-28.41)"/>
      <rect x="896.72" y="422.84" width="14.94" height="14.94" transform="translate(-95.84 482.03) rotate(-28.41)"/>
      <rect x="923.05" y="430.69" width="14.94" height="14.94" transform="translate(-96.4 495.51) rotate(-28.41)"/>
      <rect x="949.39" y="438.53" width="14.94" height="14.94" transform="translate(-96.96 508.97) rotate(-28.41)"/>
      <rect x="677.78" y="386.07" width="15.63" height="15.63" transform="translate(-104.83 373.64) rotate(-28.41)"/>
      <rect x="704.14" y="393.92" width="15.63" height="15.63" transform="translate(-105.39 387.12) rotate(-28.41)"/>
      <rect x="730.47" y="401.76" width="15.63" height="15.63" transform="translate(-105.95 400.6) rotate(-28.41)"/>
      <rect x="756.81" y="409.61" width="15.63" height="15.63" transform="translate(-106.51 414.07) rotate(-28.41)"/>
      <rect x="783.15" y="417.46" width="15.63" height="15.63" transform="translate(-107.08 427.56) rotate(-28.41)"/>
      <rect x="809.49" y="425.3" width="15.63" height="15.63" transform="translate(-107.64 441.03) rotate(-28.41)"/>
      <rect x="835.83" y="433.15" width="15.63" height="15.63" transform="translate(-108.2 454.51) rotate(-28.41)"/>
      <rect x="862.18" y="441" width="15.63" height="15.63" transform="translate(-108.76 467.99) rotate(-28.41)"/>
      <rect x="888.52" y="448.85" width="15.63" height="15.63" transform="translate(-109.32 481.46) rotate(-28.41)"/>
      <rect x="914.86" y="456.69" width="15.63" height="15.63" transform="translate(-109.88 494.95) rotate(-28.41)"/>
      <rect x="941.2" y="464.54" width="15.63" height="15.63" transform="translate(-110.44 508.42) rotate(-28.41)"/>
      <polygon points="967.82 482.7 967.82 475.39 964.76 477.05 967.82 482.7"/>
      <rect x="669.59" y="412.07" width="16.33" height="16.33" transform="translate(-118.31 373.09) rotate(-28.41)"/>
      <rect x="695.93" y="419.91" width="16.33" height="16.33" transform="translate(-118.87 386.56) rotate(-28.41)"/>
      <rect x="722.28" y="427.76" width="16.33" height="16.33" transform="translate(-119.43 400.05) rotate(-28.41)"/>
      <rect x="748.62" y="435.61" width="16.33" height="16.33" transform="translate(-120 413.52) rotate(-28.41)"/>
      <rect x="774.96" y="443.46" width="16.33" height="16.33" transform="translate(-120.56 427) rotate(-28.41)"/>
      <rect x="801.3" y="451.3" width="16.33" height="16.33" transform="translate(-121.12 440.46) rotate(-28.41)"/>
      <rect x="827.64" y="459.15" width="16.33" height="16.33" transform="translate(-121.68 453.96) rotate(-28.41)"/>
      <rect x="853.99" y="467" width="16.33" height="16.33" transform="translate(-122.24 467.44) rotate(-28.41)"/>
      <rect x="880.33" y="474.85" width="16.33" height="16.33" transform="translate(-122.8 480.92) rotate(-28.41)"/>
      <path d="M925.9,494.15l-7.77-14.36-14.36,7.77,3.62,6.69c6.52,0,12.65,0,18.31,0l.19-.11Z"/>
      <path d="M932.23,494.26c5.92,0,11.23,0,15.83,0l-3.58-6.62-12.24,6.62Z"/>
      <rect x="661.4" y="438.06" width="17.02" height="17.02" transform="translate(-131.79 372.52) rotate(-28.41)"/>
      <rect x="687.74" y="445.91" width="17.02" height="17.02" transform="translate(-132.35 385.99) rotate(-28.41)"/>
      <rect x="714.08" y="453.75" width="17.02" height="17.02" transform="translate(-132.91 399.48) rotate(-28.41)"/>
      <rect x="740.43" y="461.61" width="17.02" height="17.02" transform="translate(-133.47 412.96) rotate(-28.41)"/>
      <rect x="766.77" y="469.45" width="17.02" height="17.02" transform="translate(-134.03 426.43) rotate(-28.41)"/>
      <path d="M805.05,474.27l-14.97,8.1,6.42,11.87c2.47,0,4.94,0,7.4,0l9.24-5-8.1-14.97Z"/>
      <path d="M831.39,482.12l-14.97,8.1,2.18,4.02c6.54,0,13,0,19.35,0l-6.56-12.12Z"/>
      <path d="M860.05,494.25l-2.31-4.28-7.91,4.28c3.45,0,6.86,0,10.22,0Z"/>
      <rect x="653.21" y="464.06" width="17.7" height="17.7" transform="translate(-145.27 371.96) rotate(-28.41)"/>
      <rect x="679.55" y="471.9" width="17.7" height="17.7" transform="translate(-145.83 385.44) rotate(-28.41)"/>
      <path d="M718.32,476.6l-15.57,8.42,4.99,9.23c5.01,0,10.07,0,15.16,0l3.84-2.08-8.42-15.57Z"/>
      <path d="M744.65,484.45l-15.57,8.42,.74,1.38c6.67,0,13.39,0,20.13,0l-5.3-9.8Z"/>
      <path d="M771.01,492.3l-3.59,1.94c1.55,0,3.09,0,4.64,0l-1.05-1.94Z"/>
      <path d="M661.99,494.28l-4.06-7.5-13.89,7.52c5.81,0,11.8-.01,17.95-.02Z"/>
    </g>
  </g>
</svg>