<?xml version="1.0" encoding="UTF-8"?>
<svg id="Layer_2" data-name="Layer 2" xmlns="http://www.w3.org/2000/svg" width="1104.74" height="1095.81" viewBox="0 0 1104.74 1095.81">
  <defs>
    <style>
      .cls-1 {
        stroke: #fff;
        stroke-width: 2.9px;
      }

      .cls-1, .cls-2, .cls-3 {
        stroke-miterlimit: 10;
      }

      .cls-2 {
        fill: #fff;
        stroke-width: 3.36px;
      }

      .cls-2, .cls-3 {
        stroke: #000;
      }

      .cls-3 {
        fill: none;
        stroke-width: 3px;
      }
    </style>
  </defs>
  <g id="Layer_8" data-name="Layer 8">
    <polygon class="cls-1" points="1102.29 376.66 572.61 1.75 2.57 376.66 572.65 779.12 1102.29 376.66"/>
    <polygon class="cls-2" points="572.65 779.12 40.64 406.43 40.64 204 1062.85 204 1062.85 410.69 572.65 779.12"/>
    <polygon class="cls-3" points="1102.25 1094.26 2.61 1093.26 2.61 379.68 572.65 779.12 1102.25 380.68 1102.25 1094.26"/>
    <g>
      <polygon points="10.84 389.57 10.84 393.67 14.93 389.57 12.52 387.89 10.84 389.57"/>
      <polygon points="14.93 393.67 19.03 393.67 19.03 392.45 17.34 391.26 14.93 393.67"/>
      <polygon points="14.93 425.7 10.11 430.52 10.11 435.34 19.75 425.7 14.93 425.7"/>
      <polygon points="19.75 430.52 14.93 435.34 19.75 435.34 19.75 430.52"/>
      <polygon points="55.88 425.7 51.06 430.52 51.06 435.34 60.7 425.7 55.88 425.7"/>
      <polygon points="60.7 430.52 55.88 435.34 60.7 435.34 60.7 430.52"/>
      <polygon points="1033.9 435.34 1039.39 429.84 1033.9 433.98 1033.9 435.34"/>
      <polygon points="1038.72 435.34 1043.54 435.34 1043.54 430.52 1038.72 435.34"/>
      <polygon points="1079.66 425.7 1074.85 430.52 1074.85 435.34 1084.48 425.7 1079.66 425.7"/>
      <polygon points="1084.48 430.52 1079.66 435.34 1084.48 435.34 1084.48 430.52"/>
      <polygon points="9.39 477.03 20.5 465.92 14.94 465.92 9.39 471.48 9.39 477.03"/>
      <polygon points="20.5 471.48 14.94 477.03 20.5 477.03 20.5 471.48"/>
      <polygon points="50.33 477.03 61.44 465.92 55.89 465.92 50.33 471.48 50.33 477.03"/>
      <polygon points="61.44 471.48 55.89 477.03 61.44 477.03 61.44 471.48"/>
      <polygon points="96.84 465.92 91.28 471.48 91.28 477.03 102.39 465.92 96.84 465.92"/>
      <polygon points="102.39 471.48 96.84 477.03 102.39 477.03 102.39 471.48"/>
      <polygon points="132.23 477.03 135.32 473.94 132.23 471.77 132.23 477.03"/>
      <polygon points="137.78 477.03 139.74 477.03 138.59 476.23 137.78 477.03"/>
      <polygon points="997.76 465.92 992.21 471.48 992.21 477.03 1003.31 465.92 997.76 465.92"/>
      <polygon points="1003.31 471.48 997.76 477.03 1003.31 477.03 1003.31 471.48"/>
      <polygon points="1033.15 471.48 1033.15 477.03 1044.26 465.92 1038.71 465.92 1033.15 471.48"/>
      <polygon points="1038.71 477.03 1044.26 477.03 1044.26 471.48 1038.71 477.03"/>
      <polygon points="1074.12 477.03 1085.23 465.92 1079.68 465.92 1074.12 471.48 1074.12 477.03"/>
      <polygon points="1085.23 471.48 1079.68 477.03 1085.23 477.03 1085.23 471.48"/>
      <polygon points="8.66 518.7 21.22 506.14 14.94 506.14 8.66 512.42 8.66 518.7"/>
      <polygon points="21.22 512.42 14.94 518.7 21.22 518.7 21.22 512.42"/>
      <polygon points="49.61 518.7 62.17 506.14 55.89 506.14 49.61 512.42 49.61 518.7"/>
      <polygon points="62.17 512.42 55.89 518.7 62.17 518.7 62.17 512.42"/>
      <polygon points="90.56 518.7 103.12 506.14 96.84 506.14 90.56 512.42 90.56 518.7"/>
      <polygon points="103.12 512.42 96.84 518.7 103.12 518.7 103.12 512.42"/>
      <polygon points="137.78 506.14 131.5 512.42 131.5 518.7 144.06 506.14 137.78 506.14"/>
      <polygon points="144.06 512.42 137.78 518.7 144.06 518.7 144.06 512.42"/>
      <polygon points="178.73 506.14 172.45 512.42 172.45 518.7 183.47 507.68 181.28 506.14 178.73 506.14"/>
      <polygon points="178.73 518.7 185.01 518.7 185.01 512.42 178.73 518.7"/>
      <polygon points="922.14 518.05 921.28 518.7 922.14 518.7 922.14 518.05"/>
      <polygon points="956.81 506.14 950.53 512.42 950.53 518.7 963.09 506.14 956.81 506.14"/>
      <polygon points="963.09 512.42 956.81 518.7 963.09 518.7 963.09 512.42"/>
      <polygon points="991.48 518.7 1004.04 506.14 997.76 506.14 991.48 512.42 991.48 518.7"/>
      <polygon points="1004.04 512.42 997.76 518.7 1004.04 518.7 1004.04 512.42"/>
      <polygon points="1032.43 512.42 1032.43 518.7 1044.99 506.14 1038.71 506.14 1032.43 512.42"/>
      <polygon points="1038.71 518.7 1044.99 518.7 1044.99 512.42 1038.71 518.7"/>
      <polygon points="1073.37 518.7 1085.93 506.14 1079.65 506.14 1073.37 512.42 1073.37 518.7"/>
      <polygon points="1085.93 512.42 1079.65 518.7 1085.93 518.7 1085.93 512.42"/>
      <polygon points="7.92 560.37 21.92 546.37 14.92 546.37 7.92 553.37 7.92 560.37"/>
      <polygon points="21.92 553.37 14.92 560.37 21.92 560.37 21.92 553.37"/>
      <polygon points="48.89 560.37 62.89 546.37 55.89 546.37 48.89 553.37 48.89 560.37"/>
      <polygon points="62.89 553.37 55.89 560.37 62.89 560.37 62.89 553.37"/>
      <polygon points="89.83 560.37 103.84 546.37 96.84 546.37 89.83 553.37 89.83 560.37"/>
      <polygon points="103.84 553.37 96.84 560.37 103.84 560.37 103.84 553.37"/>
      <polygon points="130.78 560.37 144.79 546.37 137.78 546.37 130.78 553.37 130.78 560.37"/>
      <polygon points="144.79 553.37 137.78 560.37 144.79 560.37 144.79 553.37"/>
      <polygon points="171.73 553.37 171.73 560.37 185.73 546.37 178.73 546.37 171.73 553.37"/>
      <polygon points="185.73 553.37 178.73 560.37 185.73 560.37 185.73 553.37"/>
      <polygon points="219.68 546.37 212.67 553.37 212.67 560.37 226.68 546.37 219.68 546.37"/>
      <polygon points="226.68 553.37 219.68 560.37 226.68 560.37 226.68 553.37"/>
      <polygon points="253.64 560.37 255.72 558.3 253.64 556.85 253.64 560.37"/>
      <polygon points="867.89 560.37 873.97 554.3 867.89 558.87 867.89 560.37"/>
      <polygon points="881.9 553.37 874.9 560.37 881.9 560.37 881.9 553.37"/>
      <polygon points="915.87 546.37 908.86 553.37 908.86 560.37 922.87 546.37 915.87 546.37"/>
      <polygon points="922.87 553.37 915.87 560.37 922.87 560.37 922.87 553.37"/>
      <polygon points="949.81 560.37 963.82 546.37 956.81 546.37 949.81 553.37 949.81 560.37"/>
      <polygon points="963.82 553.37 956.81 560.37 963.82 560.37 963.82 553.37"/>
      <polygon points="990.76 560.37 1004.76 546.37 997.76 546.37 990.76 553.37 990.76 560.37"/>
      <polygon points="1004.76 553.37 997.76 560.37 1004.76 560.37 1004.76 553.37"/>
      <polygon points="1031.7 553.37 1031.7 560.37 1045.71 546.37 1038.71 546.37 1031.7 553.37"/>
      <polygon points="1045.71 553.37 1038.71 560.37 1045.71 560.37 1045.71 553.37"/>
      <polygon points="1072.65 560.37 1086.66 546.37 1079.65 546.37 1072.65 553.37 1072.65 560.37"/>
      <polygon points="1086.66 553.37 1079.65 560.37 1086.66 560.37 1086.66 553.37"/>
      <polygon points="7.19 602.07 22.67 586.59 14.93 586.59 7.19 594.33 7.19 602.07"/>
      <polygon points="22.67 594.33 14.93 602.07 22.67 602.07 22.67 594.33"/>
      <polygon points="48.14 602.07 63.62 586.59 55.88 586.59 48.14 594.33 48.14 602.07"/>
      <polygon points="63.62 594.33 55.88 602.07 63.62 602.07 63.62 594.33"/>
      <polygon points="89.11 602.07 104.59 586.59 96.85 586.59 89.11 594.33 89.11 602.07"/>
      <polygon points="104.59 594.33 96.85 602.07 104.59 602.07 104.59 594.33"/>
      <polygon points="130.06 602.07 145.53 586.59 137.79 586.59 130.06 594.33 130.06 602.07"/>
      <polygon points="145.53 594.33 137.79 602.07 145.53 602.07 145.53 594.33"/>
      <polygon points="171 602.07 186.48 586.59 178.74 586.59 171 594.33 171 602.07"/>
      <polygon points="186.48 594.33 178.74 602.07 186.48 602.07 186.48 594.33"/>
      <polygon points="211.95 602.07 227.43 586.59 219.69 586.59 211.95 594.33 211.95 602.07"/>
      <polygon points="227.43 594.33 219.69 602.07 227.43 602.07 227.43 594.33"/>
      <polygon points="260.64 586.59 252.9 594.33 252.9 602.07 268.38 586.59 260.64 586.59"/>
      <polygon points="268.38 594.33 260.64 602.07 268.38 602.07 268.38 594.33"/>
      <polygon points="293.87 602.07 303.88 592.05 299.33 588.86 293.87 594.33 293.87 602.07"/>
      <polygon points="301.6 602.07 309.34 602.07 309.34 595.88 308.43 595.24 301.6 602.07"/>
      <polygon points="833.96 586.59 826.22 594.33 826.22 602.07 841.7 586.59 833.96 586.59"/>
      <polygon points="841.7 594.33 833.96 602.07 841.7 602.07 841.7 594.33"/>
      <polygon points="867.17 602.07 882.65 586.59 874.91 586.59 867.17 594.33 867.17 602.07"/>
      <polygon points="882.65 594.33 874.91 602.07 882.65 602.07 882.65 594.33"/>
      <polygon points="908.12 602.07 923.59 586.59 915.85 586.59 908.12 594.33 908.12 602.07"/>
      <polygon points="923.59 594.33 915.85 602.07 923.59 602.07 923.59 594.33"/>
      <polygon points="949.08 602.07 964.56 586.59 956.82 586.59 949.08 594.33 949.08 602.07"/>
      <polygon points="964.56 594.33 956.82 602.07 964.56 602.07 964.56 594.33"/>
      <polygon points="990.03 602.07 1005.51 586.59 997.77 586.59 990.03 594.33 990.03 602.07"/>
      <polygon points="1005.51 594.33 997.77 602.07 1005.51 602.07 1005.51 594.33"/>
      <polygon points="1030.98 594.33 1030.98 602.07 1046.46 586.59 1038.72 586.59 1030.98 594.33"/>
      <polygon points="1038.72 602.07 1046.46 602.07 1046.46 594.33 1038.72 602.07"/>
      <polygon points="1071.93 602.07 1087.4 586.59 1079.66 586.59 1071.93 594.33 1071.93 602.07"/>
      <polygon points="1087.4 594.33 1079.66 602.07 1087.4 602.07 1087.4 594.33"/>
      <polygon points="6.47 643.74 23.4 626.81 14.93 626.81 6.47 635.28 6.47 643.74"/>
      <polygon points="23.4 635.28 14.93 643.74 23.4 643.74 23.4 635.28"/>
      <polygon points="47.41 643.74 64.34 626.81 55.88 626.81 47.41 635.28 47.41 643.74"/>
      <polygon points="64.34 635.28 55.88 643.74 64.34 643.74 64.34 635.28"/>
      <polygon points="88.36 643.74 105.29 626.81 96.83 626.81 88.36 635.28 88.36 643.74"/>
      <polygon points="105.29 635.28 96.83 643.74 105.29 643.74 105.29 635.28"/>
      <polygon points="129.33 643.74 146.26 626.81 137.79 626.81 129.33 635.28 129.33 643.74"/>
      <polygon points="146.26 635.28 137.79 643.74 146.26 643.74 146.26 635.28"/>
      <polygon points="170.28 643.74 187.21 626.81 178.74 626.81 170.28 635.28 170.28 643.74"/>
      <polygon points="187.21 635.28 178.74 643.74 187.21 643.74 187.21 635.28"/>
      <polygon points="211.22 643.74 228.15 626.81 219.69 626.81 211.22 635.28 211.22 643.74"/>
      <polygon points="228.15 635.28 219.69 643.74 228.15 643.74 228.15 635.28"/>
      <polygon points="252.17 643.74 269.1 626.81 260.64 626.81 252.17 635.28 252.17 643.74"/>
      <polygon points="269.1 635.28 260.64 643.74 269.1 643.74 269.1 635.28"/>
      <polygon points="301.58 626.81 293.12 635.28 293.12 643.74 310.05 626.81 301.58 626.81"/>
      <polygon points="310.05 635.28 301.58 643.74 310.05 643.74 310.05 635.28"/>
      <polygon points="342.55 626.81 334.09 635.28 334.09 643.74 351.02 626.81 342.55 626.81"/>
      <polygon points="351.02 635.28 342.55 643.74 351.02 643.74 351.02 635.28"/>
      <polygon points="375.03 643.74 376.11 642.66 375.03 641.91 375.03 643.74"/>
      <polygon points="760.51 639.66 755.09 643.74 760.51 643.74 760.51 639.66"/>
      <polygon points="793.01 626.81 784.55 635.28 784.55 643.74 801.48 626.81 793.01 626.81"/>
      <polygon points="801.48 635.28 793.01 643.74 801.48 643.74 801.48 635.28"/>
      <polygon points="825.5 643.74 842.42 626.81 833.96 626.81 825.5 635.28 825.5 643.74"/>
      <polygon points="842.42 635.28 833.96 643.74 842.42 643.74 842.42 635.28"/>
      <polygon points="866.44 643.74 883.37 626.81 874.91 626.81 866.44 635.28 866.44 643.74"/>
      <polygon points="883.37 635.28 874.91 643.74 883.37 643.74 883.37 635.28"/>
      <polygon points="907.39 643.74 924.32 626.81 915.85 626.81 907.39 635.28 907.39 643.74"/>
      <polygon points="924.32 635.28 915.85 643.74 924.32 643.74 924.32 635.28"/>
      <polygon points="948.34 643.74 965.27 626.81 956.8 626.81 948.34 635.28 948.34 643.74"/>
      <polygon points="965.27 635.28 956.8 643.74 965.27 643.74 965.27 635.28"/>
      <polygon points="989.31 643.74 1006.23 626.81 997.77 626.81 989.31 635.28 989.31 643.74"/>
      <polygon points="1006.23 635.28 997.77 643.74 1006.23 643.74 1006.23 635.28"/>
      <polygon points="1030.25 635.28 1030.25 643.74 1047.18 626.81 1038.72 626.81 1030.25 635.28"/>
      <polygon points="1038.72 643.74 1047.18 643.74 1047.18 635.28 1038.72 643.74"/>
      <polygon points="1071.2 643.74 1088.13 626.81 1079.66 626.81 1071.2 635.28 1071.2 643.74"/>
      <polygon points="1088.13 635.28 1079.66 643.74 1088.13 643.74 1088.13 635.28"/>
      <polygon points="5.74 685.41 24.12 667.03 14.93 667.03 5.74 676.22 5.74 685.41"/>
      <polygon points="24.12 676.22 14.93 685.41 24.12 685.41 24.12 676.22"/>
      <polygon points="46.69 685.41 65.07 667.03 55.88 667.03 46.69 676.22 46.69 685.41"/>
      <polygon points="65.07 676.22 55.88 685.41 65.07 685.41 65.07 676.22"/>
      <polygon points="87.64 685.41 106.01 667.03 96.83 667.03 87.64 676.22 87.64 685.41"/>
      <polygon points="106.01 676.22 96.83 685.41 106.01 685.41 106.01 676.22"/>
      <polygon points="128.61 685.41 146.98 667.03 137.79 667.03 128.61 676.22 128.61 685.41"/>
      <polygon points="146.98 676.22 137.79 685.41 146.98 685.41 146.98 676.22"/>
      <polygon points="169.55 685.41 187.93 667.03 178.74 667.03 169.55 676.22 169.55 685.41"/>
      <polygon points="187.93 676.22 178.74 685.41 187.93 685.41 187.93 676.22"/>
      <polygon points="210.5 685.41 228.88 667.03 219.69 667.03 210.5 676.22 210.5 685.41"/>
      <polygon points="228.88 676.22 219.69 685.41 228.88 685.41 228.88 676.22"/>
      <polygon points="251.45 685.41 269.82 667.03 260.64 667.03 251.45 676.22 251.45 685.41"/>
      <polygon points="269.82 676.22 260.64 685.41 269.82 685.41 269.82 676.22"/>
      <polygon points="292.39 685.41 310.77 667.03 301.58 667.03 292.39 676.22 292.39 685.41"/>
      <polygon points="310.77 676.22 301.58 685.41 310.77 685.41 310.77 676.22"/>
      <polygon points="333.34 685.41 351.72 667.03 342.53 667.03 333.34 676.22 333.34 685.41"/>
      <polygon points="351.72 676.22 342.53 685.41 351.72 685.41 351.72 676.22"/>
      <polygon points="383.5 667.03 374.31 676.22 374.31 685.41 392.69 667.03 383.5 667.03"/>
      <polygon points="392.69 676.22 383.5 685.41 392.69 685.41 392.69 676.22"/>
      <polygon points="415.26 685.41 424.26 676.41 418.86 672.62 415.26 676.22 415.26 685.41"/>
      <polygon points="424.45 685.41 433.63 685.41 433.63 682.97 429.67 680.19 424.45 685.41"/>
      <polygon points="701.91 685.41 708.63 678.69 701.91 683.75 701.91 685.41"/>
      <polygon points="720.29 676.22 711.1 685.41 720.29 685.41 720.29 676.22"/>
      <polygon points="752.04 667.03 742.86 676.22 742.86 685.41 761.23 667.03 752.04 667.03"/>
      <polygon points="761.23 676.22 752.04 685.41 761.23 685.41 761.23 676.22"/>
      <polygon points="783.8 685.41 802.18 667.03 792.99 667.03 783.8 676.22 783.8 685.41"/>
      <polygon points="802.18 676.22 792.99 685.41 802.18 685.41 802.18 676.22"/>
      <polygon points="824.77 685.41 843.15 667.03 833.96 667.03 824.77 676.22 824.77 685.41"/>
      <polygon points="843.15 676.22 833.96 685.41 843.15 685.41 843.15 676.22"/>
      <polygon points="865.72 685.41 884.1 667.03 874.91 667.03 865.72 676.22 865.72 685.41"/>
      <polygon points="884.1 676.22 874.91 685.41 884.1 685.41 884.1 676.22"/>
      <polygon points="906.67 685.41 925.04 667.03 915.85 667.03 906.67 676.22 906.67 685.41"/>
      <polygon points="925.04 676.22 915.85 685.41 925.04 685.41 925.04 676.22"/>
      <polygon points="947.61 685.41 965.99 667.03 956.8 667.03 947.61 676.22 947.61 685.41"/>
      <polygon points="965.99 676.22 956.8 685.41 965.99 685.41 965.99 676.22"/>
      <polygon points="988.56 685.41 1006.94 667.03 997.75 667.03 988.56 676.22 988.56 685.41"/>
      <polygon points="1006.94 676.22 997.75 685.41 1006.94 685.41 1006.94 676.22"/>
      <polygon points="1029.53 676.22 1029.53 685.41 1047.91 667.03 1038.72 667.03 1029.53 676.22"/>
      <polygon points="1038.72 685.41 1047.91 685.41 1047.91 676.22 1038.72 685.41"/>
      <polygon points="1070.48 685.41 1088.85 667.03 1079.66 667.03 1070.48 676.22 1070.48 685.41"/>
      <polygon points="1088.85 676.22 1079.66 685.41 1088.85 685.41 1088.85 676.22"/>
      <polygon points="5.02 727.1 24.87 707.26 14.94 707.26 5.02 717.18 5.02 727.1"/>
      <polygon points="24.87 717.18 14.94 727.1 24.87 727.1 24.87 717.18"/>
      <polygon points="45.97 727.1 65.81 707.26 55.89 707.26 45.97 717.18 45.97 727.1"/>
      <polygon points="65.81 717.18 55.89 727.1 65.81 727.1 65.81 717.18"/>
      <polygon points="86.91 727.1 106.76 707.26 96.84 707.26 86.91 717.18 86.91 727.1"/>
      <polygon points="106.76 717.18 96.84 727.1 106.76 727.1 106.76 717.18"/>
      <polygon points="127.86 727.1 147.71 707.26 137.78 707.26 127.86 717.18 127.86 727.1"/>
      <polygon points="147.71 717.18 137.78 727.1 147.71 727.1 147.71 717.18"/>
      <polygon points="168.83 727.1 188.68 707.26 178.75 707.26 168.83 717.18 168.83 727.1"/>
      <polygon points="188.68 717.18 178.75 727.1 188.68 727.1 188.68 717.18"/>
      <polygon points="209.78 727.1 229.62 707.26 219.7 707.26 209.78 717.18 209.78 727.1"/>
      <polygon points="229.62 717.18 219.7 727.1 229.62 727.1 229.62 717.18"/>
      <polygon points="250.72 727.1 270.57 707.26 260.65 707.26 250.72 717.18 250.72 727.1"/>
      <polygon points="270.57 717.18 260.65 727.1 270.57 727.1 270.57 717.18"/>
      <polygon points="291.67 727.1 311.52 707.26 301.59 707.26 291.67 717.18 291.67 727.1"/>
      <polygon points="311.52 717.18 301.59 727.1 311.52 727.1 311.52 717.18"/>
      <polygon points="332.62 727.1 352.46 707.26 342.54 707.26 332.62 717.18 332.62 727.1"/>
      <polygon points="352.46 717.18 342.54 727.1 352.46 727.1 352.46 717.18"/>
      <polygon points="373.56 727.1 393.41 707.26 383.49 707.26 373.56 717.18 373.56 727.1"/>
      <polygon points="393.41 717.18 383.49 727.1 393.41 727.1 393.41 717.18"/>
      <polygon points="424.46 707.26 414.53 717.18 414.53 727.1 434.38 707.26 424.46 707.26"/>
      <polygon points="434.38 717.18 424.46 727.1 434.38 727.1 434.38 717.18"/>
      <polygon points="465.4 707.26 455.48 717.18 455.48 727.1 472.43 710.16 468.29 707.26 465.4 707.26"/>
      <polygon points="465.4 727.11 475.33 727.11 475.33 717.18 465.4 727.11"/>
      <polygon points="496.43 727.11 496.5 727.03 496.43 726.97 496.43 727.11"/>
      <polygon points="660.24 727.11 680.09 707.26 670.66 707.26 668.65 708.77 660.24 717.18 660.24 727.11"/>
      <polygon points="670.16 727.11 680.09 727.11 680.09 717.18 670.16 727.11"/>
      <polygon points="701.18 727.11 721.03 707.26 711.11 707.26 701.18 717.18 701.18 727.11"/>
      <polygon points="721.03 717.18 711.11 727.11 721.03 727.11 721.03 717.18"/>
      <polygon points="742.13 727.11 761.98 707.26 752.06 707.26 742.13 717.18 742.13 727.11"/>
      <polygon points="761.98 717.18 752.06 727.11 761.98 727.11 761.98 717.18"/>
      <polygon points="783.08 727.11 802.93 707.26 793 707.26 783.08 717.18 783.08 727.11"/>
      <polygon points="802.93 717.18 793 727.11 802.93 727.11 802.93 717.18"/>
      <polygon points="824.05 727.11 843.9 707.26 833.97 707.26 824.05 717.18 824.05 727.11"/>
      <polygon points="843.9 717.18 833.97 727.11 843.9 727.11 843.9 717.18"/>
      <polygon points="864.99 727.11 884.84 707.26 874.92 707.26 864.99 717.18 864.99 727.11"/>
      <polygon points="884.84 717.18 874.92 727.11 884.84 727.11 884.84 717.18"/>
      <polygon points="905.94 727.11 925.79 707.26 915.87 707.26 905.94 717.18 905.94 727.11"/>
      <polygon points="925.79 717.18 915.87 727.11 925.79 727.11 925.79 717.18"/>
      <polygon points="946.89 727.11 966.74 707.26 956.81 707.26 946.89 717.18 946.89 727.11"/>
      <polygon points="966.74 717.18 956.81 727.11 966.74 727.11 966.74 717.18"/>
      <polygon points="987.84 727.11 1007.68 707.26 997.76 707.26 987.84 717.18 987.84 727.11"/>
      <polygon points="1007.68 717.18 997.76 727.11 1007.68 727.11 1007.68 717.18"/>
      <polygon points="1028.78 717.18 1028.78 727.11 1048.63 707.26 1038.71 707.26 1028.78 717.18"/>
      <polygon points="1038.71 727.11 1048.63 727.11 1048.63 717.18 1038.71 727.11"/>
      <polygon points="1069.75 727.11 1089.6 707.26 1079.68 707.26 1069.75 717.18 1069.75 727.11"/>
      <polygon points="1089.6 717.18 1079.68 727.11 1089.6 727.11 1089.6 717.18"/>
      <polygon points="14.94 747.48 4.29 758.13 4.29 768.78 25.59 747.48 14.94 747.48"/>
      <polygon points="25.59 758.13 14.94 768.78 25.59 768.78 25.59 758.13"/>
      <polygon points="45.24 768.78 66.54 747.48 55.89 747.48 45.24 758.13 45.24 768.78"/>
      <polygon points="66.54 758.13 55.89 768.78 66.54 768.78 66.54 758.13"/>
      <polygon points="86.19 768.78 107.48 747.48 96.84 747.48 86.19 758.13 86.19 768.78"/>
      <polygon points="107.48 758.13 96.84 768.78 107.48 768.78 107.48 758.13"/>
      <polygon points="127.14 768.78 148.43 747.48 137.78 747.48 127.14 758.13 127.14 768.78"/>
      <polygon points="148.43 758.13 137.78 768.78 148.43 768.78 148.43 758.13"/>
      <polygon points="168.08 768.78 189.38 747.48 178.73 747.48 168.08 758.13 168.08 768.78"/>
      <polygon points="189.38 758.13 178.73 768.78 189.38 768.78 189.38 758.13"/>
      <polygon points="209.05 768.78 230.35 747.48 219.7 747.48 209.05 758.13 209.05 768.78"/>
      <polygon points="230.35 758.13 219.7 768.78 230.35 768.78 230.35 758.13"/>
      <polygon points="250 768.78 271.3 747.48 260.65 747.48 250 758.13 250 768.78"/>
      <polygon points="271.3 758.13 260.65 768.78 271.3 768.78 271.3 758.13"/>
      <polygon points="290.95 768.78 312.24 747.48 301.59 747.48 290.95 758.13 290.95 768.78"/>
      <polygon points="312.24 758.13 301.59 768.78 312.24 768.78 312.24 758.13"/>
      <polygon points="331.89 768.78 353.19 747.48 342.54 747.48 331.89 758.13 331.89 768.78"/>
      <polygon points="353.19 758.13 342.54 768.78 353.19 768.78 353.19 758.13"/>
      <polygon points="372.84 768.78 394.14 747.48 383.49 747.48 372.84 758.13 372.84 768.78"/>
      <polygon points="394.14 758.13 383.49 768.78 394.14 768.78 394.14 758.13"/>
      <polygon points="413.79 768.78 435.08 747.48 424.43 747.48 413.79 758.13 413.79 768.78"/>
      <polygon points="435.08 758.13 424.43 768.78 435.08 768.78 435.08 758.13"/>
      <polygon points="454.76 758.13 454.76 768.78 476.05 747.48 465.4 747.48 454.76 758.13"/>
      <polygon points="476.05 758.13 465.4 768.78 476.05 768.78 476.05 758.13"/>
      <polygon points="506.35 747.48 495.7 758.13 495.7 768.78 517 747.48 506.35 747.48"/>
      <polygon points="517 758.13 506.35 768.78 517 768.78 517 758.13"/>
      <polygon points="536.65 768.78 544.66 760.77 538.4 756.38 536.65 758.13 536.65 768.78"/>
      <polygon points="547.3 768.78 556.09 768.78 550.92 765.16 547.3 768.78"/>
      <polygon points="598.89 761.25 588.89 768.78 598.89 768.78 598.89 761.25"/>
      <polygon points="629.19 747.48 618.54 758.13 618.54 768.78 639.84 747.48 629.19 747.48"/>
      <polygon points="639.84 758.13 629.19 768.78 639.84 768.78 639.84 758.13"/>
      <polygon points="659.51 758.13 659.51 768.78 680.81 747.48 670.16 747.48 659.51 758.13"/>
      <polygon points="680.81 758.13 670.16 768.78 680.81 768.78 680.81 758.13"/>
      <polygon points="700.46 768.78 721.76 747.48 711.11 747.48 700.46 758.13 700.46 768.78"/>
      <polygon points="721.76 758.13 711.11 768.78 721.76 768.78 721.76 758.13"/>
      <polygon points="741.41 768.78 762.7 747.48 752.06 747.48 741.41 758.13 741.41 768.78"/>
      <polygon points="762.7 758.13 752.06 768.78 762.7 768.78 762.7 758.13"/>
      <polygon points="782.35 768.78 803.65 747.48 793 747.48 782.35 758.13 782.35 768.78"/>
      <polygon points="803.65 758.13 793 768.78 803.65 768.78 803.65 758.13"/>
      <polygon points="823.3 768.78 844.6 747.48 833.95 747.48 823.3 758.13 823.3 768.78"/>
      <polygon points="844.6 758.13 833.95 768.78 844.6 768.78 844.6 758.13"/>
      <polygon points="864.27 768.78 885.57 747.48 874.92 747.48 864.27 758.13 864.27 768.78"/>
      <polygon points="885.57 758.13 874.92 768.78 885.57 768.78 885.57 758.13"/>
      <polygon points="905.22 768.78 926.51 747.48 915.87 747.48 905.22 758.13 905.22 768.78"/>
      <polygon points="926.51 758.13 915.87 768.78 926.51 768.78 926.51 758.13"/>
      <polygon points="946.16 768.78 967.46 747.48 956.81 747.48 946.16 758.13 946.16 768.78"/>
      <polygon points="967.46 758.13 956.81 768.78 967.46 768.78 967.46 758.13"/>
      <polygon points="987.11 768.78 1008.41 747.48 997.76 747.48 987.11 758.13 987.11 768.78"/>
      <polygon points="1008.41 758.13 997.76 768.78 1008.41 768.78 1008.41 758.13"/>
      <polygon points="1028.06 758.13 1028.06 768.78 1049.36 747.48 1038.71 747.48 1028.06 758.13"/>
      <polygon points="1038.71 768.78 1049.36 768.78 1049.36 758.13 1038.71 768.78"/>
      <polygon points="1069.01 768.78 1090.3 747.48 1079.65 747.48 1069.01 758.13 1069.01 768.78"/>
      <polygon points="1090.3 758.13 1079.65 768.78 1090.3 768.78 1090.3 758.13"/>
      <polygon points="14.92 787.7 3.55 799.08 3.55 810.45 26.29 787.7 14.92 787.7"/>
      <polygon points="26.29 799.08 14.92 810.45 26.29 810.45 26.29 799.08"/>
      <polygon points="44.52 810.45 67.26 787.7 55.89 787.7 44.52 799.08 44.52 810.45"/>
      <polygon points="67.26 799.08 55.89 810.45 67.26 810.45 67.26 799.08"/>
      <polygon points="85.46 810.45 108.21 787.7 96.84 787.7 85.46 799.08 85.46 810.45"/>
      <polygon points="108.21 799.08 96.84 810.45 108.21 810.45 108.21 799.08"/>
      <polygon points="126.41 810.45 149.16 787.7 137.78 787.7 126.41 799.08 126.41 810.45"/>
      <polygon points="149.16 799.08 137.78 810.45 149.16 810.45 149.16 799.08"/>
      <polygon points="167.36 810.45 190.1 787.7 178.73 787.7 167.36 799.08 167.36 810.45"/>
      <polygon points="190.1 799.08 178.73 810.45 190.1 810.45 190.1 799.08"/>
      <polygon points="208.3 810.45 231.05 787.7 219.68 787.7 208.3 799.08 208.3 810.45"/>
      <polygon points="231.05 799.08 219.68 810.45 231.05 810.45 231.05 799.08"/>
      <polygon points="249.27 810.45 272.02 787.7 260.65 787.7 249.27 799.08 249.27 810.45"/>
      <polygon points="272.02 799.08 260.65 810.45 272.02 810.45 272.02 799.08"/>
      <polygon points="290.22 810.45 312.97 787.7 301.59 787.7 290.22 799.08 290.22 810.45"/>
      <polygon points="312.97 799.08 301.59 810.45 312.97 810.45 312.97 799.08"/>
      <polygon points="331.17 810.45 353.91 787.7 342.54 787.7 331.17 799.08 331.17 810.45"/>
      <polygon points="353.91 799.08 342.54 810.45 353.91 810.45 353.91 799.08"/>
      <polygon points="372.11 810.45 394.86 787.7 383.49 787.7 372.11 799.08 372.11 810.45"/>
      <polygon points="394.86 799.08 383.49 810.45 394.86 810.45 394.86 799.08"/>
      <polygon points="413.06 810.45 435.81 787.7 424.43 787.7 413.06 799.08 413.06 810.45"/>
      <polygon points="435.81 799.08 424.43 810.45 435.81 810.45 435.81 799.08"/>
      <polygon points="454.03 810.45 476.78 787.7 465.4 787.7 454.03 799.08 454.03 810.45"/>
      <polygon points="476.78 799.08 465.4 810.45 476.78 810.45 476.78 799.08"/>
      <polygon points="494.98 810.45 517.72 787.7 506.35 787.7 494.98 799.08 494.98 810.45"/>
      <polygon points="517.72 799.08 506.35 810.45 517.72 810.45 517.72 799.08"/>
      <polygon points="547.3 787.7 535.93 799.08 535.93 810.45 558.67 787.7 547.3 787.7"/>
      <polygon points="558.67 799.08 547.3 810.45 558.67 810.45 558.67 799.08"/>
      <polygon points="588.25 787.7 576.87 799.08 576.87 810.45 599.62 787.7 588.25 787.7"/>
      <polygon points="599.62 799.08 588.25 810.45 599.62 810.45 599.62 799.08"/>
      <polygon points="617.82 810.45 640.57 787.7 629.19 787.7 617.82 799.08 617.82 810.45"/>
      <polygon points="640.57 799.08 629.19 810.45 640.57 810.45 640.57 799.08"/>
      <polygon points="658.77 810.45 681.51 787.7 670.14 787.7 658.77 799.08 658.77 810.45"/>
      <polygon points="681.51 799.08 670.14 810.45 681.51 810.45 681.51 799.08"/>
      <polygon points="699.74 810.45 722.48 787.7 711.11 787.7 699.74 799.08 699.74 810.45"/>
      <polygon points="722.48 799.08 711.11 810.45 722.48 810.45 722.48 799.08"/>
      <polygon points="740.68 810.45 763.43 787.7 752.06 787.7 740.68 799.08 740.68 810.45"/>
      <polygon points="763.43 799.08 752.06 810.45 763.43 810.45 763.43 799.08"/>
      <polygon points="781.63 810.45 804.38 787.7 793 787.7 781.63 799.08 781.63 810.45"/>
      <polygon points="804.38 799.08 793 810.45 804.38 810.45 804.38 799.08"/>
      <polygon points="822.58 810.45 845.32 787.7 833.95 787.7 822.58 799.08 822.58 810.45"/>
      <polygon points="845.32 799.08 833.95 810.45 845.32 810.45 845.32 799.08"/>
      <polygon points="863.52 810.45 886.27 787.7 874.9 787.7 863.52 799.08 863.52 810.45"/>
      <polygon points="886.27 799.08 874.9 810.45 886.27 810.45 886.27 799.08"/>
      <polygon points="904.49 810.45 927.24 787.7 915.87 787.7 904.49 799.08 904.49 810.45"/>
      <polygon points="927.24 799.08 915.87 810.45 927.24 810.45 927.24 799.08"/>
      <polygon points="945.44 810.45 968.19 787.7 956.81 787.7 945.44 799.08 945.44 810.45"/>
      <polygon points="968.19 799.08 956.81 810.45 968.19 810.45 968.19 799.08"/>
      <polygon points="986.39 810.45 1009.13 787.7 997.76 787.7 986.39 799.08 986.39 810.45"/>
      <polygon points="1009.13 799.08 997.76 810.45 1009.13 810.45 1009.13 799.08"/>
      <polygon points="1027.33 799.08 1027.33 810.45 1050.08 787.7 1038.71 787.7 1027.33 799.08"/>
      <polygon points="1050.08 799.08 1038.71 810.45 1050.08 810.45 1050.08 799.08"/>
      <polygon points="1068.28 810.45 1091.03 787.7 1079.65 787.7 1068.28 799.08 1068.28 810.45"/>
      <polygon points="1091.03 799.08 1079.65 810.45 1091.03 810.45 1091.03 799.08"/>
      <polygon points="3.03 851.93 27.04 827.92 14.93 827.92 3.03 839.82 3.03 851.93"/>
      <polygon points="27.04 840.03 14.93 852.14 27.04 852.14 27.04 840.03"/>
      <polygon points="43.79 852.14 68.01 827.92 55.9 827.92 43.79 840.03 43.79 852.14"/>
      <polygon points="68.01 840.03 55.9 852.14 68.01 852.14 68.01 840.03"/>
      <polygon points="84.74 852.14 108.96 827.92 96.85 827.92 84.74 840.03 84.74 852.14"/>
      <polygon points="108.96 840.03 96.85 852.14 108.96 852.14 108.96 840.03"/>
      <polygon points="125.69 852.14 149.9 827.92 137.79 827.92 125.69 840.03 125.69 852.14"/>
      <polygon points="149.9 840.03 137.79 852.14 149.9 852.14 149.9 840.03"/>
      <polygon points="166.63 852.14 190.85 827.92 178.74 827.92 166.63 840.03 166.63 852.14"/>
      <polygon points="190.85 840.03 178.74 852.14 190.85 852.14 190.85 840.03"/>
      <polygon points="207.58 852.14 231.8 827.92 219.69 827.92 207.58 840.03 207.58 852.14"/>
      <polygon points="231.8 840.03 219.69 852.14 231.8 852.14 231.8 840.03"/>
      <polygon points="248.53 852.14 272.74 827.92 260.64 827.92 248.53 840.03 248.53 852.14"/>
      <polygon points="272.74 840.03 260.64 852.14 272.74 852.14 272.74 840.03"/>
      <polygon points="289.5 852.14 313.71 827.92 301.6 827.92 289.5 840.03 289.5 852.14"/>
      <polygon points="313.71 840.03 301.6 852.14 313.71 852.14 313.71 840.03"/>
      <polygon points="330.44 852.14 354.66 827.92 342.55 827.92 330.44 840.03 330.44 852.14"/>
      <polygon points="354.66 840.03 342.55 852.14 354.66 852.14 354.66 840.03"/>
      <polygon points="371.39 852.14 395.61 827.92 383.5 827.92 371.39 840.03 371.39 852.14"/>
      <polygon points="395.61 840.03 383.5 852.14 395.61 852.14 395.61 840.03"/>
      <polygon points="412.34 852.14 436.55 827.92 424.45 827.92 412.34 840.03 412.34 852.14"/>
      <polygon points="436.55 840.03 424.45 852.14 436.55 852.14 436.55 840.03"/>
      <polygon points="453.28 852.14 477.5 827.92 465.39 827.92 453.28 840.03 453.28 852.14"/>
      <polygon points="477.5 840.03 465.39 852.14 477.5 852.14 477.5 840.03"/>
      <polygon points="494.25 852.14 518.47 827.92 506.36 827.92 494.25 840.03 494.25 852.14"/>
      <polygon points="518.47 840.03 506.36 852.14 518.47 852.14 518.47 840.03"/>
      <polygon points="535.2 852.14 559.42 827.92 547.31 827.92 535.2 840.03 535.2 852.14"/>
      <polygon points="559.42 840.03 547.31 852.14 559.42 852.14 559.42 840.03"/>
      <polygon points="576.15 852.14 600.36 827.92 588.26 827.92 576.15 840.03 576.15 852.14"/>
      <polygon points="600.36 840.03 588.26 852.14 600.36 852.14 600.36 840.03"/>
      <polygon points="617.09 852.14 641.31 827.92 629.2 827.92 617.09 840.03 617.09 852.14"/>
      <polygon points="641.31 840.03 629.2 852.14 641.31 852.14 641.31 840.03"/>
      <polygon points="658.04 852.14 682.26 827.92 670.15 827.92 658.04 840.03 658.04 852.14"/>
      <polygon points="682.26 840.03 670.15 852.14 682.26 852.14 682.26 840.03"/>
      <polygon points="698.99 852.14 723.21 827.92 711.1 827.92 698.99 840.03 698.99 852.14"/>
      <polygon points="723.21 840.03 711.1 852.14 723.21 852.14 723.21 840.03"/>
      <polygon points="739.96 852.14 764.17 827.92 752.07 827.92 739.96 840.03 739.96 852.14"/>
      <polygon points="764.17 840.03 752.07 852.14 764.17 852.14 764.17 840.03"/>
      <polygon points="780.9 852.14 805.12 827.92 793.01 827.92 780.9 840.03 780.9 852.14"/>
      <polygon points="805.12 840.03 793.01 852.14 805.12 852.14 805.12 840.03"/>
      <polygon points="821.85 852.14 846.07 827.92 833.96 827.92 821.85 840.03 821.85 852.14"/>
      <polygon points="846.07 840.03 833.96 852.14 846.07 852.14 846.07 840.03"/>
      <polygon points="862.8 852.14 887.02 827.92 874.91 827.92 862.8 840.03 862.8 852.14"/>
      <polygon points="887.02 840.03 874.91 852.14 887.02 852.14 887.02 840.03"/>
      <polygon points="903.75 852.14 927.96 827.92 915.85 827.92 903.75 840.03 903.75 852.14"/>
      <polygon points="927.96 840.03 915.85 852.14 927.96 852.14 927.96 840.03"/>
      <polygon points="944.72 852.14 968.93 827.93 956.82 827.93 944.72 840.03 944.72 852.14"/>
      <polygon points="968.93 840.03 956.82 852.14 968.93 852.14 968.93 840.03"/>
      <polygon points="985.66 852.14 1009.88 827.93 997.77 827.93 985.66 840.03 985.66 852.14"/>
      <polygon points="1009.88 840.03 997.77 852.14 1009.88 852.14 1009.88 840.03"/>
      <polygon points="1026.61 840.03 1026.61 852.14 1050.83 827.93 1038.72 827.93 1026.61 840.03"/>
      <polygon points="1038.72 852.14 1050.83 852.14 1050.83 840.03 1038.72 852.14"/>
      <polygon points="1067.56 852.14 1091.77 827.93 1079.66 827.93 1067.56 840.03 1067.56 852.14"/>
      <polygon points="1091.77 840.03 1079.66 852.14 1091.77 852.14 1091.77 840.03"/>
      <polygon points="27.76 868.15 14.93 868.15 3.03 880.05 3.03 892.88 27.76 868.15"/>
      <polygon points="27.76 880.98 14.93 893.81 27.76 893.81 27.76 880.98"/>
      <polygon points="43.05 893.81 68.71 868.15 55.88 868.15 43.05 880.98 43.05 893.81"/>
      <polygon points="68.71 880.98 55.88 893.81 68.71 893.81 68.71 880.98"/>
      <polygon points="84.01 893.81 109.68 868.15 96.85 868.15 84.01 880.98 84.01 893.81"/>
      <polygon points="109.68 880.98 96.85 893.81 109.68 893.81 109.68 880.98"/>
      <polygon points="124.96 893.81 150.63 868.15 137.79 868.15 124.96 880.98 124.96 893.81"/>
      <polygon points="150.63 880.98 137.79 893.81 150.63 893.81 150.63 880.98"/>
      <polygon points="165.91 893.81 191.57 868.15 178.74 868.15 165.91 880.98 165.91 893.81"/>
      <polygon points="191.57 880.98 178.74 893.81 191.57 893.81 191.57 880.98"/>
      <polygon points="206.86 893.81 232.52 868.15 219.69 868.15 206.86 880.98 206.86 893.81"/>
      <polygon points="232.52 880.98 219.69 893.81 232.52 893.81 232.52 880.98"/>
      <polygon points="247.8 893.81 273.47 868.15 260.64 868.15 247.8 880.98 247.8 893.81"/>
      <polygon points="273.47 880.98 260.64 893.81 273.47 893.81 273.47 880.98"/>
      <polygon points="288.75 893.81 314.42 868.15 301.58 868.15 288.75 880.98 288.75 893.81"/>
      <polygon points="314.42 880.98 301.58 893.81 314.42 893.81 314.42 880.98"/>
      <polygon points="329.72 893.81 355.38 868.15 342.55 868.15 329.72 880.98 329.72 893.81"/>
      <polygon points="355.38 880.98 342.55 893.81 355.38 893.81 355.38 880.98"/>
      <polygon points="370.67 893.81 396.33 868.15 383.5 868.15 370.67 880.98 370.67 893.81"/>
      <polygon points="396.33 880.98 383.5 893.81 396.33 893.81 396.33 880.98"/>
      <polygon points="411.61 893.81 437.28 868.15 424.45 868.15 411.61 880.98 411.61 893.81"/>
      <polygon points="437.28 880.98 424.45 893.81 437.28 893.81 437.28 880.98"/>
      <polygon points="452.56 893.81 478.23 868.15 465.39 868.15 452.56 880.98 452.56 893.81"/>
      <polygon points="478.23 880.98 465.39 893.81 478.23 893.81 478.23 880.98"/>
      <polygon points="493.51 893.81 519.17 868.15 506.34 868.15 493.51 880.98 493.51 893.81"/>
      <polygon points="519.17 880.98 506.34 893.81 519.17 893.81 519.17 880.98"/>
      <polygon points="534.48 893.81 560.14 868.15 547.31 868.15 534.48 880.98 534.48 893.81"/>
      <polygon points="560.14 880.98 547.31 893.81 560.14 893.81 560.14 880.98"/>
      <polygon points="575.42 893.81 601.09 868.15 588.26 868.15 575.42 880.98 575.42 893.81"/>
      <polygon points="601.09 880.98 588.26 893.81 601.09 893.81 601.09 880.98"/>
      <polygon points="616.37 893.81 642.04 868.15 629.2 868.15 616.37 880.98 616.37 893.81"/>
      <polygon points="642.04 880.98 629.2 893.81 642.04 893.81 642.04 880.98"/>
      <polygon points="657.32 893.81 682.98 868.15 670.15 868.15 657.32 880.98 657.32 893.81"/>
      <polygon points="682.98 880.98 670.15 893.81 682.98 893.81 682.98 880.98"/>
      <polygon points="698.26 893.81 723.93 868.15 711.1 868.15 698.26 880.98 698.26 893.81"/>
      <polygon points="723.93 880.98 711.1 893.81 723.93 893.81 723.93 880.98"/>
      <polygon points="739.23 893.81 764.9 868.15 752.07 868.15 739.23 880.98 739.23 893.81"/>
      <polygon points="764.9 880.98 752.07 893.81 764.9 893.81 764.9 880.98"/>
      <polygon points="780.18 893.81 805.85 868.15 793.01 868.15 780.18 880.98 780.18 893.81"/>
      <polygon points="805.85 880.98 793.01 893.81 805.85 893.81 805.85 880.98"/>
      <polygon points="821.13 893.81 846.79 868.15 833.96 868.15 821.13 880.98 821.13 893.81"/>
      <polygon points="846.79 880.98 833.96 893.81 846.79 893.81 846.79 880.98"/>
      <polygon points="862.07 893.81 887.74 868.15 874.91 868.15 862.07 880.98 862.07 893.81"/>
      <polygon points="887.74 880.98 874.91 893.81 887.74 893.81 887.74 880.98"/>
      <polygon points="903.02 893.81 928.69 868.15 915.85 868.15 903.02 880.98 903.02 893.81"/>
      <polygon points="928.69 880.98 915.85 893.81 928.69 893.81 928.69 880.98"/>
      <polygon points="943.97 893.81 969.63 868.15 956.8 868.15 943.97 880.98 943.97 893.81"/>
      <polygon points="969.63 880.98 956.8 893.81 969.63 893.81 969.63 880.98"/>
      <polygon points="984.94 893.81 1010.6 868.15 997.77 868.15 984.94 880.98 984.94 893.81"/>
      <polygon points="1010.6 880.98 997.77 893.81 1010.6 893.81 1010.6 880.98"/>
      <polygon points="1025.88 880.98 1025.88 893.81 1051.55 868.15 1038.72 868.15 1025.88 880.98"/>
      <polygon points="1051.55 880.98 1038.72 893.81 1051.55 893.81 1051.55 880.98"/>
      <polygon points="1066.83 893.81 1092.5 868.15 1079.66 868.15 1066.83 880.98 1066.83 893.81"/>
      <polygon points="1092.5 880.98 1079.66 893.81 1092.5 893.81 1092.5 880.98"/>
      <polygon points="28.49 908.37 14.93 908.37 3.03 920.27 3.03 933.83 28.49 908.37"/>
      <polygon points="28.49 921.93 14.93 935.48 28.49 935.48 28.49 921.93"/>
      <polygon points="42.32 935.48 69.44 908.37 55.88 908.37 42.32 921.93 42.32 935.48"/>
      <polygon points="69.44 921.93 55.88 935.48 69.44 935.48 69.44 921.93"/>
      <polygon points="83.27 935.48 110.38 908.37 96.83 908.37 83.27 921.93 83.27 935.48"/>
      <polygon points="110.38 921.93 96.83 935.48 110.38 935.48 110.38 921.93"/>
      <polygon points="124.24 935.48 151.35 908.37 137.79 908.37 124.24 921.93 124.24 935.48"/>
      <polygon points="151.35 921.93 137.79 935.48 151.35 935.48 151.35 921.93"/>
      <polygon points="165.18 935.48 192.3 908.37 178.74 908.37 165.18 921.93 165.18 935.48"/>
      <polygon points="192.3 921.93 178.74 935.48 192.3 935.48 192.3 921.93"/>
      <polygon points="206.13 935.48 233.25 908.37 219.69 908.37 206.13 921.93 206.13 935.48"/>
      <polygon points="233.25 921.93 219.69 935.48 233.25 935.48 233.25 921.93"/>
      <polygon points="247.08 935.48 274.19 908.37 260.64 908.37 247.08 921.93 247.08 935.48"/>
      <polygon points="274.19 921.93 260.64 935.48 274.19 935.48 274.19 921.93"/>
      <polygon points="288.03 935.48 315.14 908.37 301.58 908.37 288.03 921.93 288.03 935.48"/>
      <polygon points="315.14 921.93 301.58 935.48 315.14 935.48 315.14 921.93"/>
      <polygon points="328.97 935.48 356.09 908.37 342.53 908.37 328.97 921.93 328.97 935.48"/>
      <polygon points="356.09 921.93 342.53 935.48 356.09 935.48 356.09 921.93"/>
      <polygon points="369.94 935.48 397.06 908.37 383.5 908.37 369.94 921.93 369.94 935.48"/>
      <polygon points="397.06 921.93 383.5 935.48 397.06 935.48 397.06 921.93"/>
      <polygon points="410.89 935.48 438 908.37 424.45 908.37 410.89 921.93 410.89 935.48"/>
      <polygon points="438 921.93 424.45 935.48 438 935.48 438 921.93"/>
      <polygon points="451.84 935.48 478.95 908.37 465.39 908.37 451.84 921.93 451.84 935.48"/>
      <polygon points="478.95 921.93 465.39 935.48 478.95 935.48 478.95 921.93"/>
      <polygon points="492.78 935.48 519.9 908.37 506.34 908.37 492.78 921.93 492.78 935.48"/>
      <polygon points="519.9 921.93 506.34 935.48 519.9 935.48 519.9 921.93"/>
      <polygon points="533.73 935.48 560.84 908.37 547.29 908.37 533.73 921.93 533.73 935.48"/>
      <polygon points="560.84 921.93 547.29 935.48 560.84 935.48 560.84 921.93"/>
      <polygon points="574.7 935.48 601.81 908.37 588.26 908.37 574.7 921.93 574.7 935.48"/>
      <polygon points="601.81 921.93 588.26 935.48 601.81 935.48 601.81 921.93"/>
      <polygon points="615.65 935.48 642.76 908.37 629.2 908.37 615.65 921.93 615.65 935.48"/>
      <polygon points="642.76 921.93 629.2 935.48 642.76 935.48 642.76 921.93"/>
      <polygon points="656.59 935.48 683.71 908.37 670.15 908.37 656.59 921.93 656.59 935.48"/>
      <polygon points="683.71 921.93 670.15 935.48 683.71 935.49 683.71 921.93"/>
      <polygon points="697.54 935.49 724.65 908.37 711.1 908.37 697.54 921.93 697.54 935.49"/>
      <polygon points="724.65 921.93 711.1 935.49 724.65 935.49 724.65 921.93"/>
      <polygon points="738.49 935.49 765.6 908.37 752.04 908.37 738.49 921.93 738.49 935.49"/>
      <polygon points="765.6 921.93 752.04 935.49 765.6 935.49 765.6 921.93"/>
      <polygon points="779.46 935.49 806.57 908.37 793.01 908.37 779.46 921.93 779.46 935.49"/>
      <polygon points="806.57 921.93 793.01 935.49 806.57 935.49 806.57 921.93"/>
      <polygon points="820.4 935.49 847.52 908.37 833.96 908.37 820.4 921.93 820.4 935.49"/>
      <polygon points="847.52 921.93 833.96 935.49 847.52 935.49 847.52 921.93"/>
      <polygon points="861.35 935.49 888.46 908.37 874.91 908.37 861.35 921.93 861.35 935.49"/>
      <polygon points="888.46 921.93 874.91 935.49 888.46 935.49 888.46 921.93"/>
      <polygon points="902.3 935.49 929.41 908.37 915.85 908.37 902.3 921.93 902.3 935.49"/>
      <polygon points="929.41 921.93 915.85 935.49 929.41 935.49 929.41 921.93"/>
      <polygon points="943.24 935.49 970.36 908.37 956.8 908.37 943.24 921.93 943.24 935.49"/>
      <polygon points="970.36 921.93 956.8 935.49 970.36 935.49 970.36 921.93"/>
      <polygon points="984.19 935.49 1011.31 908.37 997.75 908.37 984.19 921.93 984.19 935.49"/>
      <polygon points="1011.31 921.93 997.75 935.49 1011.31 935.49 1011.31 921.93"/>
      <polygon points="1025.16 921.93 1025.16 935.49 1052.28 908.37 1038.72 908.37 1025.16 921.93"/>
      <polygon points="1038.72 935.49 1052.28 935.49 1052.28 921.93 1038.72 935.49"/>
      <polygon points="1066.11 935.49 1093.22 908.37 1079.66 908.37 1066.11 921.93 1066.11 935.49"/>
      <polygon points="1093.22 921.93 1079.66 935.49 1093.22 935.49 1093.22 921.93"/>
      <polygon points="29.21 948.59 14.93 948.59 3.03 960.49 3.03 974.77 29.21 948.59"/>
      <polygon points="29.21 962.87 14.93 977.16 29.21 977.16 29.21 962.87"/>
      <polygon points="41.6 977.16 70.16 948.59 55.88 948.59 41.6 962.87 41.6 977.16"/>
      <polygon points="70.16 962.87 55.88 977.16 70.16 977.16 70.16 962.87"/>
      <polygon points="82.54 977.16 111.11 948.59 96.83 948.59 82.54 962.87 82.54 977.16"/>
      <polygon points="111.11 962.87 96.83 977.16 111.11 977.16 111.11 962.87"/>
      <polygon points="123.49 977.16 152.05 948.59 137.77 948.59 123.49 962.87 123.49 977.16"/>
      <polygon points="152.05 962.87 137.77 977.16 152.05 977.16 152.05 962.87"/>
      <polygon points="164.46 977.16 193.02 948.59 178.74 948.59 164.46 962.87 164.46 977.16"/>
      <polygon points="193.02 962.87 178.74 977.16 193.02 977.16 193.02 962.87"/>
      <polygon points="205.41 977.16 233.97 948.59 219.69 948.59 205.41 962.87 205.41 977.16"/>
      <polygon points="233.97 962.87 219.69 977.16 233.97 977.16 233.97 962.87"/>
      <polygon points="246.35 977.16 274.92 948.59 260.64 948.59 246.35 962.87 246.35 977.16"/>
      <polygon points="274.92 962.87 260.64 977.16 274.92 977.16 274.92 962.87"/>
      <polygon points="287.3 977.16 315.86 948.59 301.58 948.59 287.3 962.87 287.3 977.16"/>
      <polygon points="315.86 962.87 301.58 977.16 315.86 977.16 315.86 962.87"/>
      <polygon points="328.25 977.16 356.81 948.59 342.53 948.59 328.25 962.87 328.25 977.16"/>
      <polygon points="356.81 962.87 342.53 977.16 356.81 977.16 356.81 962.87"/>
      <polygon points="369.22 977.16 397.78 948.59 383.5 948.59 369.22 962.87 369.22 977.16"/>
      <polygon points="397.78 962.87 383.5 977.16 397.78 977.16 397.78 962.87"/>
      <polygon points="410.16 977.16 438.73 948.59 424.45 948.59 410.16 962.87 410.16 977.16"/>
      <polygon points="438.73 962.87 424.45 977.16 438.73 977.16 438.73 962.87"/>
      <polygon points="451.11 977.16 479.67 948.59 465.39 948.59 451.11 962.87 451.11 977.16"/>
      <polygon points="479.67 962.87 465.39 977.16 479.67 977.16 479.67 962.87"/>
      <polygon points="492.06 977.16 520.62 948.59 506.34 948.59 492.06 962.87 492.06 977.16"/>
      <polygon points="520.62 962.87 506.34 977.16 520.62 977.16 520.62 962.87"/>
      <polygon points="533 977.16 561.57 948.59 547.29 948.59 533 962.87 533 977.16"/>
      <polygon points="561.57 962.87 547.29 977.16 561.57 977.16 561.57 962.87"/>
      <polygon points="588.23 948.59 573.95 962.87 573.95 977.16 602.52 948.59 588.23 948.59"/>
      <polygon points="602.52 962.87 588.23 977.16 602.52 977.16 602.52 962.87"/>
      <polygon points="614.92 977.16 643.49 948.59 629.2 948.59 614.92 962.87 614.92 977.16"/>
      <polygon points="643.49 962.87 629.2 977.16 643.49 977.16 643.49 962.87"/>
      <polygon points="655.87 977.16 684.43 948.59 670.15 948.59 655.87 962.87 655.87 977.16"/>
      <polygon points="684.43 962.87 670.15 977.16 684.43 977.16 684.43 962.87"/>
      <polygon points="696.82 977.16 725.38 948.59 711.1 948.59 696.82 962.87 696.82 977.16"/>
      <polygon points="725.38 962.87 711.1 977.16 725.38 977.16 725.38 962.87"/>
      <polygon points="737.76 977.16 766.33 948.59 752.04 948.59 737.76 962.87 737.76 977.16"/>
      <polygon points="766.33 962.87 752.04 977.16 766.33 977.16 766.33 962.87"/>
      <polygon points="778.71 977.16 807.27 948.59 792.99 948.59 778.71 962.87 778.71 977.16"/>
      <polygon points="807.27 962.87 792.99 977.16 807.27 977.16 807.27 962.87"/>
      <polygon points="819.68 977.16 848.24 948.59 833.96 948.59 819.68 962.87 819.68 977.16"/>
      <polygon points="848.24 962.87 833.96 977.16 848.24 977.16 848.24 962.87"/>
      <polygon points="860.63 977.16 889.19 948.59 874.91 948.59 860.63 962.87 860.63 977.16"/>
      <polygon points="889.19 962.87 874.91 977.16 889.19 977.16 889.19 962.87"/>
      <polygon points="901.57 977.16 930.14 948.59 915.85 948.59 901.57 962.87 901.57 977.16"/>
      <polygon points="930.14 962.87 915.85 977.16 930.14 977.16 930.14 962.87"/>
      <polygon points="942.52 977.16 971.08 948.59 956.8 948.59 942.52 962.87 942.52 977.16"/>
      <polygon points="971.08 962.87 956.8 977.16 971.08 977.16 971.08 962.87"/>
      <polygon points="983.47 977.16 1012.03 948.59 997.75 948.59 983.47 962.87 983.47 977.16"/>
      <polygon points="1012.03 962.87 997.75 977.16 1012.03 977.16 1012.03 962.87"/>
      <polygon points="1024.41 962.87 1024.41 977.16 1052.98 948.59 1038.7 948.59 1024.41 962.87"/>
      <polygon points="1052.98 962.87 1038.7 977.16 1052.98 977.16 1052.98 962.87"/>
      <polygon points="1065.38 977.16 1093.95 948.59 1079.66 948.59 1065.38 962.87 1065.38 977.16"/>
      <polygon points="1093.95 962.87 1079.66 977.16 1093.95 977.16 1093.95 962.87"/>
      <polygon points="29.96 988.81 14.94 988.81 3.03 1000.73 3.03 1015.74 29.96 988.81"/>
      <polygon points="29.96 1003.83 14.94 1018.85 29.96 1018.85 29.96 1003.83"/>
      <polygon points="40.87 1018.85 70.91 988.81 55.89 988.81 40.87 1003.83 40.87 1018.85"/>
      <polygon points="70.91 1003.83 55.89 1018.85 70.91 1018.85 70.91 1003.83"/>
      <polygon points="81.82 1018.85 111.85 988.81 96.84 988.81 81.82 1003.83 81.82 1018.85"/>
      <polygon points="111.85 1003.83 96.84 1018.85 111.85 1018.85 111.85 1003.83"/>
      <polygon points="122.77 1018.85 152.8 988.81 137.78 988.81 122.77 1003.83 122.77 1018.85"/>
      <polygon points="152.8 1003.83 137.78 1018.85 152.8 1018.85 152.8 1003.83"/>
      <polygon points="163.71 1018.85 193.75 988.81 178.73 988.81 163.71 1003.83 163.71 1018.85"/>
      <polygon points="193.75 1003.83 178.73 1018.85 193.75 1018.85 193.75 1003.83"/>
      <polygon points="204.68 1018.85 234.72 988.81 219.7 988.81 204.68 1003.83 204.68 1018.85"/>
      <polygon points="234.72 1003.83 219.7 1018.85 234.72 1018.85 234.72 1003.83"/>
      <polygon points="245.63 1018.85 275.66 988.81 260.65 988.81 245.63 1003.83 245.63 1018.85"/>
      <polygon points="275.66 1003.83 260.65 1018.85 275.66 1018.85 275.66 1003.83"/>
      <polygon points="286.58 1018.85 316.61 988.81 301.59 988.81 286.58 1003.83 286.58 1018.85"/>
      <polygon points="316.61 1003.83 301.59 1018.85 316.61 1018.85 316.61 1003.83"/>
      <polygon points="327.52 1018.85 357.56 988.81 342.54 988.81 327.52 1003.83 327.52 1018.85"/>
      <polygon points="357.56 1003.83 342.54 1018.85 357.56 1018.85 357.56 1003.83"/>
      <polygon points="368.47 1018.85 398.51 988.81 383.49 988.81 368.47 1003.83 368.47 1018.85"/>
      <polygon points="398.51 1003.83 383.49 1018.85 398.51 1018.85 398.51 1003.83"/>
      <polygon points="409.44 1018.85 439.47 988.81 424.46 988.81 409.44 1003.83 409.44 1018.85"/>
      <polygon points="439.47 1003.83 424.46 1018.85 439.47 1018.85 439.47 1003.83"/>
      <polygon points="450.39 1018.85 480.42 988.81 465.4 988.81 450.39 1003.83 450.39 1018.85"/>
      <polygon points="480.42 1003.83 465.4 1018.85 480.42 1018.85 480.42 1003.83"/>
      <polygon points="491.33 1018.85 521.37 988.81 506.35 988.81 491.33 1003.83 491.33 1018.85"/>
      <polygon points="521.37 1003.83 506.35 1018.85 521.37 1018.85 521.37 1003.83"/>
      <polygon points="532.28 1018.85 562.32 988.81 547.3 988.81 532.28 1003.83 532.28 1018.85"/>
      <polygon points="562.32 1003.83 547.3 1018.85 562.32 1018.85 562.32 1003.83"/>
      <polygon points="588.24 988.81 573.23 1003.83 573.23 1018.85 603.26 988.81 588.24 988.81"/>
      <polygon points="603.26 1003.83 588.24 1018.85 603.26 1018.85 603.26 1003.83"/>
      <polygon points="614.17 1018.85 644.21 988.81 629.19 988.81 614.17 1003.83 614.17 1018.85"/>
      <polygon points="644.21 1003.83 629.19 1018.85 644.21 1018.85 644.21 1003.83"/>
      <polygon points="655.14 1018.85 685.18 988.82 670.16 988.81 655.14 1003.83 655.14 1018.85"/>
      <polygon points="685.18 1003.83 670.16 1018.85 685.18 1018.85 685.18 1003.83"/>
      <polygon points="696.09 1018.85 726.13 988.82 711.11 988.82 696.09 1003.83 696.09 1018.85"/>
      <polygon points="726.13 1003.83 711.11 1018.85 726.13 1018.85 726.13 1003.83"/>
      <polygon points="737.04 1018.85 767.07 988.82 752.06 988.82 737.04 1003.83 737.04 1018.85"/>
      <polygon points="767.07 1003.83 752.06 1018.85 767.07 1018.85 767.07 1003.83"/>
      <polygon points="777.98 1018.85 808.02 988.82 793 988.82 777.98 1003.83 777.98 1018.85"/>
      <polygon points="808.02 1003.83 793 1018.85 808.02 1018.85 808.02 1003.83"/>
      <polygon points="818.93 1018.85 848.97 988.82 833.95 988.82 818.93 1003.83 818.93 1018.85"/>
      <polygon points="848.97 1003.83 833.95 1018.85 848.97 1018.85 848.97 1003.83"/>
      <polygon points="859.9 1018.85 889.94 988.82 874.92 988.82 859.9 1003.83 859.9 1018.85"/>
      <polygon points="889.94 1003.83 874.92 1018.85 889.94 1018.85 889.94 1003.83"/>
      <polygon points="900.85 1018.85 930.88 988.82 915.87 988.82 900.85 1003.83 900.85 1018.85"/>
      <polygon points="930.88 1003.83 915.87 1018.85 930.88 1018.85 930.88 1003.83"/>
      <polygon points="941.79 1018.85 971.83 988.82 956.81 988.82 941.79 1003.83 941.79 1018.85"/>
      <polygon points="971.83 1003.83 956.81 1018.85 971.83 1018.85 971.83 1003.83"/>
      <polygon points="982.74 1018.85 1012.78 988.82 997.76 988.82 982.74 1003.83 982.74 1018.85"/>
      <polygon points="1012.78 1003.83 997.76 1018.85 1012.78 1018.85 1012.78 1003.83"/>
      <polygon points="1023.69 1003.83 1023.69 1018.85 1053.72 988.82 1038.71 988.82 1023.69 1003.83"/>
      <polygon points="1053.72 1003.83 1038.71 1018.85 1053.72 1018.85 1053.72 1003.83"/>
      <polygon points="1064.66 1018.85 1094.69 988.82 1079.68 988.82 1064.66 1003.83 1064.66 1018.85"/>
      <polygon points="1094.69 1003.83 1079.68 1018.85 1094.69 1018.85 1094.69 1003.83"/>
      <polygon points="30.68 1029.04 14.94 1029.04 3.03 1040.95 3.03 1056.69 30.68 1029.04"/>
      <polygon points="30.68 1044.78 14.94 1060.52 30.68 1060.52 30.68 1044.78"/>
      <polygon points="55.89 1029.04 40.15 1044.78 40.15 1060.52 71.63 1029.04 55.89 1029.04"/>
      <polygon points="71.63 1044.78 55.89 1060.52 71.63 1060.52 71.63 1044.78"/>
      <polygon points="96.84 1029.04 81.09 1044.78 81.09 1060.52 112.58 1029.04 96.84 1029.04"/>
      <polygon points="112.58 1044.78 96.84 1060.52 112.58 1060.52 112.58 1044.78"/>
      <polygon points="137.78 1029.04 122.04 1044.78 122.04 1060.52 153.53 1029.04 137.78 1029.04"/>
      <polygon points="153.53 1044.78 137.78 1060.52 153.53 1060.52 153.53 1044.78"/>
      <polygon points="178.73 1029.04 162.99 1044.78 162.99 1060.52 194.47 1029.04 178.73 1029.04"/>
      <polygon points="194.47 1044.78 178.73 1060.52 194.47 1060.52 194.47 1044.78"/>
      <polygon points="219.68 1029.04 203.94 1044.78 203.94 1060.52 235.42 1029.04 219.68 1029.04"/>
      <polygon points="235.42 1044.78 219.68 1060.52 235.42 1060.52 235.42 1044.78"/>
      <polygon points="260.65 1029.04 244.9 1044.78 244.9 1060.52 276.39 1029.04 260.65 1029.04"/>
      <polygon points="276.39 1044.78 260.65 1060.52 276.39 1060.52 276.39 1044.78"/>
      <polygon points="301.59 1029.04 285.85 1044.78 285.85 1060.52 317.34 1029.04 301.59 1029.04"/>
      <polygon points="317.34 1044.78 301.59 1060.52 317.34 1060.52 317.34 1044.78"/>
      <polygon points="342.54 1029.04 326.8 1044.78 326.8 1060.52 358.28 1029.04 342.54 1029.04"/>
      <polygon points="358.28 1044.78 342.54 1060.52 358.28 1060.52 358.28 1044.78"/>
      <polygon points="383.49 1029.04 367.75 1044.78 367.75 1060.52 399.23 1029.04 383.49 1029.04"/>
      <polygon points="399.23 1044.78 383.49 1060.52 399.23 1060.52 399.23 1044.78"/>
      <polygon points="424.43 1029.04 408.69 1044.78 408.69 1060.52 440.18 1029.04 424.43 1029.04"/>
      <polygon points="440.18 1044.78 424.43 1060.52 440.18 1060.52 440.18 1044.78"/>
      <polygon points="465.4 1029.04 449.66 1044.78 449.66 1060.52 481.15 1029.04 465.4 1029.04"/>
      <polygon points="481.15 1044.78 465.4 1060.52 481.15 1060.52 481.15 1044.78"/>
      <polygon points="506.35 1029.04 490.61 1044.78 490.61 1060.52 522.09 1029.04 506.35 1029.04"/>
      <polygon points="522.09 1044.78 506.35 1060.52 522.09 1060.52 522.09 1044.78"/>
      <polygon points="547.3 1029.04 531.56 1044.78 531.56 1060.52 563.04 1029.04 547.3 1029.04"/>
      <polygon points="563.04 1044.78 547.3 1060.52 563.04 1060.52 563.04 1044.78"/>
      <polygon points="572.5 1060.52 603.99 1029.04 588.24 1029.04 572.5 1044.78 572.5 1060.52"/>
      <polygon points="603.99 1044.78 588.24 1060.52 603.99 1060.52 603.99 1044.78"/>
      <polygon points="629.19 1029.04 613.45 1044.78 613.45 1060.52 644.93 1029.04 629.19 1029.04"/>
      <polygon points="644.93 1044.78 629.19 1060.52 644.93 1060.52 644.93 1044.78"/>
      <polygon points="670.14 1029.04 654.4 1044.78 654.4 1060.52 685.88 1029.04 670.14 1029.04"/>
      <polygon points="685.88 1044.78 670.14 1060.52 685.88 1060.52 685.88 1044.78"/>
      <polygon points="711.11 1029.04 695.37 1044.78 695.37 1060.52 726.85 1029.04 711.11 1029.04"/>
      <polygon points="726.85 1044.78 711.11 1060.52 726.85 1060.52 726.85 1044.78"/>
      <polygon points="752.06 1029.04 736.31 1044.78 736.31 1060.52 767.8 1029.04 752.06 1029.04"/>
      <polygon points="767.8 1044.78 752.06 1060.52 767.8 1060.52 767.8 1044.78"/>
      <polygon points="793 1029.04 777.26 1044.78 777.26 1060.52 808.74 1029.04 793 1029.04"/>
      <polygon points="808.74 1044.78 793 1060.52 808.74 1060.52 808.74 1044.78"/>
      <polygon points="833.95 1029.04 818.21 1044.78 818.21 1060.52 849.69 1029.04 833.95 1029.04"/>
      <polygon points="849.69 1044.78 833.95 1060.52 849.69 1060.52 849.69 1044.78"/>
      <polygon points="874.9 1029.04 859.15 1044.78 859.15 1060.52 890.64 1029.04 874.9 1029.04"/>
      <polygon points="890.64 1044.78 874.9 1060.52 890.64 1060.52 890.64 1044.78"/>
      <polygon points="915.87 1029.04 900.12 1044.78 900.12 1060.52 931.61 1029.04 915.87 1029.04"/>
      <polygon points="931.61 1044.78 915.87 1060.52 931.61 1060.52 931.61 1044.78"/>
      <polygon points="956.81 1029.04 941.07 1044.78 941.07 1060.52 972.55 1029.04 956.81 1029.04"/>
      <polygon points="972.55 1044.78 956.81 1060.52 972.55 1060.52 972.55 1044.78"/>
      <polygon points="997.76 1029.04 982.02 1044.78 982.02 1060.52 1013.5 1029.04 997.76 1029.04"/>
      <polygon points="1013.5 1044.78 997.76 1060.52 1013.5 1060.52 1013.5 1044.78"/>
      <polygon points="1038.71 1029.04 1022.96 1044.78 1022.96 1060.52 1054.45 1029.04 1038.71 1029.04"/>
      <polygon points="1054.45 1044.78 1038.71 1060.52 1054.45 1060.52 1054.45 1044.78"/>
      <polygon points="1063.91 1060.52 1095.4 1029.04 1079.65 1029.04 1063.91 1044.78 1063.91 1060.52"/>
      <polygon points="1095.4 1044.78 1079.65 1060.52 1095.4 1060.52 1095.4 1044.78"/>
      <polygon points="14.92 1069.28 3.03 1081.17 3.03 1094.82 5.85 1094.82 31.39 1069.28 14.92 1069.28"/>
      <polygon points="22.3 1094.84 31.39 1094.84 31.39 1085.75 22.3 1094.84"/>
      <polygon points="72.36 1069.28 55.89 1069.28 39.42 1085.75 39.42 1094.85 46.78 1094.86 72.36 1069.28"/>
      <polygon points="63.23 1094.87 72.36 1094.88 72.36 1085.75 63.23 1094.87"/>
      <polygon points="113.3 1069.28 96.84 1069.28 80.37 1085.75 80.37 1094.89 87.69 1094.9 113.3 1069.28"/>
      <polygon points="104.14 1094.91 113.3 1094.92 113.3 1085.75 104.14 1094.91"/>
      <polygon points="154.25 1069.28 137.78 1069.28 121.32 1085.75 121.32 1094.93 128.6 1094.93 154.25 1069.28"/>
      <polygon points="145.05 1094.95 154.25 1094.96 154.25 1085.75 145.05 1094.95"/>
      <polygon points="195.2 1069.28 178.73 1069.28 162.26 1085.75 162.26 1094.96 169.51 1094.97 195.2 1069.28"/>
      <polygon points="185.96 1094.98 195.2 1094.99 195.2 1085.75 185.96 1094.98"/>
      <polygon points="236.14 1069.28 219.68 1069.28 203.21 1085.75 203.21 1095 210.42 1095.01 236.14 1069.28"/>
      <polygon points="226.87 1095.02 236.14 1095.03 236.14 1085.75 226.87 1095.02"/>
      <polygon points="277.09 1069.28 260.62 1069.28 244.16 1085.75 244.16 1095.04 251.33 1095.04 277.09 1069.28"/>
      <polygon points="267.78 1095.06 277.09 1095.07 277.09 1085.75 267.78 1095.06"/>
      <polygon points="318.06 1069.28 301.59 1069.28 285.13 1085.75 285.13 1095.08 292.26 1095.08 318.06 1069.28"/>
      <polygon points="308.71 1095.1 318.06 1095.1 318.06 1085.75 308.71 1095.1"/>
      <polygon points="359.01 1069.28 342.54 1069.28 326.07 1085.75 326.07 1095.11 333.17 1095.12 359.01 1069.28"/>
      <polygon points="349.62 1095.13 359.01 1095.14 359.01 1085.75 349.62 1095.13"/>
      <polygon points="399.95 1069.28 383.49 1069.28 367.02 1085.75 367.02 1095.15 374.08 1095.16 399.95 1069.28"/>
      <polygon points="390.53 1095.17 399.95 1095.18 399.95 1085.75 390.53 1095.17"/>
      <polygon points="440.9 1069.28 424.43 1069.28 407.97 1085.75 407.97 1095.19 414.99 1095.19 440.9 1069.28"/>
      <polygon points="431.44 1095.21 440.9 1095.22 440.9 1085.75 431.44 1095.21"/>
      <polygon points="481.85 1069.28 465.38 1069.28 448.92 1085.75 448.92 1095.22 455.9 1095.23 481.85 1069.28"/>
      <polygon points="472.35 1095.25 481.85 1095.25 481.85 1085.75 472.35 1095.25"/>
      <polygon points="522.82 1069.28 506.35 1069.28 489.88 1085.75 489.88 1095.26 496.83 1095.27 522.82 1069.28"/>
      <polygon points="513.28 1095.28 522.82 1095.29 522.82 1085.75 513.28 1095.28"/>
      <polygon points="563.76 1069.28 547.3 1069.28 530.83 1085.75 530.83 1095.3 537.74 1095.3 563.76 1069.28"/>
      <polygon points="554.19 1095.32 563.76 1095.33 563.76 1085.75 554.19 1095.32"/>
      <polygon points="604.71 1069.28 588.24 1069.28 571.78 1085.75 571.78 1095.34 578.65 1095.34 604.71 1069.28"/>
      <polygon points="595.1 1095.36 604.71 1095.37 604.71 1085.75 595.1 1095.36"/>
      <polygon points="645.66 1069.28 629.19 1069.28 612.73 1085.75 612.73 1095.37 619.56 1095.38 645.66 1069.28"/>
      <polygon points="636.01 1095.39 645.66 1095.4 645.66 1085.75 636.01 1095.39"/>
      <polygon points="686.61 1069.28 670.14 1069.28 653.67 1085.75 653.67 1095.41 660.47 1095.42 686.61 1069.28"/>
      <polygon points="676.92 1095.43 686.61 1095.44 686.61 1085.75 676.92 1095.43"/>
      <polygon points="727.57 1069.28 711.11 1069.28 694.64 1085.75 694.64 1095.45 701.4 1095.45 727.57 1069.28"/>
      <polygon points="717.85 1095.47 727.57 1095.48 727.57 1085.75 717.85 1095.47"/>
      <polygon points="768.52 1069.28 752.06 1069.28 735.59 1085.75 735.59 1095.48 742.31 1095.49 768.52 1069.28"/>
      <polygon points="758.76 1095.51 768.52 1095.51 768.52 1085.75 758.76 1095.51"/>
      <polygon points="809.47 1069.28 793 1069.28 776.54 1085.75 776.54 1095.52 783.22 1095.53 809.47 1069.28"/>
      <polygon points="799.67 1095.54 809.47 1095.55 809.47 1085.75 799.67 1095.54"/>
      <polygon points="850.42 1069.28 833.95 1069.28 817.48 1085.75 817.48 1095.56 824.13 1095.57 850.42 1069.28"/>
      <polygon points="840.58 1095.58 850.42 1095.59 850.42 1085.75 840.58 1095.58"/>
      <polygon points="891.36 1069.28 874.9 1069.28 858.43 1085.75 858.43 1095.6 865.04 1095.6 891.36 1069.28"/>
      <polygon points="881.49 1095.62 891.36 1095.63 891.36 1085.75 881.49 1095.62"/>
      <polygon points="932.31 1069.28 915.84 1069.28 899.38 1085.75 899.38 1095.63 905.95 1095.64 932.31 1069.28"/>
      <polygon points="922.4 1095.65 932.31 1095.66 932.31 1085.75 922.4 1095.65"/>
      <polygon points="973.28 1069.28 956.81 1069.28 940.35 1085.75 940.35 1095.67 946.88 1095.68 973.28 1069.28"/>
      <polygon points="963.34 1095.69 973.28 1095.7 973.28 1085.75 963.34 1095.69"/>
      <polygon points="1014.23 1069.28 997.76 1069.28 981.29 1085.75 981.29 1095.71 987.79 1095.71 1014.23 1069.28"/>
      <polygon points="1004.25 1095.73 1014.23 1095.74 1014.23 1085.75 1004.25 1095.73"/>
      <polygon points="1055.17 1069.28 1038.71 1069.28 1022.24 1085.75 1022.24 1095.75 1028.7 1095.75 1055.17 1069.28"/>
      <polygon points="1045.16 1095.77 1055.17 1095.78 1055.17 1085.75 1045.16 1095.77"/>
      <polygon points="1063.19 1085.75 1063.19 1095.78 1069.61 1095.79 1096.12 1069.28 1079.65 1069.28 1063.19 1085.75"/>
      <polygon points="1086.07 1095.8 1096.12 1095.81 1096.12 1085.75 1086.07 1095.8"/>
    </g>
  </g>
</svg>