<svg width="905" height="976" viewBox="0 0 905 976" fill="none" xmlns="http://www.w3.org/2000/svg">
<path d="M683.68 442.09L728.68 407.9C738.52 400.43 752.55 402.34 760.02 412.18L773.22 429.55C780.69 439.39 778.78 453.42 768.94 460.89L699.49 513.66L683.69 442.09H683.68Z" fill="black" stroke="white" stroke-width="3" stroke-miterlimit="10"/>
<path d="M710.76 563.52L742.8 537.22C752.35 529.38 766.44 530.77 774.28 540.31L788.12 557.17C795.96 566.72 794.57 580.81 785.03 588.65L727.74 635.68L710.76 563.52Z" fill="black" stroke="white" stroke-width="3" stroke-miterlimit="10"/>
<path d="M738.63 684.52L758.58 667.72C768.03 659.76 782.14 660.97 790.09 670.42L804.14 687.11C812.1 696.56 810.89 710.67 801.44 718.62L754.83 757.87L738.62 684.52H738.63Z" fill="black" stroke="white" stroke-width="3" stroke-miterlimit="10"/>
<path d="M537.45 237.31L584.13 205.24C594.31 198.24 596.89 184.32 589.9 174.14L577.55 156.16C570.55 145.98 556.63 143.4 546.45 150.39L475.03 199.46L537.46 237.3L537.45 237.31Z" fill="black" stroke="white" stroke-width="3" stroke-miterlimit="10"/>
<path d="M431.2 173.15L465.76 151.27C476.2 144.66 479.3 130.85 472.69 120.41L461.02 101.98C454.41 91.54 440.6 88.44 430.16 95.05L367.42 134.77L431.19 173.16L431.2 173.15Z" fill="black" stroke="white" stroke-width="3" stroke-miterlimit="10"/>
<path d="M324.08 109.34L346.79 95.3501C357.31 88.8701 360.58 75.1001 354.11 64.5801L342.67 46.0001C336.19 35.4801 322.42 32.2101 311.9 38.6801L260.81 70.1401L324.07 109.33L324.08 109.34Z" fill="black" stroke="white" stroke-width="3" stroke-miterlimit="10"/>
<path d="M755.51 925.74L757.61 922.78L757.38 921.41L756.02 921.64L753.91 924.61L754.14 925.97L755.51 925.74Z" fill="black"/>
<path d="M736 929.05L738.11 926.09L737.88 924.73L736.51 924.96L734.41 927.92L734.64 929.29L736 929.05Z" fill="black"/>
<path d="M773.85 898.21L772.26 898.48L769.81 901.94L770.08 903.53L771.67 903.26L774.12 899.8L773.85 898.21Z" fill="black"/>
<path d="M754.34 901.53L752.74 901.8L750.29 905.26L750.56 906.85L752.15 906.58L754.61 903.12L754.34 901.53Z" fill="black"/>
<path d="M732.64 909.89L735.09 906.43L734.82 904.84L733.23 905.11L730.77 908.57L731.04 910.16L732.64 909.89Z" fill="black"/>
<path d="M768.31 884.09L771.11 880.14L770.8 878.33L768.98 878.63L766.18 882.58L766.49 884.4L768.31 884.09Z" fill="black"/>
<path d="M748.8 887.4L751.6 883.46L751.29 881.64L749.48 881.95L746.68 885.9L746.99 887.71L748.8 887.4Z" fill="black"/>
<path d="M729.29 890.72L732.09 886.77L731.78 884.95L729.96 885.26L727.16 889.21L727.47 891.03L729.29 890.72Z" fill="black"/>
<path d="M712.27 888.27L710.64 888.55L711.91 891.03L712.58 890.08L712.27 888.27Z" fill="black"/>
<path d="M764.95 864.92L768.1 860.47L767.75 858.43L765.71 858.78L762.56 863.22L762.9 865.26L764.95 864.92Z" fill="black"/>
<path d="M745.43 868.23L748.59 863.79L748.24 861.74L746.19 862.09L743.04 866.53L743.39 868.58L745.43 868.23Z" fill="black"/>
<path d="M725.93 871.54L729.08 867.1L728.73 865.06L726.69 865.4L723.54 869.85L723.88 871.89L725.93 871.54Z" fill="black"/>
<path d="M706.41 874.86L709.56 870.42L709.22 868.37L707.17 868.72L704.02 873.16L704.37 875.21L706.41 874.86Z" fill="black"/>
<path d="M761.6 845.74L765.1 840.81L764.71 838.54L762.44 838.93L758.94 843.86L759.33 846.13L761.6 845.74Z" fill="black"/>
<path d="M742.08 849.06L745.58 844.13L745.2 841.86L742.93 842.24L739.43 847.17L739.81 849.44L742.08 849.06Z" fill="black"/>
<path d="M722.58 852.37L726.08 847.44L725.69 845.17L723.42 845.56L719.92 850.49L720.31 852.76L722.58 852.37Z" fill="black"/>
<path d="M703.06 855.69L706.56 850.76L706.17 848.49L703.91 848.87L700.41 853.8L700.79 856.07L703.06 855.69Z" fill="black"/>
<path d="M758.23 826.57L762.08 821.14L761.66 818.65L759.16 819.07L755.31 824.5L755.73 826.99L758.23 826.57Z" fill="black"/>
<path d="M742.57 824.46L742.15 821.96L739.65 822.38L735.8 827.81L736.23 830.31L738.72 829.88L742.57 824.46Z" fill="black"/>
<path d="M719.21 833.2L723.06 827.77L722.63 825.28L720.14 825.7L716.29 831.12L716.71 833.62L719.21 833.2Z" fill="black"/>
<path d="M699.7 836.51L703.55 831.09L703.13 828.59L700.63 829.01L696.78 834.44L697.21 836.94L699.7 836.51Z" fill="black"/>
<path d="M683.61 831.9L681.64 832.24L683.29 835.45L684.04 834.4L683.61 831.9Z" fill="black"/>
<path d="M754.88 807.41L759.08 801.49L758.61 798.77L755.89 799.23L751.7 805.15L752.16 807.87L754.88 807.41Z" fill="black"/>
<path d="M732.66 811.18L735.38 810.72L739.57 804.81L739.11 802.08L736.39 802.55L732.19 808.46L732.66 811.18Z" fill="black"/>
<path d="M715.86 814.03L720.06 808.12L719.59 805.4L716.87 805.86L712.68 811.77L713.14 814.5L715.86 814.03Z" fill="black"/>
<path d="M696.36 817.35L700.55 811.44L700.09 808.71L697.37 809.18L693.17 815.09L693.63 817.81L696.36 817.35Z" fill="black"/>
<path d="M677.85 812.49L674.15 817.7L675.77 820.84L676.84 820.66L681.03 814.75L680.57 812.03L677.85 812.49Z" fill="black"/>
<path d="M755.57 778.87L752.62 779.38L748.07 785.78L748.57 788.73L751.52 788.23L756.07 781.82L755.57 778.87Z" fill="black"/>
<path d="M733.1 782.69L728.56 789.1L729.06 792.05L732.01 791.55L736.55 785.14L736.05 782.19L733.1 782.69Z" fill="black"/>
<path d="M717.05 788.45L716.55 785.5L713.6 786L709.05 792.41L709.55 795.36L712.5 794.86L717.05 788.45Z" fill="black"/>
<path d="M692.99 798.18L697.53 791.77L697.03 788.82L694.08 789.32L689.54 795.73L690.04 798.68L692.99 798.18Z" fill="black"/>
<path d="M673.48 801.49L678.03 795.08L677.53 792.13L674.58 792.63L670.03 799.04L670.53 801.99L673.48 801.49Z" fill="black"/>
<path d="M745 769.6L748.17 769.06L753.07 762.16L752.53 758.99L749.35 759.53L744.46 766.42L745 769.6Z" fill="black"/>
<path d="M728.66 772.37L733.55 765.48L733.01 762.3L729.84 762.84L724.94 769.74L725.48 772.91L728.66 772.37Z" fill="black"/>
<path d="M709.15 775.69L714.04 768.79L713.51 765.62L710.33 766.16L705.44 773.05L705.98 776.22L709.15 775.69Z" fill="black"/>
<path d="M689.64 779L694.53 772.11L693.99 768.93L690.82 769.47L685.92 776.37L686.46 779.54L689.64 779Z" fill="black"/>
<path d="M670.12 782.32L675.01 775.42L674.47 772.25L671.3 772.79L666.41 779.68L666.95 782.85L670.12 782.32Z" fill="black"/>
<path d="M654.97 775.56L652.65 775.95L654.68 779.89L655.51 778.73L654.97 775.56Z" fill="black"/>
<path d="M746.07 739.67L740.82 747.06L741.4 750.46L744.8 749.88L750.05 742.49L749.47 739.09L746.07 739.67Z" fill="black"/>
<path d="M725.3 753.2L730.54 745.81L729.97 742.41L726.56 742.98L721.32 750.37L721.9 753.78L725.3 753.2Z" fill="black"/>
<path d="M705.78 756.51L711.03 749.12L710.45 745.72L707.05 746.3L701.8 753.69L702.38 757.09L705.78 756.51Z" fill="black"/>
<path d="M686.28 759.83L691.52 752.44L690.94 749.03L687.54 749.61L682.3 757L682.88 760.4L686.28 759.83Z" fill="black"/>
<path d="M666.76 763.14L672.01 755.75L671.43 752.35L668.03 752.93L662.78 760.32L663.36 763.72L666.76 763.14Z" fill="black"/>
<path d="M652.5 759.07L651.92 755.66L648.52 756.24L645.03 761.16L647.55 766.04L652.5 759.07Z" fill="black"/>
<path d="M742.8 719.82L737.21 727.7L737.83 731.33L741.45 730.71L746.1 724.17L745.03 719.44L742.8 719.82Z" fill="black"/>
<path d="M721.95 734.02L727.54 726.15L726.92 722.52L723.3 723.14L717.71 731.01L718.32 734.64L721.95 734.02Z" fill="black"/>
<path d="M702.43 737.34L708.02 729.46L707.41 725.83L703.78 726.45L698.19 734.33L698.81 737.95L702.43 737.34Z" fill="black"/>
<path d="M688.52 732.77L687.9 729.15L684.28 729.76L678.69 737.64L679.3 741.27L682.93 740.65L688.52 732.77Z" fill="black"/>
<path d="M663.41 743.97L669 736.09L668.38 732.46L664.76 733.08L659.17 740.96L659.79 744.58L663.41 743.97Z" fill="black"/>
<path d="M643.89 747.28L649.48 739.41L648.87 735.78L645.24 736.4L639.65 744.27L640.27 747.9L643.89 747.28Z" fill="black"/>
<path d="M742 706.04L740.58 699.78L739.53 699.96L733.59 708.34L734.24 712.19L738.1 711.54L742 706.04Z" fill="black"/>
<path d="M718.58 714.85L724.52 706.48L723.87 702.62L720.01 703.28L714.07 711.65L714.73 715.51L718.58 714.85Z" fill="black"/>
<path d="M699.07 718.16L705.02 709.79L704.36 705.94L700.51 706.59L694.57 714.97L695.22 718.82L699.07 718.16Z" fill="black"/>
<path d="M685.5 713.11L684.84 709.25L680.99 709.91L675.05 718.28L675.7 722.13L679.56 721.48L685.5 713.11Z" fill="black"/>
<path d="M660.05 724.79L665.99 716.42L665.34 712.57L661.49 713.22L655.54 721.59L656.2 725.45L660.05 724.79Z" fill="black"/>
<path d="M640.54 728.11L646.48 719.74L645.82 715.88L641.97 716.54L636.03 724.91L636.68 728.76L640.54 728.11Z" fill="black"/>
<path d="M626.32 719.2L623.66 719.65L626.07 724.32L626.97 723.05L626.32 719.2Z" fill="black"/>
<path d="M734.75 692.37L737.9 687.93L736.17 680.26L729.98 688.99L730.67 693.06L734.75 692.37Z" fill="black"/>
<path d="M721.52 686.83L720.83 682.75L716.75 683.44L710.46 692.3L711.15 696.38L715.23 695.69L721.52 686.83Z" fill="black"/>
<path d="M695.73 699L702.01 690.14L701.32 686.06L697.24 686.76L690.96 695.62L691.65 699.69L695.73 699Z" fill="black"/>
<path d="M676.21 702.32L682.5 693.46L681.8 689.38L677.73 690.07L671.44 698.93L672.13 703.01L676.21 702.32Z" fill="black"/>
<path d="M656.69 705.63L662.98 696.77L662.29 692.69L658.21 693.39L651.92 702.25L652.62 706.32L656.69 705.63Z" fill="black"/>
<path d="M637.19 708.94L643.48 700.08L642.78 696.01L638.7 696.7L632.42 705.56L633.11 709.64L637.19 708.94Z" fill="black"/>
<path d="M623.27 699.32L619.19 700.01L615.92 704.62L618.94 710.48L623.96 703.4L623.27 699.32Z" fill="black"/>
<path d="M731.38 673.2L733.8 669.79L731.97 661.69L726.34 669.63L727.07 673.93L731.38 673.2Z" fill="black"/>
<path d="M711.87 676.51L718.51 667.16L717.78 662.85L713.47 663.58L706.84 672.94L707.57 677.24L711.87 676.51Z" fill="black"/>
<path d="M692.36 679.83L699 670.47L698.26 666.17L693.96 666.9L687.32 676.25L688.05 680.56L692.36 679.83Z" fill="black"/>
<path d="M672.85 683.14L679.49 673.79L678.76 669.48L674.45 670.21L667.81 679.57L668.55 683.87L672.85 683.14Z" fill="black"/>
<path d="M659.97 677.1L659.24 672.8L654.94 673.53L648.3 682.88L649.03 687.19L653.34 686.46L659.97 677.1Z" fill="black"/>
<path d="M633.83 689.77L640.47 680.42L639.74 676.11L635.43 676.84L628.79 686.2L629.52 690.5L633.83 689.77Z" fill="black"/>
<path d="M620.22 679.42L615.92 680.16L609.28 689.51L609.84 692.81L610.33 693.76L614.31 693.09L620.95 683.73L620.22 679.42Z" fill="black"/>
<path d="M728.03 654.02L729.7 651.67L727.77 643.15L722.73 650.26L723.5 654.79L728.03 654.02Z" fill="black"/>
<path d="M708.52 657.34L715.51 647.5L714.74 642.97L710.21 643.73L703.22 653.58L703.99 658.11L708.52 657.34Z" fill="black"/>
<path d="M695.99 650.81L695.22 646.28L690.69 647.05L683.71 656.89L684.48 661.42L689.01 660.65L695.99 650.81Z" fill="black"/>
<path d="M669.5 663.97L676.49 654.12L675.72 649.59L671.19 650.36L664.2 660.21L664.97 664.74L669.5 663.97Z" fill="black"/>
<path d="M649.99 667.28L656.97 657.44L656.2 652.91L651.67 653.68L644.69 663.52L645.45 668.05L649.99 667.28Z" fill="black"/>
<path d="M630.47 670.6L637.45 660.76L636.68 656.23L632.15 656.99L625.17 666.84L625.94 671.37L630.47 670.6Z" fill="black"/>
<path d="M617.95 664.07L617.18 659.54L612.65 660.31L605.66 670.15L606.43 674.68L610.96 673.91L617.95 664.07Z" fill="black"/>
<path d="M597.66 662.85L594.67 663.36L597.45 668.76L598.43 667.38L597.66 662.85Z" fill="black"/>
<path d="M724.67 634.85L725.6 633.54L723.58 624.6L719.1 630.9L719.91 635.66L724.67 634.85Z" fill="black"/>
<path d="M705.15 638.17L712.49 627.83L711.68 623.07L706.92 623.88L699.59 634.22L700.4 638.97L705.15 638.17Z" fill="black"/>
<path d="M692.98 631.14L692.18 626.38L687.42 627.19L680.08 637.53L680.89 642.29L685.65 641.48L692.98 631.14Z" fill="black"/>
<path d="M666.13 644.79L673.47 634.46L672.66 629.7L667.9 630.51L660.57 640.84L661.37 645.6L666.13 644.79Z" fill="black"/>
<path d="M646.63 648.11L653.96 637.77L653.15 633.01L648.4 633.82L641.06 644.16L641.87 648.92L646.63 648.11Z" fill="black"/>
<path d="M634.45 641.09L633.64 636.33L628.88 637.14L621.54 647.47L622.35 652.23L627.11 651.42L634.45 641.09Z" fill="black"/>
<path d="M607.61 654.74L614.94 644.4L614.13 639.64L609.38 640.45L602.04 650.79L602.85 655.55L607.61 654.74Z" fill="black"/>
<path d="M589.86 643.76L586.8 648.07L590.32 654.91L595.43 647.71L594.62 642.96L589.86 643.76Z" fill="black"/>
<path d="M721.5 615.42L719.38 606.05L715.49 611.54L716.34 616.52L721.32 615.68L721.5 615.42Z" fill="black"/>
<path d="M701.8 618.99L709.48 608.17L708.64 603.18L703.66 604.03L695.97 614.85L696.82 619.84L701.8 618.99Z" fill="black"/>
<path d="M682.3 622.3L689.98 611.48L689.13 606.5L684.15 607.34L676.47 618.17L677.32 623.15L682.3 622.3Z" fill="black"/>
<path d="M662.78 625.62L670.46 614.79L669.62 609.81L664.63 610.66L656.95 621.48L657.8 626.47L662.78 625.62Z" fill="black"/>
<path d="M643.27 628.94L650.95 618.11L650.1 613.13L645.12 613.97L637.44 624.8L638.28 629.78L643.27 628.94Z" fill="black"/>
<path d="M631.44 621.42L630.6 616.44L625.61 617.29L617.93 628.11L618.78 633.1L623.76 632.25L631.44 621.42Z" fill="black"/>
<path d="M611.08 619.76L606.1 620.6L598.42 631.43L599.26 636.41L604.24 635.56L611.93 624.74L611.08 619.76Z" fill="black"/>
<path d="M586.59 623.92L579.5 633.9L582.28 639.3L584.74 638.88L592.42 628.05L591.57 623.07L586.59 623.92Z" fill="black"/>
<path d="M717.25 596.63L715.19 587.5L711.86 592.19L712.74 597.4L717.25 596.63Z" fill="black"/>
<path d="M698.45 599.83L706.48 588.51L705.6 583.3L700.38 584.18L692.35 595.5L693.24 600.71L698.45 599.83Z" fill="black"/>
<path d="M678.93 603.14L686.96 591.82L686.08 586.61L680.87 587.5L672.84 598.82L673.72 604.03L678.93 603.14Z" fill="black"/>
<path d="M659.43 606.46L667.46 595.14L666.57 589.93L661.36 590.81L653.33 602.13L654.22 607.34L659.43 606.46Z" fill="black"/>
<path d="M639.91 609.77L647.94 598.45L647.06 593.24L641.85 594.13L633.81 605.45L634.7 610.66L639.91 609.77Z" fill="black"/>
<path d="M628.44 601.77L627.55 596.56L622.34 597.44L614.31 608.76L615.19 613.97L620.4 613.09L628.44 601.77Z" fill="black"/>
<path d="M594.79 612.08L595.68 617.29L600.89 616.4L608.92 605.08L608.04 599.87L602.83 600.76L594.79 612.08Z" fill="black"/>
<path d="M583.32 604.07L575.29 615.39L576.17 620.6L581.38 619.72L589.42 608.39L588.53 603.18L583.32 604.07Z" fill="black"/>
<path d="M565.68 607.07L568.84 613.2L569.9 611.71L569.01 606.5L565.68 607.07Z" fill="black"/>
<path d="M712.95 577.62L710.99 568.95L708.24 572.83L709.17 578.26L712.95 577.62Z" fill="black"/>
<path d="M703.48 568.85L702.55 563.41L697.12 564.33L688.74 576.14L689.66 581.58L695.1 580.65L703.48 568.85Z" fill="black"/>
<path d="M675.58 583.97L683.96 572.16L683.04 566.73L677.6 567.65L669.22 579.46L670.15 584.89L675.58 583.97Z" fill="black"/>
<path d="M656.06 587.28L664.44 575.48L663.52 570.04L658.08 570.97L649.71 582.77L650.63 588.21L656.06 587.28Z" fill="black"/>
<path d="M644.94 578.79L644.01 573.36L638.58 574.28L630.2 586.09L631.12 591.52L636.56 590.6L644.94 578.79Z" fill="black"/>
<path d="M610.69 589.4L611.61 594.84L617.04 593.91L625.42 582.11L624.5 576.67L619.06 577.59L610.69 589.4Z" fill="black"/>
<path d="M591.18 592.72L592.1 598.15L597.54 597.23L605.92 585.42L604.99 579.98L599.56 580.91L591.18 592.72Z" fill="black"/>
<path d="M580.04 584.22L571.66 596.03L572.59 601.47L578.02 600.54L586.4 588.73L585.48 583.3L580.04 584.22Z" fill="black"/>
<path d="M560.54 587.54L557.69 591.55L561.71 599.35L566.9 592.05L565.97 586.61L560.54 587.54Z" fill="black"/>
<path d="M708.65 558.61L706.8 550.4L704.62 553.47L705.58 559.13L708.65 558.61Z" fill="black"/>
<path d="M691.73 561.48L700.46 549.18L699.5 543.52L693.83 544.48L685.1 556.78L686.07 562.44L691.73 561.48Z" fill="black"/>
<path d="M680.95 552.49L679.99 546.83L674.33 547.79L665.6 560.09L666.56 565.76L672.22 564.79L680.95 552.49Z" fill="black"/>
<path d="M652.71 568.11L661.44 555.81L660.47 550.14L654.81 551.11L646.08 563.41L647.04 569.07L652.71 568.11Z" fill="black"/>
<path d="M641.93 559.12L640.97 553.46L635.31 554.42L626.58 566.72L627.54 572.39L633.2 571.42L641.93 559.12Z" fill="black"/>
<path d="M615.79 557.74L607.06 570.04L608.02 575.7L613.69 574.74L622.42 562.44L621.45 556.77L615.79 557.74Z" fill="black"/>
<path d="M596.29 561.05L587.56 573.35L588.52 579.01L594.18 578.05L602.91 565.75L601.95 560.09L596.29 561.05Z" fill="black"/>
<path d="M576.77 564.36L568.04 576.67L569 582.33L574.66 581.37L583.39 569.07L582.43 563.4L576.77 564.36Z" fill="black"/>
<path d="M557.25 567.68L550.39 577.36L554.24 584.84L555.15 584.68L563.88 572.38L562.92 566.72L557.25 567.68Z" fill="black"/>
<path d="M702.6 531.85L701.01 534.1L702.01 539.99L704.35 539.59L702.6 531.85Z" fill="black"/>
<path d="M688.38 542.31L697.45 529.52L696.45 523.63L690.57 524.63L681.49 537.42L682.49 543.31L688.38 542.31Z" fill="black"/>
<path d="M668.87 545.62L677.95 532.83L676.95 526.94L671.06 527.94L661.99 540.73L662.99 546.62L668.87 545.62Z" fill="black"/>
<path d="M649.36 548.94L658.43 536.15L657.43 530.26L651.54 531.26L642.47 544.05L643.47 549.94L649.36 548.94Z" fill="black"/>
<path d="M638.92 539.46L637.92 533.57L632.03 534.57L622.95 547.36L623.95 553.25L629.84 552.25L638.92 539.46Z" fill="black"/>
<path d="M612.52 537.89L603.45 550.68L604.45 556.56L610.33 555.56L619.41 542.77L618.41 536.89L612.52 537.89Z" fill="black"/>
<path d="M593.01 541.2L583.93 553.99L584.93 559.88L590.82 558.88L599.89 546.09L598.89 540.2L593.01 541.2Z" fill="black"/>
<path d="M573.5 544.52L564.43 557.31L565.43 563.19L571.31 562.19L580.39 549.4L579.39 543.52L573.5 544.52Z" fill="black"/>
<path d="M553.99 547.83L544.91 560.62L545.91 566.51L551.8 565.51L560.87 552.72L559.87 546.83L553.99 547.83Z" fill="black"/>
<path d="M536.69 550.77L540.23 557.64L541.37 556.03L540.37 550.15L536.69 550.77Z" fill="black"/>
<path d="M697.37 514.74L698.41 520.86L700.05 520.58L698.4 513.29L697.37 514.74Z" fill="black"/>
<path d="M685.02 523.13L694.45 509.85L693.41 503.73L687.29 504.77L677.87 518.06L678.9 524.17L685.02 523.13Z" fill="black"/>
<path d="M667.78 508.09L658.35 521.37L659.39 527.49L665.5 526.45L674.93 513.16L673.89 507.05L667.78 508.09Z" fill="black"/>
<path d="M655.43 516.48L654.39 510.36L648.27 511.4L638.84 524.69L639.88 530.8L646 529.76L655.43 516.48Z" fill="black"/>
<path d="M628.76 514.72L619.33 528L620.37 534.12L626.48 533.08L635.91 519.79L634.87 513.68L628.76 514.72Z" fill="black"/>
<path d="M609.25 518.03L599.82 531.31L600.86 537.43L606.98 536.39L616.4 523.1L615.37 516.99L609.25 518.03Z" fill="black"/>
<path d="M589.73 521.34L580.31 534.63L581.35 540.74L587.46 539.71L596.89 526.42L595.85 520.31L589.73 521.34Z" fill="black"/>
<path d="M570.22 524.66L560.79 537.94L561.83 544.06L567.94 543.02L577.37 529.74L576.33 523.62L570.22 524.66Z" fill="black"/>
<path d="M550.71 527.97L541.29 541.26L542.32 547.37L548.44 546.33L557.87 533.05L556.83 526.93L550.71 527.97Z" fill="black"/>
<path d="M531.2 531.29L528.57 534.99L533.09 543.78L538.35 536.36L537.31 530.25L531.2 531.29Z" fill="black"/>
<path d="M695.76 501.58L694.21 494.75L693.76 495.39L694.84 501.73L695.76 501.58Z" fill="black"/>
<path d="M674.26 498.71L675.33 505.05L681.67 503.97L691.44 490.2L690.37 483.86L684.03 484.93L674.26 498.71Z" fill="black"/>
<path d="M654.74 502.02L655.82 508.36L662.15 507.28L671.93 493.51L670.85 487.17L664.51 488.25L654.74 502.02Z" fill="black"/>
<path d="M635.22 505.34L636.3 511.68L642.64 510.6L652.41 496.83L651.33 490.49L645 491.56L635.22 505.34Z" fill="black"/>
<path d="M615.72 508.65L616.79 514.99L623.13 513.91L632.91 500.14L631.83 493.8L625.49 494.88L615.72 508.65Z" fill="black"/>
<path d="M605.97 498.19L596.2 511.97L597.28 518.31L603.62 517.23L613.39 503.46L612.31 497.12L605.97 498.19Z" fill="black"/>
<path d="M586.47 501.51L576.7 515.28L577.77 521.62L584.11 520.54L593.88 506.77L592.81 500.43L586.47 501.51Z" fill="black"/>
<path d="M566.95 504.82L557.18 518.59L558.26 524.93L564.6 523.86L574.37 510.08L573.29 503.75L566.95 504.82Z" fill="black"/>
<path d="M547.45 508.14L537.67 521.91L538.75 528.25L545.09 527.17L554.86 513.4L553.79 507.06L547.45 508.14Z" fill="black"/>
<path d="M527.93 511.45L521.28 520.83L525.96 529.94L535.35 516.71L534.27 510.37L527.93 511.45Z" fill="black"/>
<path d="M691.46 482.56L690.66 479.03L691.26 482.6L691.46 482.56Z" fill="black"/>
<path d="M670.63 479.35L671.75 485.91L678.31 484.8L688.43 470.54L687.5 465.06L687.25 463.98L680.75 465.09L670.63 479.35Z" fill="black"/>
<path d="M651.13 482.66L652.24 489.22L658.8 488.11L668.92 473.85L667.81 467.29L661.24 468.4L651.13 482.66Z" fill="black"/>
<path d="M631.61 485.98L632.72 492.54L639.29 491.42L649.41 477.16L648.29 470.6L641.73 471.72L631.61 485.98Z" fill="black"/>
<path d="M612.1 489.29L613.22 495.85L619.78 494.74L629.9 480.48L628.79 473.92L622.22 475.03L612.1 489.29Z" fill="black"/>
<path d="M602.71 478.35L592.59 492.6L593.7 499.17L600.27 498.05L610.39 483.79L609.27 477.23L602.71 478.35Z" fill="black"/>
<path d="M583.2 481.66L573.08 495.92L574.2 502.48L580.76 501.37L590.88 487.11L589.77 480.54L583.2 481.66Z" fill="black"/>
<path d="M563.69 484.97L553.57 499.23L554.68 505.8L561.25 504.68L571.36 490.42L570.25 483.86L563.69 484.97Z" fill="black"/>
<path d="M544.17 488.29L534.05 502.55L535.17 509.11L541.73 508L551.85 493.74L550.73 487.17L544.17 488.29Z" fill="black"/>
<path d="M515.03 508.7L516.84 512.23L522.22 511.31L532.34 497.05L531.23 490.49L527.39 491.14L522.33 494.9L514.55 505.86L515.03 508.7Z" fill="black"/>
<path d="M667.01 459.98L668.16 466.78L674.95 465.62L684.56 452.08L682.81 444.32L677.48 445.23L667.01 459.98Z" fill="black"/>
<path d="M647.49 463.3L648.64 470.09L655.44 468.94L665.91 454.18L664.75 447.39L657.96 448.54L647.49 463.3Z" fill="black"/>
<path d="M627.99 466.61L629.14 473.4L635.93 472.25L646.4 457.5L645.25 450.7L638.46 451.86L627.99 466.61Z" fill="black"/>
<path d="M618.94 455.17L608.47 469.93L609.62 476.72L616.41 475.57L626.88 460.81L625.73 454.02L618.94 455.17Z" fill="black"/>
<path d="M599.43 458.49L588.96 473.24L590.12 480.03L596.91 478.88L607.38 464.12L606.23 457.33L599.43 458.49Z" fill="black"/>
<path d="M579.92 461.8L569.45 476.56L570.6 483.35L577.39 482.19L587.86 467.44L586.71 460.65L579.92 461.8Z" fill="black"/>
<path d="M563.09 464.66L558.12 468.34L549.94 479.87L551.1 486.66L557.89 485.51L568.36 470.75L567.2 463.96L563.09 464.66Z" fill="black"/>
<path d="M531.29 488.25L531.58 489.98L538.37 488.82L547.1 476.52L531.29 488.25Z" fill="black"/>
<path d="M663.64 440.49L664.8 447.32L671.63 446.16L680.42 433.77L678.42 424.93L674.17 425.65L663.64 440.49Z" fill="black"/>
<path d="M644.12 443.81L645.28 450.64L652.11 449.48L662.64 434.64L661.48 427.81L654.65 428.97L644.12 443.81Z" fill="black"/>
<path d="M641.97 431.12L635.15 432.28L624.62 447.12L625.78 453.95L632.61 452.79L643.14 437.95L641.98 431.13L641.97 431.14V431.12Z" fill="black"/>
<path d="M615.63 435.6L605.1 450.44L606.26 457.27L613.09 456.11L623.62 441.27L622.46 434.44L615.63 435.6Z" fill="black"/>
<path d="M602.95 437.75L598.29 438.54L594.27 441.53L585.6 453.75L586.76 460.58L593.59 459.42L604.12 444.58L602.96 437.76H602.95V437.75Z" fill="black"/>
<path d="M566.89 461.84L567.24 463.9L574.07 462.74L583.4 449.6L566.89 461.84Z" fill="black"/>
<path d="M660.32 420.99L661.48 427.82L668.32 426.66L676.28 415.44L674.05 405.61L670.85 406.15L660.32 420.99Z" fill="black"/>
<path d="M640.81 424.3L641.97 431.12V431.14L641.98 431.13L648.8 429.97L659.33 415.13L658.17 408.3L651.34 409.46L640.81 424.3Z" fill="black"/>
<path d="M639.82 418.45L638.66 411.62L633.38 412.51L630.51 414.65L621.3 427.62L622.46 434.45L629.29 433.29L639.82 418.45Z" fill="black"/>
<path d="M619.63 422.71L602.54 435.39L602.95 437.75V437.76H602.96L609.78 436.6L619.63 422.71Z" fill="black"/>
<path d="M666.73 387.78L657.01 401.47L658.17 408.3L665 407.14L672.13 397.1L669.68 386.27L668.49 386.47L666.73 387.78Z" fill="black"/>
<path d="M638.65 411.62L645.48 410.46L655.85 395.84L638.2 408.94L638.65 411.62Z" fill="black"/>
<path d="M57.93 5.72008L58.07 5.27008L57.34 3.83008L56.49 4.26008L57.93 5.72008Z" fill="black"/>
<path d="M84.9199 13.7401L84.0799 12.1001L82.4399 12.9301L80.9399 17.5301L81.7699 19.1701L83.4099 18.3401L84.9199 13.7401Z" fill="black"/>
<path d="M102.58 4.7899L101.74 3.1499L100.1 3.9799L98.59 8.5799L99.43 10.2299L101.07 9.3899L102.58 4.7899Z" fill="black"/>
<path d="M116.93 1L117.07 1.28L117.6 1.01C117.37 1.01 117.15 1.01 116.92 1H116.93Z" fill="black"/>
<path d="M94.12 31.1601L93.18 29.3101L91.33 30.2501L89.63 35.4301L90.57 37.2801L92.42 36.3401L94.12 31.1601Z" fill="black"/>
<path d="M108.99 21.3001L107.29 26.4801L108.23 28.3301L110.08 27.3901L111.77 22.2101L110.84 20.3601L108.99 21.3001Z" fill="black"/>
<path d="M129.42 13.2699L128.48 11.4199L126.63 12.3599L124.94 17.5299L125.88 19.3799L127.73 18.4499L129.42 13.2699Z" fill="black"/>
<path d="M143.53 10.4401L145.38 9.50008L146.47 6.18008C145.54 5.88008 144.6 5.60008 143.66 5.33008L142.59 8.59008L143.53 10.4401Z" fill="black"/>
<path d="M102.27 46.52L100.22 47.57L99.92 48.48L102.49 51.1L103.31 48.58L102.27 46.52Z" fill="black"/>
<path d="M119.08 45.3801L120.96 39.6301L119.92 37.5801L117.87 38.6201L115.99 44.3701L117.03 46.4201L119.08 45.3801Z" fill="black"/>
<path d="M138.62 30.6899L137.58 28.6299L135.53 29.6699L133.65 35.4199L134.69 37.4699L136.74 36.4299L138.62 30.6899Z" fill="black"/>
<path d="M156.27 21.7399L155.23 19.6899L153.17 20.7299L151.29 26.4699L152.33 28.5299L154.39 27.4899L156.27 21.7399Z" fill="black"/>
<path d="M169.99 19.58L172.04 18.54L172.25 17.89C171.29 17.32 170.34 16.76 169.37 16.22L168.94 17.52L169.98 19.57L169.99 19.58Z" fill="black"/>
<path d="M125.83 64.52L128.09 63.38L130.16 57.05L129.02 54.79L126.76 55.94L124.69 62.26L125.83 64.52Z" fill="black"/>
<path d="M142.34 53.3101L143.49 55.5701L145.75 54.4301L147.82 48.1101L146.67 45.8501L144.41 46.9901L142.34 53.3101Z" fill="black"/>
<path d="M165.47 39.1599L164.32 36.8999L162.06 38.0499L159.99 44.3699L161.14 46.6299L163.4 45.4799L165.47 39.1599Z" fill="black"/>
<path d="M183.12 30.2099L181.98 27.95L179.72 29.1L177.65 35.4199L178.79 37.68L181.05 36.5299L183.12 30.2099Z" fill="black"/>
<path d="M134.63 82.6L137.1 81.35L139.35 74.46L138.1 72L135.64 73.25L133.39 80.14L134.63 82.6Z" fill="black"/>
<path d="M152.28 73.65L154.74 72.41L157 65.5201L155.75 63.05L153.29 64.3L151.03 71.19L152.28 73.65Z" fill="black"/>
<path d="M174.66 56.5701L173.41 54.1101L170.95 55.3501L168.69 62.2401L169.94 64.7101L172.4 63.4601L174.66 56.5701Z" fill="black"/>
<path d="M192.3 47.6199L191.06 45.1599L188.59 46.4099L186.34 53.2999L187.59 55.7599L190.05 54.5099L192.3 47.6199Z" fill="black"/>
<path d="M205.24 46.8099L207.71 45.5599L209.45 40.2499L206.02 38.1799L204 44.3499L205.24 46.8099Z" fill="black"/>
<path d="M148.55 91.88L147.2 89.21L144.53 90.56L143.71 93.08L147.05 96.48L148.55 91.88Z" fill="black"/>
<path d="M161.09 91.76L163.75 90.4L166.2 82.94L164.85 80.27L162.18 81.62L159.73 89.09L161.09 91.76Z" fill="black"/>
<path d="M178.74 82.8101L181.41 81.4501L183.86 73.9901L182.5 71.3201L179.84 72.6701L177.39 80.1401L178.74 82.8101Z" fill="black"/>
<path d="M201.5 65.0399L200.15 62.3799L197.48 63.7299L195.04 71.1899L196.39 73.8599L199.06 72.5099L201.5 65.0399Z" fill="black"/>
<path d="M219.16 56.0899L217.81 53.4299L215.14 54.7799L212.7 62.2499L214.05 64.9099L216.72 63.5599L219.16 56.0899Z" fill="black"/>
<path d="M231.71 55.9699L233.81 54.8999L230.48 52.8999L230.35 53.2999L231.71 55.9699Z" fill="black"/>
<path d="M169.89 109.84L172.77 108.39L175.4 100.35L173.94 97.48L171.07 98.94L168.44 106.97L169.89 109.84Z" fill="black"/>
<path d="M187.54 100.9L190.41 99.44L193.04 91.41L191.59 88.54L188.72 89.99L186.09 98.03L187.54 100.9Z" fill="black"/>
<path d="M210.7 82.4601L209.25 79.5901L206.37 81.0401L203.74 89.0801L205.2 91.9501L208.07 90.4901L210.7 82.4601Z" fill="black"/>
<path d="M228.35 73.5199L226.89 70.6499L224.02 72.0999L221.39 80.1399L222.85 83.0099L225.72 81.5499L228.35 73.5199Z" fill="black"/>
<path d="M246.01 64.57L244.55 61.7L241.68 63.15L239.05 71.1899L240.5 74.06L243.38 72.6L246.01 64.57Z" fill="black"/>
<path d="M178.7 127.94L181.78 126.38L184.59 117.77L183.03 114.69L179.96 116.25L177.14 124.87L178.7 127.94Z" fill="black"/>
<path d="M196.35 119L199.42 117.44L202.24 108.83L200.68 105.75L197.6 107.31L194.79 115.92L196.35 119Z" fill="black"/>
<path d="M214 110.05L217.08 108.49L219.9 99.8801L218.34 96.8L215.26 98.36L212.44 106.97L214 110.05Z" fill="black"/>
<path d="M237.56 90.9301L236 87.8501L232.92 89.4101L230.1 98.0301L231.66 101.1L234.74 99.5401L237.56 90.9301Z" fill="black"/>
<path d="M255.2 81.9899L253.64 78.9099L250.57 80.4699L247.75 89.0799L249.31 92.1599L252.39 90.5999L255.2 81.9899Z" fill="black"/>
<path d="M266.97 83.2099L270.04 81.6499L271.4 77.4999L267.11 74.9199L265.41 80.1299L266.97 83.2099Z" fill="black"/>
<path d="M193.78 135.19L192.12 131.91L188.84 133.58L187.5 137.68L191.6 141.86L193.78 135.19Z" fill="black"/>
<path d="M205.15 137.09L208.43 135.42L211.44 126.25L209.78 122.96L206.5 124.63L203.49 133.81L205.15 137.09Z" fill="black"/>
<path d="M222.8 128.14L226.08 126.48L229.09 117.3L227.42 114.02L224.14 115.68L221.14 124.86L222.8 128.14Z" fill="black"/>
<path d="M240.46 119.19L243.74 117.53L246.74 108.35L245.08 105.07L241.8 106.73L238.8 115.91L240.46 119.19Z" fill="black"/>
<path d="M264.39 99.4099L262.73 96.1299L259.45 97.7899L256.44 106.97L258.11 110.25L261.39 108.59L264.39 99.4099Z" fill="black"/>
<path d="M282.05 90.4599L280.39 87.1799L277.11 88.8399L274.1 98.0199L275.76 101.3L279.04 99.6399L282.05 90.4599Z" fill="black"/>
<path d="M293.41 92.36L294.87 91.62L292.23 90.03L293.41 92.36Z" fill="black"/>
<path d="M202.98 152.61L201.21 149.13L199.56 149.96L202.78 153.24L202.98 152.61Z" fill="black"/>
<path d="M213.96 155.19L217.44 153.42L220.64 143.66L218.87 140.18L215.38 141.95L212.19 151.7L213.96 155.19Z" fill="black"/>
<path d="M231.61 146.24L235.1 144.47L238.3 134.72L236.53 131.23L233.04 133L229.85 142.75L231.61 146.24Z" fill="black"/>
<path d="M249.26 137.3L252.75 135.53L255.94 125.77L254.18 122.29L250.69 124.05L247.5 133.81L249.26 137.3Z" fill="black"/>
<path d="M273.6 116.82L271.83 113.34L268.35 115.1L265.15 124.86L266.92 128.35L270.41 126.58L273.6 116.82Z" fill="black"/>
<path d="M291.25 107.88L289.48 104.39L285.99 106.16L282.8 115.92L284.57 119.4L288.05 117.64L291.25 107.88Z" fill="black"/>
<path d="M300.46 106.97L302.23 110.46L305.71 108.69L308.6 99.8701L303.94 97.0701L303.65 97.2101L300.46 106.97Z" fill="black"/>
<path d="M222.75 173.27L226.44 171.4L229.82 161.08L227.95 157.39L224.26 159.26L220.88 169.58L222.75 173.27Z" fill="black"/>
<path d="M240.41 164.32L244.1 162.45L247.48 152.13L245.61 148.44L241.92 150.31L238.54 160.63L240.41 164.32Z" fill="black"/>
<path d="M258.06 155.38L261.74 153.51L265.12 143.18L263.25 139.49L259.57 141.36L256.19 151.69L258.06 155.38Z" fill="black"/>
<path d="M275.71 146.43L279.4 144.56L282.78 134.23L280.91 130.55L277.22 132.42L273.84 142.74L275.71 146.43Z" fill="black"/>
<path d="M294.87 123.47L291.49 133.8L293.36 137.49L297.05 135.62L300.43 125.29L298.56 121.6L294.87 123.47Z" fill="black"/>
<path d="M312.53 114.52L309.15 124.85L311.02 128.54L314.71 126.67L318.09 116.34L316.22 112.65L312.53 114.52Z" fill="black"/>
<path d="M328.68 119.59L332.37 117.72L333.34 114.75L328.2 111.65L326.81 115.9L328.68 119.59Z" fill="black"/>
<path d="M239.02 178.5L237.04 174.6L233.15 176.57L231.28 182.27L236.16 187.24L239.02 178.5Z" fill="black"/>
<path d="M249.21 182.42L253.11 180.45L256.68 169.55L254.7 165.65L250.81 167.63L247.24 178.53L249.21 182.42Z" fill="black"/>
<path d="M266.87 173.48L270.77 171.5L274.33 160.6L272.36 156.7L268.46 158.68L264.89 169.58L266.87 173.48Z" fill="black"/>
<path d="M284.52 164.53L288.41 162.56L291.98 151.65L290.01 147.76L286.11 149.73L282.54 160.64L284.52 164.53Z" fill="black"/>
<path d="M303.77 140.78L300.2 151.69L302.17 155.58L306.07 153.61L309.64 142.71L307.66 138.81L303.77 140.78Z" fill="black"/>
<path d="M321.42 131.84L317.85 142.74L319.82 146.64L323.72 144.66L327.29 133.76L325.31 129.87L321.42 131.84Z" fill="black"/>
<path d="M339.07 122.89L335.51 133.79L337.48 137.69L341.38 135.72L344.94 124.81L342.97 120.92L339.07 122.89Z" fill="black"/>
<path d="M355.94 128.34L354.47 127.46L355.13 128.75L355.94 128.34Z" fill="black"/>
<path d="M242.47 193.67L247.33 198.62L248.22 195.91L246.14 191.81L242.47 193.67Z" fill="black"/>
<path d="M265.86 186.97L263.79 182.87L259.69 184.95L255.93 196.42L258.01 200.52L262.11 198.44L265.86 186.97Z" fill="black"/>
<path d="M277.34 176L273.59 187.47L275.67 191.57L279.77 189.49L283.52 178.02L281.44 173.92L277.34 176Z" fill="black"/>
<path d="M294.99 167.05L291.24 178.52L293.31 182.62L297.41 180.55L301.17 169.08L299.09 164.98L294.99 167.05Z" fill="black"/>
<path d="M312.65 158.11L308.9 169.58L310.97 173.67L315.07 171.6L318.83 160.13L316.75 156.03L312.65 158.11Z" fill="black"/>
<path d="M330.3 149.16L326.54 160.63L328.62 164.73L332.72 162.65L336.47 151.18L334.4 147.08L330.3 149.16Z" fill="black"/>
<path d="M347.95 140.21L344.2 151.68L346.28 155.78L350.38 153.7L354.13 142.23L352.05 138.14L347.95 140.21Z" fill="black"/>
<path d="M363.94 146.83L368.03 144.76L370.54 137.12L364.82 133.68L361.86 142.73L363.94 146.83Z" fill="black"/>
<path d="M271.13 216.43L275.07 204.38L272.89 200.08L268.58 202.26L264.64 214.31L266.67 218.31L266.92 218.56L271.13 216.43Z" fill="black"/>
<path d="M286.23 193.32L282.29 205.36L284.47 209.67L288.78 207.49L292.72 195.44L290.54 191.13L286.23 193.32Z" fill="black"/>
<path d="M303.89 184.37L299.95 196.41L302.13 200.72L306.43 198.54L310.38 186.49L308.2 182.19L303.89 184.37Z" fill="black"/>
<path d="M321.54 175.42L317.59 187.47L319.78 191.78L324.08 189.59L328.02 177.55L325.84 173.24L321.54 175.42Z" fill="black"/>
<path d="M339.2 166.47L335.25 178.52L337.43 182.83L341.74 180.65L345.68 168.6L343.5 164.29L339.2 166.47Z" fill="black"/>
<path d="M355.08 173.88L359.39 171.7L363.33 159.65L361.15 155.35L356.84 157.53L352.9 169.58L355.08 173.88Z" fill="black"/>
<path d="M377.04 162.75L380.99 150.71L378.81 146.4L374.5 148.58L370.56 160.63L372.74 164.93L377.04 162.75Z" fill="black"/>
<path d="M390.39 155.99L394.69 153.81L395.28 152L389.28 148.39L388.2 151.69L390.39 155.99Z" fill="black"/>
<path d="M277.47 219.58L275.08 226.88L280.72 232.62L284.26 221.8L281.97 217.3L277.47 219.58Z" fill="black"/>
<path d="M295.11 210.64L290.98 223.25L293.27 227.76L297.78 225.48L301.91 212.86L299.62 208.35L295.11 210.64Z" fill="black"/>
<path d="M312.77 201.69L308.64 214.3L310.93 218.81L315.43 216.53L319.56 203.91L317.28 199.4L312.77 201.69Z" fill="black"/>
<path d="M330.42 192.75L326.29 205.36L328.57 209.87L333.08 207.58L337.21 194.97L334.93 190.46L330.42 192.75Z" fill="black"/>
<path d="M348.08 183.8L343.95 196.41L346.23 200.92L350.74 198.63L354.87 186.02L352.58 181.51L348.08 183.8Z" fill="black"/>
<path d="M365.73 174.85L361.61 187.46L363.89 191.97L368.4 189.69L372.53 177.07L370.24 172.56L365.73 174.85Z" fill="black"/>
<path d="M383.38 165.9L379.25 178.52L381.54 183.03L386.05 180.74L390.17 168.13L387.89 163.62L383.38 165.9Z" fill="black"/>
<path d="M403.7 171.79L407.73 159.48L402.39 156.27L401.04 156.95L396.91 169.57L399.19 174.08L403.7 171.79Z" fill="black"/>
<path d="M416.72 164.89L416.84 165.13L417 165.06L416.72 164.89Z" fill="black"/>
<path d="M285.99 237.99L291.89 243.99L293.45 239.21L291.06 234.5L286.35 236.89L285.99 237.99Z" fill="black"/>
<path d="M299.69 241.13L302.08 245.85L306.79 243.46L311.11 230.27L308.72 225.55L304.01 227.94L299.69 241.13Z" fill="black"/>
<path d="M321.65 219L317.34 232.19L319.73 236.9L324.44 234.51L328.76 221.32L326.37 216.61L321.65 219Z" fill="black"/>
<path d="M339.31 210.05L334.99 223.24L337.38 227.95L342.1 225.57L346.42 212.37L344.03 207.66L339.31 210.05Z" fill="black"/>
<path d="M352.64 214.3L355.03 219.01L359.74 216.62L364.06 203.43L361.67 198.71L356.96 201.1L352.64 214.3Z" fill="black"/>
<path d="M370.3 205.35L372.69 210.06L377.4 207.67L381.72 194.48L379.33 189.77L374.62 192.16L370.3 205.35Z" fill="black"/>
<path d="M387.95 196.4L390.34 201.12L395.05 198.73L399.37 185.54L396.98 180.82L392.26 183.21L387.95 196.4Z" fill="black"/>
<path d="M407.99 192.17L412.71 189.78L417.03 176.59L414.64 171.87L409.92 174.26L405.6 187.45L407.99 192.17Z" fill="black"/>
<path d="M425.64 183.23L430.36 180.84L432.47 174.36L425.9 170.41L423.25 178.51L425.64 183.23Z" fill="black"/>
<path d="M299.7 251.95L300.87 253.14L300.15 251.72L299.7 251.95Z" fill="black"/>
<path d="M315.79 261.45L320.3 247.69L317.8 242.77L312.89 245.26L308.38 259.02L310.24 262.69L311.27 263.74L315.79 261.45Z" fill="black"/>
<path d="M326.03 250.08L328.52 255L333.44 252.5L337.94 238.74L335.45 233.83L330.54 236.32L326.03 250.08Z" fill="black"/>
<path d="M348.19 227.37L343.69 241.13L346.18 246.05L351.1 243.55L355.6 229.79L353.11 224.88L348.19 227.37Z" fill="black"/>
<path d="M361.35 232.18L363.84 237.1L368.76 234.61L373.26 220.85L370.77 215.93L365.85 218.42L361.35 232.18Z" fill="black"/>
<path d="M383.5 209.48L378.99 223.24L381.49 228.15L386.4 225.66L390.91 211.9L388.42 206.98L383.5 209.48Z" fill="black"/>
<path d="M396.65 214.29L399.14 219.2L404.06 216.71L408.57 202.95L406.07 198.04L401.16 200.53L396.65 214.29Z" fill="black"/>
<path d="M421.71 207.77L426.21 194.01L423.72 189.09L418.8 191.58L414.3 205.34L416.79 210.26L421.71 207.77Z" fill="black"/>
<path d="M434.45 201.31L439.37 198.82L443.87 185.06L441.38 180.14L436.46 182.64L431.96 196.4L434.45 201.31Z" fill="black"/>
<path d="M452.1 192.37L457.01 189.88L457.22 189.24L450.37 185.12L449.6 187.45L452.1 192.37Z" fill="black"/>
<path d="M321.78 262.58L318.87 271.47L325.28 278L329.5 265.11L326.9 259.98L321.78 262.58Z" fill="black"/>
<path d="M339.43 253.63L334.74 267.97L337.34 273.09L342.46 270.5L347.15 256.16L344.56 251.03L339.43 253.63Z" fill="black"/>
<path d="M352.39 259.02L354.98 264.15L360.11 261.55L364.8 247.21L362.2 242.09L357.08 244.69L352.39 259.02Z" fill="black"/>
<path d="M370.05 250.08L372.64 255.2L377.77 252.6L382.46 238.27L379.86 233.14L374.74 235.74L370.05 250.08Z" fill="black"/>
<path d="M387.69 241.13L390.29 246.26L395.41 243.66L400.11 229.32L397.51 224.2L392.39 226.79L387.69 241.13Z" fill="black"/>
<path d="M405.35 232.18L407.95 237.31L413.07 234.71L417.76 220.37L415.17 215.25L410.04 217.85L405.35 232.18Z" fill="black"/>
<path d="M435.41 211.43L432.81 206.31L427.69 208.9L423 223.24L425.6 228.36L430.72 225.77L435.41 211.43Z" fill="black"/>
<path d="M453.07 202.48L450.47 197.36L445.35 199.95L440.66 214.29L443.25 219.41L448.38 216.82L453.07 202.48Z" fill="black"/>
<path d="M469.68 196.74L462.54 192.44L458.31 205.34L460.91 210.47L466.03 207.87L469.68 196.74Z" fill="black"/>
<path d="M329.78 282.59L336.44 289.37L338.68 282.53L335.98 277.2L330.66 279.9L329.78 282.59Z" fill="black"/>
<path d="M348.31 270.95L343.44 285.86L346.14 291.18L351.46 288.48L356.34 273.58L353.64 268.25L348.31 270.95Z" fill="black"/>
<path d="M361.08 276.91L363.78 282.24L369.11 279.54L373.99 264.64L371.29 259.31L365.96 262.01L361.08 276.91Z" fill="black"/>
<path d="M386.77 270.59L391.65 255.69L388.95 250.36L383.62 253.06L378.74 267.96L381.44 273.29L386.77 270.59Z" fill="black"/>
<path d="M409.3 246.74L406.6 241.41L401.28 244.11L396.4 259.02L399.1 264.34L404.42 261.64L409.3 246.74Z" fill="black"/>
<path d="M426.95 237.79L424.25 232.47L418.93 235.17L414.05 250.07L416.75 255.4L422.07 252.7L426.95 237.79Z" fill="black"/>
<path d="M439.73 243.75L444.61 228.85L441.91 223.52L436.58 226.22L431.7 241.12L434.4 246.45L439.73 243.75Z" fill="black"/>
<path d="M457.38 234.81L462.26 219.9L459.56 214.58L454.23 217.27L449.35 232.18L452.05 237.51L457.38 234.81Z" fill="black"/>
<path d="M475.04 225.86L479.91 210.95L477.21 205.63L471.89 208.33L467.01 223.23L469.71 228.56L475.04 225.86Z" fill="black"/>
<path d="M494.42 211.61L486.99 207.15L484.66 214.29L487.36 219.61L492.68 216.91L494.42 211.61Z" fill="black"/>
<path d="M342.62 295.66L347.62 300.76L347.89 299.94L345.09 294.41L342.62 295.66Z" fill="black"/>
<path d="M352.13 303.75L353.81 307.06L355.64 308.93L360.47 306.48L365.54 291L362.74 285.47L357.2 288.27L352.13 303.75Z" fill="black"/>
<path d="M369.79 294.8L372.6 300.34L378.13 297.53L383.2 282.05L380.39 276.52L374.86 279.32L369.79 294.8Z" fill="black"/>
<path d="M400.84 273.11L398.04 267.57L392.51 270.38L387.44 285.86L390.24 291.39L395.78 288.59L400.84 273.11Z" fill="black"/>
<path d="M413.43 279.64L418.5 264.16L415.7 258.63L410.17 261.43L405.1 276.91L407.9 282.44L413.43 279.64Z" fill="black"/>
<path d="M436.15 255.21L433.35 249.68L427.81 252.49L422.75 267.97L425.55 273.5L431.08 270.7L436.15 255.21Z" fill="black"/>
<path d="M453.81 246.27L451 240.73L445.47 243.54L440.4 259.02L443.21 264.55L448.74 261.75L453.81 246.27Z" fill="black"/>
<path d="M471.46 237.32L468.66 231.78L463.13 234.59L458.06 250.07L460.86 255.6L466.4 252.8L471.46 237.32Z" fill="black"/>
<path d="M484.04 243.85L489.11 228.37L486.31 222.84L480.78 225.64L475.71 241.13L478.51 246.66L484.04 243.85Z" fill="black"/>
<path d="M506.77 219.42L506.49 218.87L500.84 215.47L498.43 216.7L493.37 232.18L496.17 237.71L501.7 234.91L506.77 219.42Z" fill="black"/>
<path d="M518.77 226.26L511.46 221.86L511.01 223.23L513.82 228.77L518.77 226.26Z" fill="black"/>
<path d="M371.81 302.68L366.08 305.58L362.65 316.06L369.82 323.37L374.72 308.41L371.81 302.68Z" fill="black"/>
<path d="M392.38 299.46L389.47 293.73L383.74 296.63L378.48 312.68L381.39 318.42L387.13 315.51L392.38 299.46Z" fill="black"/>
<path d="M410.04 290.51L407.13 284.78L401.39 287.68L396.14 303.73L399.05 309.47L404.78 306.56L410.04 290.51Z" fill="black"/>
<path d="M427.68 281.57L424.78 275.83L419.04 278.74L413.79 294.79L416.69 300.53L422.43 297.62L427.68 281.57Z" fill="black"/>
<path d="M440.09 288.67L445.34 272.62L442.43 266.88L436.7 269.79L431.45 285.84L434.35 291.58L440.09 288.67Z" fill="black"/>
<path d="M457.74 279.73L462.99 263.68L460.08 257.94L454.35 260.85L449.09 276.9L452 282.63L457.74 279.73Z" fill="black"/>
<path d="M475.39 270.78L480.65 254.73L477.74 248.99L472 251.9L466.75 267.95L469.66 273.68L475.39 270.78Z" fill="black"/>
<path d="M498.29 245.78L495.39 240.05L489.65 242.96L484.4 259.01L487.31 264.74L493.04 261.83L498.29 245.78Z" fill="black"/>
<path d="M510.7 252.88L515.95 236.84L513.05 231.1L507.31 234.01L502.06 250.06L504.96 255.79L510.7 252.88Z" fill="black"/>
<path d="M528.35 243.94L531.61 233.98L523.61 229.17L519.7 241.11L522.61 246.85L528.35 243.94Z" fill="black"/>
<path d="M374.97 322.9L373.57 327.18L381 334.75L383.92 325.83L380.91 319.89L374.97 322.9Z" fill="black"/>
<path d="M401.57 316.88L398.56 310.94L392.62 313.95L387.18 330.57L390.19 336.51L396.13 333.5L401.57 316.88Z" fill="black"/>
<path d="M413.78 324.55L419.22 307.93L416.21 302L410.28 305.01L404.84 321.62L407.85 327.56L413.78 324.55Z" fill="black"/>
<path d="M436.87 298.99L433.86 293.05L427.92 296.06L422.48 312.68L425.49 318.62L431.43 315.61L436.87 298.99Z" fill="black"/>
<path d="M454.53 290.04L451.52 284.1L445.58 287.11L440.14 303.73L443.15 309.67L449.09 306.66L454.53 290.04Z" fill="black"/>
<path d="M472.18 281.1L469.17 275.16L463.23 278.17L457.79 294.79L460.8 300.72L466.74 297.72L472.18 281.1Z" fill="black"/>
<path d="M484.39 288.77L489.83 272.15L486.82 266.21L480.89 269.22L475.45 285.84L478.46 291.78L484.39 288.77Z" fill="black"/>
<path d="M507.49 263.2L504.48 257.26L498.54 260.27L493.1 276.89L496.11 282.83L502.05 279.82L507.49 263.2Z" fill="black"/>
<path d="M519.7 270.87L525.14 254.26L522.13 248.32L516.19 251.33L510.75 267.95L513.76 273.88L519.7 270.87Z" fill="black"/>
<path d="M542.8 245.31L539.79 239.37L533.85 242.38L528.41 259L531.42 264.93L537.36 261.92L542.8 245.31Z" fill="black"/>
<path d="M556.35 248.86L548.08 243.88L546.06 250.05L549.07 255.99L555 252.98L556.35 248.86Z" fill="black"/>
<path d="M385.53 339.37L392.17 346.13L393.12 343.25L390 337.1L385.53 339.37Z" fill="black"/>
<path d="M410.77 334.3L407.66 328.15L401.52 331.27L395.89 348.46L397.41 351.46L400 354.1L405.15 351.49L410.77 334.3Z" fill="black"/>
<path d="M428.42 325.35L425.31 319.21L419.16 322.32L413.54 339.52L416.65 345.66L422.79 342.55L428.42 325.35Z" fill="black"/>
<path d="M440.45 333.6L446.08 316.41L442.97 310.26L436.82 313.37L431.19 330.57L434.31 336.71L440.45 333.6Z" fill="black"/>
<path d="M458.1 324.66L463.73 307.46L460.61 301.32L454.47 304.43L448.84 321.63L451.95 327.77L458.1 324.66Z" fill="black"/>
<path d="M475.76 315.71L481.38 298.51L478.27 292.37L472.13 295.48L466.5 312.68L469.61 318.82L475.76 315.71Z" fill="black"/>
<path d="M499.03 289.57L495.92 283.42L489.77 286.54L484.15 303.73L487.26 309.88L493.4 306.76L499.03 289.57Z" fill="black"/>
<path d="M511.06 297.81L516.69 280.62L513.58 274.48L507.43 277.59L501.8 294.78L504.92 300.93L511.06 297.81Z" fill="black"/>
<path d="M528.71 288.87L534.34 271.68L531.22 265.53L525.08 268.65L519.45 285.84L522.56 291.99L528.71 288.87Z" fill="black"/>
<path d="M546.37 279.92L552 262.73L548.88 256.58L542.74 259.7L537.11 276.89L540.22 283.04L546.37 279.92Z" fill="black"/>
<path d="M564.01 270.98L568.8 256.34L560.24 251.19L554.76 267.95L557.87 274.09L564.01 270.98Z" fill="black"/>
<path d="M579.82 262.97L572.55 258.59L572.41 259L575.53 265.14L579.82 262.97Z" fill="black"/>
<path d="M419.77 351.91L416.63 345.73L410.45 348.87L406.56 360.78L414.29 368.65L419.77 351.91Z" fill="black"/>
<path d="M425.58 363.39L431.75 360.27L437.41 342.97L434.28 336.79L428.1 339.92L422.44 357.22L425.57 363.39L425.58 363.38V363.39Z" fill="black"/>
<path d="M443.23 354.45L449.41 351.32L455.07 334.02L451.94 327.84L445.76 330.97L440.1 348.27L443.23 354.44V354.45Z" fill="black"/>
<path d="M460.89 345.5L467.06 342.37L472.72 325.08L469.59 318.9L463.41 322.03L457.75 339.32L460.87 345.49H460.88L460.89 345.5Z" fill="black"/>
<path d="M484.72 333.42L490.38 316.13L487.24 309.95L481.06 313.08L475.4 330.38L478.54 336.56L484.72 333.42Z" fill="black"/>
<path d="M502.41 324.33L508.02 307.19L504.89 301.01L498.71 304.14L493.05 321.43L496.18 327.6H496.19V327.61L501.77 324.78L502.41 324.33Z" fill="black"/>
<path d="M525.68 298.24L522.55 292.06L516.37 295.19L510.71 312.48L512.95 316.91L521.55 310.85L525.68 298.24Z" fill="black"/>
<path d="M543.34 289.29L540.21 283.11L534.03 286.24L528.37 303.53L529.31 305.39L540.7 297.37L543.34 289.29Z" fill="black"/>
<path d="M560.99 280.34L557.86 274.16L551.67 277.3L546.43 293.33L559.82 283.9L560.99 280.34Z" fill="black"/>
<path d="M575.51 265.22L569.33 268.35L565.57 279.85L578.36 270.84L575.51 265.22Z" fill="black"/>
<path d="M585.06 266.12L584.83 265.98L584.7 266.38L585.06 266.12Z" fill="black"/>
<path d="M425.58 363.39V363.38L425.57 363.39L419.4 366.51L417.59 372.02L424.58 379.14L425.87 378.23L428.71 369.56L425.58 363.39Z" fill="black"/>
<path d="M446.36 360.62L443.23 354.45V354.44L437.05 357.57L431.6 374.19L445 364.76L446.36 360.62Z" fill="black"/>
<path d="M460.89 345.5L460.88 345.49H460.87L454.7 348.62L450.75 360.71L463.9 351.45L460.89 345.5Z" fill="black"/>
<path d="M478.53 336.55L472.35 339.68L469.87 347.24L480.25 339.94L478.53 336.55Z" fill="black"/>
<path d="M496.18 327.6L490.01 330.73L489.02 333.76L496.6 328.42L496.19 327.61V327.6H496.18Z" fill="black"/>
<path d="M510.49 504.09L751.59 972.28L770.98 921.05C778.26 901.82 779.42 879.09 774.27 856.42L668.14 387.15L510.5 504.09H510.49Z" stroke="black" stroke-width="3" stroke-miterlimit="10"/>
<path d="M423.17 380.6L54.21 4.84006L108.93 2.49006C129.48 1.61006 151.42 7.64006 171.33 19.6401L583.65 267.59L423.17 380.61V380.6Z" stroke="black" stroke-width="3" stroke-miterlimit="10"/>
<path d="M898.37 128.26C895.92 124.72 892.53 121.9 888.53 120.3C854.03 106.46 790.84 119 764.39 137.68L208.91 532.29L207.58 531.37L95.5 479.38C83.78 476.73 57.39 456.71 46.78 461.4L3 484.56L188.02 637.7L189.39 639.85L279.05 869.15L314.78 834.84C322.57 826.23 311.83 794.9 312.99 782.93L298.77 660.2L298.31 658.65L847.23 254.95C874.46 234.81 907.92 174.37 902.12 137.51C901.6 134.18 900.3 131.02 898.38 128.26H898.37Z" fill="black" stroke="white" stroke-width="3" stroke-miterlimit="10"/>
</svg>
