<svg width="1047" height="964" viewBox="0 0 1047 964" fill="none" xmlns="http://www.w3.org/2000/svg">
<path d="M595.108 21.9828C594.948 21.9228 594.798 21.8828 594.638 21.8328C597.548 23.1928 598.968 26.5828 597.828 29.6328C596.678 32.6928 593.388 34.3128 590.298 33.4228C590.448 33.4928 590.598 33.5628 590.748 33.6228C593.958 34.8228 597.548 33.1928 598.748 29.9828C599.948 26.7728 598.318 23.1828 595.108 21.9828Z" fill="black"/>
<path d="M653.671 55.2644C656.797 53.8421 658.179 50.1541 656.757 47.0272C655.334 43.9003 651.647 42.5186 648.52 43.9409C645.393 45.3633 644.011 49.0512 645.433 52.1781C646.856 55.305 650.544 56.6868 653.671 55.2644Z" fill="black"/>
<path d="M714.908 73.9087C716.308 70.7717 714.9 67.0938 711.763 65.6938C708.626 64.2939 704.948 65.702 703.548 68.839C702.148 71.976 703.556 75.6539 706.693 77.0539C709.83 78.4539 713.508 77.0457 714.908 73.9087Z" fill="black"/>
<path d="M761.648 91.0127C760.448 94.2227 762.078 97.8127 765.288 99.0127C766.898 99.6127 768.608 99.5027 770.058 98.8427C767.318 96.1727 764.508 93.5527 761.658 90.9827C761.658 90.9927 761.658 91.0027 761.648 91.0127Z" fill="black"/>
<path d="M574.108 78.0028C573.948 77.9428 573.798 77.9028 573.638 77.8528C577.728 79.6628 579.758 84.3628 578.168 88.6128C576.578 92.8528 571.958 95.0728 567.688 93.7428C567.838 93.8128 567.988 93.8828 568.138 93.9428C572.538 95.5928 577.438 93.3628 579.088 88.9628C580.738 84.5628 578.508 79.6628 574.108 78.0128V78.0028Z" fill="black"/>
<path d="M632.288 99.8028C627.888 98.1528 622.988 100.383 621.338 104.783C619.688 109.183 621.918 114.083 626.318 115.733C630.718 117.383 635.618 115.153 637.268 110.753C638.918 106.353 636.688 101.453 632.288 99.8028Z" fill="black"/>
<path d="M690.468 121.603C686.068 119.953 681.168 122.183 679.518 126.583C677.868 130.983 680.098 135.883 684.498 137.533C688.898 139.183 693.798 136.953 695.448 132.553C697.098 128.153 694.868 123.253 690.468 121.603Z" fill="black"/>
<path d="M748.658 143.403C744.258 141.753 739.358 143.983 737.708 148.383C736.058 152.783 738.288 157.683 742.688 159.333C747.088 160.983 751.988 158.753 753.638 154.353C755.288 149.953 753.058 145.053 748.658 143.403Z" fill="black"/>
<path d="M806.848 165.203C802.448 163.553 797.548 165.783 795.898 170.183C794.248 174.583 796.478 179.483 800.878 181.133C805.278 182.783 810.178 180.553 811.828 176.153C813.478 171.753 811.248 166.853 806.848 165.203Z" fill="black"/>
<path d="M870.194 197.389C871.533 192.884 868.966 188.146 864.461 186.807C859.956 185.469 855.218 188.036 853.879 192.541C852.541 197.046 855.107 201.784 859.613 203.122C864.118 204.461 868.855 201.894 870.194 197.389Z" fill="black"/>
<path d="M923.228 208.803C918.828 207.153 913.928 209.383 912.278 213.783C910.628 218.183 912.858 223.083 917.258 224.733C921.658 226.383 926.558 224.153 928.208 219.753C929.858 215.353 927.628 210.453 923.228 208.803Z" fill="black"/>
<path d="M970.438 235.583C968.788 239.983 971.018 244.883 975.418 246.533C979.818 248.183 984.718 245.953 986.368 241.553C986.828 240.333 986.978 239.063 986.868 237.843C984.908 235.353 982.908 232.873 980.848 230.433C976.588 229.143 972.008 231.363 970.428 235.583H970.438Z" fill="black"/>
<path d="M558.518 147.603C556.478 153.033 550.538 155.853 545.078 154.073C545.228 154.133 545.368 154.213 545.528 154.263C551.118 156.353 557.338 153.523 559.438 147.933C561.528 142.343 558.698 136.123 553.108 134.023C552.958 133.963 552.798 133.923 552.648 133.873C557.928 136.123 560.568 142.153 558.528 147.583L558.518 147.603Z" fill="black"/>
<path d="M616.74 171.497C619.811 166.383 618.156 159.748 613.042 156.677C607.929 153.606 601.294 155.262 598.223 160.375C595.152 165.488 596.808 172.123 601.921 175.194C607.034 178.265 613.669 176.61 616.74 171.497Z" fill="black"/>
<path d="M669.478 177.643C663.888 175.553 657.668 178.383 655.568 183.973C653.468 189.563 656.308 195.783 661.898 197.883C667.488 199.973 673.708 197.143 675.808 191.553C677.908 185.963 675.068 179.743 669.478 177.643Z" fill="black"/>
<path d="M733.109 215.088C736.18 209.975 734.525 203.34 729.412 200.269C724.298 197.198 717.664 198.853 714.592 203.966C711.521 209.08 713.177 215.715 718.29 218.786C723.403 221.857 730.038 220.201 733.109 215.088Z" fill="black"/>
<path d="M786.533 241.195C791.962 238.726 794.361 232.322 791.891 226.893C789.422 221.464 783.018 219.064 777.589 221.534C772.16 224.004 769.76 230.407 772.23 235.837C774.7 241.266 781.103 243.665 786.533 241.195Z" fill="black"/>
<path d="M844.038 243.043C838.448 240.953 832.228 243.783 830.128 249.373C828.038 254.963 830.868 261.183 836.458 263.283C842.048 265.373 848.268 262.543 850.368 256.953C852.458 251.363 849.628 245.143 844.038 243.043Z" fill="black"/>
<path d="M902.228 264.843C896.638 262.753 890.418 265.583 888.318 271.173C886.218 276.763 889.058 282.983 894.648 285.083C900.238 287.173 906.458 284.343 908.558 278.753C910.648 273.163 907.818 266.943 902.228 264.843Z" fill="black"/>
<path d="M963.888 304.74C968.296 300.722 968.613 293.891 964.594 289.483C960.576 285.075 953.745 284.759 949.337 288.777C944.929 292.795 944.613 299.626 948.631 304.034C952.649 308.442 959.48 308.758 963.888 304.74Z" fill="black"/>
<path d="M1018.59 308.443C1013 306.353 1006.78 309.183 1004.68 314.773C1002.58 320.363 1005.42 326.583 1011.01 328.683C1016.6 330.773 1022.82 327.943 1024.92 322.353C1027.01 316.763 1024.18 310.543 1018.59 308.443Z" fill="black"/>
<path d="M532.108 190.073C531.958 190.013 531.798 189.973 531.648 189.923C538.118 192.623 541.348 199.973 538.868 206.593C536.388 213.213 529.128 216.623 522.468 214.413C522.618 214.473 522.758 214.553 522.918 214.603C529.688 217.143 537.238 213.703 539.778 206.933C542.318 200.163 538.878 192.613 532.108 190.073Z" fill="black"/>
<path d="M596.167 232.069C600.529 226.297 599.386 218.082 593.614 213.72C587.842 209.357 579.627 210.5 575.264 216.272C570.902 222.044 572.045 230.26 577.817 234.622C583.589 238.984 591.804 237.841 596.167 232.069Z" fill="black"/>
<path d="M643.888 259.043C651.123 259.043 656.988 253.178 656.988 245.943C656.988 238.708 651.123 232.843 643.888 232.843C636.653 232.843 630.788 238.708 630.788 245.943C630.788 253.178 636.653 259.043 643.888 259.043Z" fill="black"/>
<path d="M702.078 280.843C709.313 280.843 715.178 274.978 715.178 267.743C715.178 260.508 709.313 254.643 702.078 254.643C694.843 254.643 688.978 260.508 688.978 267.743C688.978 274.978 694.843 280.843 702.078 280.843Z" fill="black"/>
<path d="M765.685 301.483C772.271 298.487 775.181 290.72 772.186 284.135C769.19 277.549 761.423 274.639 754.837 277.634C748.252 280.63 745.341 288.397 748.337 294.983C751.333 301.568 759.1 304.479 765.685 301.483Z" fill="black"/>
<path d="M828.337 319.939C833.084 314.478 832.505 306.204 827.045 301.458C821.585 296.711 813.31 297.29 808.564 302.75C803.817 308.21 804.396 316.485 809.856 321.231C815.316 325.978 823.591 325.399 828.337 319.939Z" fill="black"/>
<path d="M881.228 320.883C874.458 318.343 866.908 321.783 864.368 328.553C861.828 335.323 865.268 342.873 872.038 345.413C878.808 347.953 886.358 344.513 888.898 337.743C891.438 330.973 887.998 323.423 881.228 320.883Z" fill="black"/>
<path d="M939.408 342.683C932.638 340.143 925.088 343.583 922.548 350.353C920.008 357.123 923.448 364.673 930.218 367.213C936.988 369.753 944.538 366.313 947.078 359.543C949.618 352.773 946.178 345.223 939.408 342.683Z" fill="black"/>
<path d="M997.588 364.483C990.818 361.943 983.268 365.383 980.728 372.153C978.188 378.923 981.628 386.473 988.398 389.013C995.168 391.553 1002.72 388.113 1005.26 381.343C1007.8 374.573 1004.36 367.023 997.588 364.483Z" fill="black"/>
<path d="M1038.92 393.953C1036.49 400.423 1039.53 407.593 1045.72 410.433C1046.02 402.543 1045.92 394.653 1045.44 386.793C1042.54 388.213 1040.14 390.693 1038.92 393.953Z" fill="black"/>
<path d="M519.208 265.583C516.288 273.393 507.698 277.403 499.858 274.743C500.008 274.803 500.148 274.883 500.308 274.933C508.268 277.913 517.138 273.883 520.118 265.923C523.098 257.963 519.068 249.093 511.108 246.113C510.958 246.053 510.798 246.013 510.648 245.963C518.308 249.113 522.138 257.773 519.218 265.583H519.208Z" fill="black"/>
<path d="M570.272 296.349C578.008 292.83 581.427 283.705 577.908 275.968C574.389 268.231 565.264 264.812 557.527 268.332C549.79 271.851 546.371 280.976 549.89 288.713C553.41 296.449 562.535 299.868 570.272 296.349Z" fill="black"/>
<path d="M623.8 319.413C632.247 318.471 638.332 310.86 637.39 302.413C636.449 293.965 628.838 287.881 620.39 288.822C611.943 289.764 605.858 297.375 606.8 305.822C607.741 314.27 615.353 320.354 623.8 319.413Z" fill="black"/>
<path d="M683.138 341.014C691.49 339.437 696.983 331.389 695.406 323.036C693.829 314.684 685.78 309.192 677.428 310.768C669.076 312.345 663.583 320.394 665.16 328.746C666.737 337.098 674.786 342.591 683.138 341.014Z" fill="black"/>
<path d="M741.322 362.812C749.674 361.235 755.166 353.186 753.59 344.834C752.013 336.482 743.964 330.989 735.612 332.566C727.26 334.143 721.767 342.192 723.344 350.544C724.921 358.896 732.97 364.389 741.322 362.812Z" fill="black"/>
<path d="M796.648 384.923C805.148 384.923 812.038 378.032 812.038 369.533C812.038 361.033 805.148 354.143 796.648 354.143C788.149 354.143 781.258 361.033 781.258 369.533C781.258 378.032 788.149 384.923 796.648 384.923Z" fill="black"/>
<path d="M840.408 385.933C837.428 393.893 841.458 402.763 849.418 405.743C857.378 408.723 866.248 404.693 869.228 396.733C872.208 388.773 868.178 379.903 860.218 376.923C852.258 373.943 843.388 377.973 840.408 385.933Z" fill="black"/>
<path d="M898.598 407.733C895.618 415.693 899.648 424.563 907.608 427.543C915.568 430.523 924.438 426.493 927.418 418.533C930.398 410.573 926.368 401.703 918.408 398.723C910.448 395.743 901.578 399.773 898.598 407.733Z" fill="black"/>
<path d="M956.788 429.533C953.808 437.493 957.838 446.363 965.798 449.343C973.758 452.323 982.628 448.293 985.608 440.333C988.588 432.373 984.558 423.503 976.598 420.523C968.638 417.543 959.768 421.573 956.788 429.533Z" fill="black"/>
<path d="M1034.78 442.323C1026.82 439.343 1017.95 443.373 1014.97 451.333C1011.99 459.293 1016.02 468.163 1023.98 471.143C1027.87 472.603 1031.97 472.373 1035.5 470.843C1037.9 463.003 1039.87 455.103 1041.43 447.173C1039.75 445.053 1037.5 443.333 1034.79 442.323H1034.78Z" fill="black"/>
<path d="M490.108 302.153C489.958 302.093 489.798 302.063 489.648 302.003C498.488 305.593 502.928 315.583 499.558 324.573C496.188 333.563 486.278 338.183 477.258 335.073C477.408 335.133 477.548 335.213 477.708 335.263C486.858 338.693 497.048 334.053 500.468 324.903C503.898 315.753 499.258 305.563 490.108 302.143V302.153Z" fill="black"/>
<path d="M544.923 357.926C554.564 356.378 561.125 347.308 559.578 337.667C558.03 328.026 548.96 321.465 539.319 323.013C529.678 324.561 523.117 333.631 524.665 343.272C526.212 352.913 535.282 359.474 544.923 357.926Z" fill="black"/>
<path d="M617.063 367.822C620.121 358.549 615.082 348.553 605.809 345.495C596.535 342.437 586.539 347.475 583.481 356.749C580.423 366.022 585.462 376.018 594.735 379.076C604.008 382.134 614.005 377.095 617.063 367.822Z" fill="black"/>
<path d="M676.11 385.217C676.718 375.471 669.311 367.078 659.565 366.47C649.82 365.862 641.427 373.269 640.819 383.015C640.211 392.76 647.618 401.153 657.363 401.761C667.109 402.369 675.502 394.962 676.11 385.217Z" fill="black"/>
<path d="M723.983 422.03C732.871 417.987 736.799 407.504 732.756 398.616C728.713 389.728 718.23 385.8 709.342 389.844C700.454 393.887 696.526 404.369 700.569 413.257C704.612 422.145 715.095 426.073 723.983 422.03Z" fill="black"/>
<path d="M758.288 421.513C754.858 430.663 759.498 440.853 768.648 444.273C777.798 447.693 787.988 443.063 791.408 433.913C794.828 424.763 790.198 414.573 781.048 411.153C771.898 407.733 761.708 412.363 758.288 421.513Z" fill="black"/>
<path d="M834.247 467.17C843.987 466.484 851.327 458.032 850.641 448.292C849.954 438.551 841.502 431.212 831.762 431.898C822.022 432.584 814.682 441.036 815.368 450.777C816.054 460.517 824.507 467.857 834.247 467.17Z" fill="black"/>
<path d="M897.408 454.753C888.258 451.323 878.068 455.963 874.648 465.113C871.218 474.263 875.858 484.453 885.008 487.873C894.158 491.303 904.348 486.663 907.768 477.513C911.198 468.363 906.558 458.173 897.408 454.753Z" fill="black"/>
<path d="M964.553 502.311C969.607 493.956 966.931 483.086 958.576 478.032C950.221 472.978 939.351 475.654 934.297 484.009C929.244 492.364 931.919 503.234 940.274 508.288C948.629 513.341 959.499 510.665 964.553 502.311Z" fill="black"/>
<path d="M1013.79 498.363C1004.64 494.933 994.448 499.573 991.028 508.723C987.598 517.873 992.238 528.063 1001.39 531.483C1003.17 532.153 1004.98 532.503 1006.78 532.583C1012.39 523.783 1017.53 514.563 1022.16 504.923C1020.18 502.033 1017.33 499.693 1013.79 498.363Z" fill="black"/>
<path d="M479.898 383.553C476.088 393.733 464.858 398.943 454.658 395.403C454.808 395.463 454.958 395.543 455.108 395.603C465.438 399.473 476.958 394.233 480.828 383.903C484.698 373.573 479.458 362.053 469.128 358.183C468.968 358.123 468.818 358.083 468.658 358.033C478.678 362.073 483.718 373.373 479.898 383.553Z" fill="black"/>
<path d="M533.569 413.689C541.819 406.362 542.567 393.733 535.24 385.483C527.912 377.232 515.284 376.484 507.033 383.812C498.783 391.14 498.035 403.768 505.362 412.019C512.69 420.269 525.318 421.017 533.569 413.689Z" fill="black"/>
<path d="M580.234 440.436C591.225 439.458 599.343 429.756 598.366 418.765C597.389 407.774 587.687 399.655 576.696 400.632C565.704 401.61 557.586 411.312 558.563 422.303C559.54 433.294 569.243 441.413 580.234 440.436Z" fill="black"/>
<path d="M643.688 423.583C633.358 419.713 621.838 424.953 617.968 435.283C614.098 445.613 619.338 457.133 629.668 461.003C639.998 464.873 651.518 459.633 655.388 449.303C659.258 438.973 654.018 427.453 643.688 423.583Z" fill="black"/>
<path d="M676.158 457.083C672.288 467.413 677.528 478.933 687.858 482.803C698.188 486.673 709.708 481.433 713.578 471.103C717.448 460.773 712.208 449.253 701.878 445.383C691.548 441.513 680.028 446.753 676.158 457.083Z" fill="black"/>
<path d="M760.058 467.183C749.728 463.313 738.208 468.553 734.338 478.883C730.468 489.213 735.708 500.733 746.038 504.603C756.368 508.473 767.888 503.233 771.758 492.903C775.628 482.573 770.388 471.053 760.058 467.183Z" fill="black"/>
<path d="M824.689 522.471C832.845 515.039 833.433 502.402 826 494.246C818.568 486.089 805.931 485.502 797.775 492.935C789.618 500.367 789.031 513.004 796.463 521.16C803.896 529.316 816.533 529.904 824.689 522.471Z" fill="black"/>
<path d="M850.708 522.483C846.838 532.813 852.078 544.333 862.408 548.203C872.738 552.073 884.258 546.833 888.128 536.503C891.998 526.173 886.758 514.653 876.428 510.783C866.098 506.913 854.578 512.153 850.708 522.483Z" fill="black"/>
<path d="M927.626 571.335C938.66 571.299 947.576 562.324 947.539 551.289C947.503 540.255 938.528 531.339 927.493 531.376C916.459 531.412 907.543 540.387 907.58 551.422C907.616 562.456 916.591 571.372 927.626 571.335Z" fill="black"/>
<path d="M991.528 553.983C981.538 550.973 970.798 556.173 967.078 566.083C965.258 570.933 965.468 576.043 967.258 580.503C975.928 572.263 984.038 563.433 991.528 553.983Z" fill="black"/>
<path d="M448.128 414.223C447.968 414.163 447.818 414.113 447.658 414.063C458.868 418.543 464.498 431.183 460.238 442.543C455.978 453.903 443.428 459.733 432.038 455.743C432.188 455.803 432.338 455.873 432.498 455.923C444.018 460.243 456.848 454.403 461.168 442.883C465.488 431.363 459.648 418.533 448.128 414.213V414.223Z" fill="black"/>
<path d="M515.857 470.839C523.559 461.249 522.029 447.232 512.44 439.53C502.85 431.828 488.833 433.358 481.131 442.948C473.429 452.537 474.96 466.555 484.549 474.256C494.138 481.958 508.156 480.428 515.857 470.839Z" fill="black"/>
<path d="M569.995 496.512C579.858 489.164 581.896 475.211 574.547 465.348C567.199 455.486 553.246 453.448 543.384 460.797C533.521 468.145 531.483 482.098 538.832 491.96C546.18 501.823 560.133 503.861 569.995 496.512Z" fill="black"/>
<path d="M615.153 522.731C627.452 522.59 637.307 512.505 637.165 500.206C637.023 487.908 626.939 478.052 614.64 478.194C602.341 478.336 592.486 488.421 592.628 500.719C592.77 513.018 602.854 522.873 615.153 522.731Z" fill="black"/>
<path d="M689.139 537.633C697.646 528.75 697.341 514.653 688.458 506.146C679.574 497.639 665.477 497.945 656.97 506.828C648.464 515.711 648.769 529.808 657.652 538.315C666.535 546.822 680.632 546.517 689.139 537.633Z" fill="black"/>
<path d="M732.845 566.281C745.114 565.408 754.351 554.755 753.479 542.486C752.606 530.218 741.952 520.98 729.684 521.853C717.416 522.726 708.178 533.379 709.051 545.647C709.924 557.916 720.577 567.154 732.845 566.281Z" fill="black"/>
<path d="M808.983 576.637C814.893 565.851 810.94 552.316 800.154 546.405C789.367 540.495 775.832 544.448 769.922 555.234C764.012 566.021 767.965 579.556 778.751 585.466C789.537 591.376 803.072 587.423 808.983 576.637Z" fill="black"/>
<path d="M855.428 566.823C843.908 562.503 831.078 568.343 826.758 579.863C822.438 591.383 828.278 604.213 839.798 608.533C851.318 612.853 864.148 607.013 868.468 595.493C872.788 583.973 866.948 571.143 855.428 566.823Z" fill="black"/>
<path d="M913.608 588.623C902.088 584.303 889.258 590.143 884.938 601.663C880.958 612.293 885.618 624.033 895.418 629.173C906.758 623.873 917.638 617.893 927.998 611.243C928.768 601.583 923.138 592.183 913.608 588.613V588.623Z" fill="black"/>
<path d="M441.518 501.883C446.278 489.183 439.838 475.023 427.138 470.263C426.978 470.203 426.828 470.153 426.668 470.103C439.068 475.033 445.298 488.993 440.598 501.543C435.898 514.093 422.028 520.523 409.438 516.093C409.588 516.153 409.738 516.223 409.898 516.283C422.598 521.043 436.758 514.603 441.518 501.903V501.883Z" fill="black"/>
<path d="M453.698 506.443C448.938 519.143 455.378 533.303 468.078 538.063C480.778 542.823 494.938 536.383 499.698 523.683C504.458 510.983 498.018 496.823 485.318 492.063C472.618 487.303 458.458 493.743 453.698 506.443Z" fill="black"/>
<path d="M557.888 545.483C562.648 532.783 556.208 518.623 543.508 513.863C530.808 509.103 516.648 515.543 511.888 528.243C507.128 540.943 513.568 555.103 526.268 559.863C538.968 564.623 553.128 558.183 557.888 545.483Z" fill="black"/>
<path d="M617.665 559.503C618.103 545.946 607.468 534.601 593.911 534.163C580.353 533.725 569.008 544.36 568.57 557.917C568.133 571.474 578.768 582.819 592.325 583.257C605.882 583.695 617.227 573.06 617.665 559.503Z" fill="black"/>
<path d="M673.177 591.57C679.297 579.465 674.445 564.691 662.34 558.571C650.235 552.451 635.461 557.303 629.341 569.408C623.221 581.513 628.073 596.287 640.178 602.407C652.283 608.527 667.057 603.675 673.177 591.57Z" fill="black"/>
<path d="M727.71 618.73C736.776 608.64 735.945 593.112 725.856 584.046C715.766 574.981 700.238 575.811 691.172 585.901C682.107 595.99 682.937 611.519 693.026 620.584C703.116 629.65 718.644 628.82 727.71 618.73Z" fill="black"/>
<path d="M744.618 615.442C739.858 628.142 746.298 642.302 758.998 647.062C771.698 651.822 785.858 645.382 790.618 632.682C795.378 619.982 788.938 605.822 776.238 601.062C763.538 596.302 749.378 602.742 744.618 615.442Z" fill="black"/>
<path d="M834.428 622.863C821.728 618.103 807.568 624.543 802.808 637.243C799.118 647.083 802.158 657.793 809.618 664.333C811.058 661.063 812.288 657.743 813.278 654.393L816.678 653.743C828.198 651.713 839.438 649.123 850.378 645.993C850.428 636.003 844.328 626.573 834.428 622.863Z" fill="black"/>
<path d="M406.138 526.303C405.978 526.243 405.828 526.193 405.668 526.143C419.248 531.513 426.088 546.793 420.938 560.533C415.788 574.273 400.598 581.303 386.828 576.423C386.978 576.483 387.128 576.553 387.288 576.613C401.178 581.813 416.658 574.773 421.858 560.883C427.058 546.993 420.018 531.513 406.128 526.313L406.138 526.303Z" fill="black"/>
<path d="M473.892 592.248C484.381 581.758 484.381 564.751 473.892 554.262C463.402 543.773 446.395 543.773 435.906 554.262C425.416 564.751 425.416 581.758 435.906 592.248C446.395 602.737 463.402 602.737 473.892 592.248Z" fill="black"/>
<path d="M536.239 608.703C543.761 595.917 539.494 579.455 526.709 571.932C513.923 564.41 497.46 568.677 489.938 581.462C482.416 594.248 486.682 610.711 499.468 618.233C512.254 625.755 528.717 621.489 536.239 608.703Z" fill="black"/>
<path d="M573.431 643.671C588.215 642.456 599.215 629.485 598 614.701C596.784 599.916 583.814 588.916 569.029 590.132C554.245 591.347 543.245 604.318 544.46 619.102C545.676 633.887 558.647 644.887 573.431 643.671Z" fill="black"/>
<path d="M647.27 658.752C658.375 648.917 659.404 631.941 649.569 620.836C639.733 609.731 622.758 608.701 611.653 618.537C600.547 628.372 599.518 645.348 609.353 656.453C619.189 667.558 636.164 668.587 647.27 658.752Z" fill="black"/>
<path d="M692.193 686.983C706.808 684.44 716.594 670.531 714.051 655.916C711.508 641.301 697.599 631.515 682.985 634.058C668.37 636.601 658.584 650.51 661.126 665.125C663.669 679.739 677.578 689.526 692.193 686.983Z" fill="black"/>
<path d="M762.389 703.439C774.061 694.284 776.101 677.4 766.946 665.728C757.791 654.056 740.907 652.015 729.235 661.171C717.563 670.326 715.522 687.21 724.678 698.882C733.833 710.554 750.717 712.595 762.389 703.439Z" fill="black"/>
<path d="M797.108 684.663C799.098 682.253 800.918 679.773 802.598 677.233C792.258 677.783 782.718 684.313 778.848 694.633C777.748 697.573 777.198 700.583 777.148 703.563C784.278 698.513 790.948 692.143 797.108 684.673V684.663Z" fill="black"/>
<path d="M401.288 619.523C395.698 634.443 379.188 642.073 364.228 636.753C364.378 636.813 364.528 636.883 364.688 636.933C379.768 642.583 396.568 634.943 402.218 619.863C407.868 604.783 400.228 587.983 385.148 582.333C384.998 582.273 384.838 582.223 384.678 582.173C399.448 587.993 406.878 604.593 401.288 619.513V619.523Z" fill="black"/>
<path d="M434.013 660.567C450.104 660.067 462.743 646.617 462.243 630.526C461.743 614.434 448.293 601.795 432.202 602.295C416.11 602.795 403.471 616.245 403.971 632.337C404.471 648.428 417.921 661.067 434.013 660.567Z" fill="black"/>
<path d="M514.705 670.659C524.295 657.728 521.586 639.471 508.655 629.881C495.723 620.292 477.466 623.001 467.877 635.932C458.287 648.863 460.996 667.12 473.927 676.71C486.859 686.299 505.116 683.59 514.705 670.659Z" fill="black"/>
<path d="M570.566 695.219C581.672 683.564 581.228 665.113 569.573 654.006C557.919 642.9 539.467 643.344 528.361 654.999C517.255 666.654 517.699 685.105 529.354 696.211C541.008 707.318 559.46 706.873 570.566 695.219Z" fill="black"/>
<path d="M597.428 724.143C612.508 729.793 629.308 722.153 634.958 707.073C640.608 691.993 632.968 675.193 617.888 669.543C602.808 663.893 586.008 671.533 580.358 686.613C574.708 701.693 582.348 718.493 597.428 724.143Z" fill="black"/>
<path d="M682.356 742.621C695.62 733.498 698.977 715.349 689.854 702.085C680.731 688.82 662.582 685.463 649.318 694.586C636.053 703.71 632.696 721.858 641.819 735.123C650.942 748.388 669.091 751.745 682.356 742.621Z" fill="black"/>
<path d="M730.328 729.283C733.818 725.043 737.048 720.673 739.998 716.183L740.218 716.203C738.388 714.983 736.398 713.943 734.248 713.133C719.168 707.483 702.368 715.123 696.718 730.203C693.168 739.683 694.868 749.833 700.368 757.483C711.198 749.663 721.278 740.243 730.318 729.283H730.328Z" fill="black"/>
<path d="M364.018 638.733C363.858 638.673 363.708 638.623 363.548 638.573C379.308 644.763 387.248 662.473 381.288 678.383C375.328 694.293 357.708 702.433 341.758 696.733C341.908 696.793 342.058 696.863 342.218 696.923C358.288 702.943 376.188 694.793 382.208 678.733C388.228 662.663 380.078 644.763 364.018 638.743V638.733Z" fill="black"/>
<path d="M433.282 711.593C445.416 699.46 445.416 679.787 433.282 667.654C421.148 655.52 401.476 655.52 389.342 667.654C377.209 679.787 377.209 699.46 389.342 711.593C401.476 723.727 421.148 723.727 433.282 711.593Z" fill="black"/>
<path d="M482.354 739.708C497.974 732.603 504.876 714.182 497.771 698.562C490.666 682.943 472.244 676.04 456.625 683.145C441.005 690.25 434.103 708.672 441.208 724.292C448.313 739.911 466.735 746.813 482.354 739.708Z" fill="black"/>
<path d="M556.878 743.822C562.688 727.832 554.548 710.112 538.578 704.122C522.508 698.102 504.608 706.252 498.588 722.312C492.568 738.372 500.718 756.283 516.778 762.303C519.878 763.463 523.038 764.092 526.168 764.242C530.038 763.472 533.898 762.652 537.758 761.762L538.578 762.293C546.598 759.283 553.328 753.003 556.648 744.403C556.688 744.303 556.718 744.203 556.748 744.103C556.778 744.003 556.828 743.912 556.868 743.812L556.878 743.822Z" fill="black"/>
<path d="M596.758 725.923C580.788 719.943 563.008 727.953 556.878 743.823C556.838 743.923 556.798 744.013 556.758 744.113C556.718 744.213 556.688 744.313 556.658 744.413C552.858 754.883 555.028 766.083 561.458 774.253C573.118 779.103 585.088 782.323 597.128 783.953C605.078 780.853 611.718 774.523 614.948 765.903C620.968 749.833 612.818 731.933 596.758 725.913V725.923Z" fill="black"/>
<path d="M674.798 772.373C673.218 761.523 665.938 751.843 654.948 747.723C638.878 741.703 620.978 749.853 614.958 765.913C612.548 772.353 612.418 779.083 614.148 785.223C634.938 785.493 655.578 781.123 674.808 772.363L674.798 772.373Z" fill="black"/>
<path d="M342.218 696.913C342.058 696.853 341.908 696.803 341.748 696.753C357.508 702.943 365.448 720.653 359.488 736.563C356.968 743.283 352.378 748.603 346.708 752.093C347.028 752.203 347.338 752.313 347.658 752.423C353.318 748.933 357.908 743.613 360.418 736.903C366.438 720.833 358.288 702.933 342.228 696.913H342.218Z" fill="black"/>
<path d="M418.598 758.713C424.618 742.643 416.468 724.743 400.408 718.723C384.338 712.703 366.438 720.853 360.418 736.913C357.978 743.433 357.868 750.263 359.668 756.473C377.148 761.953 394.948 765.843 412.918 768.243C415.308 765.513 417.248 762.313 418.598 758.713Z" fill="black"/>
<path d="M478.748 770.473C479.108 757.573 471.348 745.303 458.588 740.523C442.518 734.503 424.618 742.643 418.598 758.713C417.358 762.013 416.728 765.393 416.638 768.723C437.208 771.233 457.988 771.773 478.748 770.463V770.473Z" fill="black"/>
<path d="M516.778 762.323C504.678 757.793 491.538 761.293 483.218 770.153C496.268 769.163 509.298 767.443 522.258 765.013C520.558 763.963 518.728 763.053 516.778 762.323Z" fill="black"/>
<path d="M597.818 29.6327C598.968 26.5727 597.538 23.1827 594.628 21.8327C594.478 21.7627 594.328 21.6927 594.178 21.6327C590.968 20.4327 587.378 22.0627 586.178 25.2727C584.978 28.4827 586.608 32.0727 589.818 33.2727C589.978 33.3327 590.128 33.3727 590.288 33.4227C593.378 34.3127 596.668 32.6927 597.818 29.6327Z" fill="black"/>
<path d="M331.738 4.71274C332.518 5.42274 333.428 5.99274 334.468 6.38274C337.968 7.69274 341.778 6.54274 344.018 3.81274C339.888 3.97274 335.788 4.27274 331.738 4.70274V4.71274Z" fill="black"/>
<path d="M398.628 12.2527C394.228 10.6027 389.328 12.8327 387.678 17.2327C386.028 21.6327 388.258 26.5327 392.658 28.1827C397.058 29.8327 401.958 27.6027 403.608 23.2027C405.258 18.8027 403.028 13.9027 398.628 12.2527Z" fill="black"/>
<path d="M450.838 49.9928C455.238 51.6428 460.138 49.4128 461.788 45.0128C463.438 40.6128 461.208 35.7128 456.808 34.0628C452.408 32.4128 447.508 34.6428 445.858 39.0428C444.208 43.4428 446.438 48.3428 450.838 49.9928Z" fill="black"/>
<path d="M514.998 55.8528C510.598 54.2028 505.698 56.4328 504.048 60.8328C502.398 65.2328 504.628 70.1328 509.028 71.7828C513.428 73.4328 518.328 71.2028 519.978 66.8028C521.628 62.4028 519.398 57.5028 514.998 55.8528Z" fill="black"/>
<path d="M578.168 88.6129C579.758 84.3729 577.738 79.6629 573.638 77.8529C573.488 77.7829 573.338 77.7129 573.188 77.6529C568.788 76.0029 563.888 78.2329 562.238 82.6329C560.588 87.0329 562.818 91.9329 567.218 93.5829C567.378 93.6429 567.528 93.6829 567.688 93.7329C571.958 95.0629 576.578 92.8429 578.168 88.6029V88.6129Z" fill="black"/>
<path d="M253.678 44.9228C259.268 47.0128 265.488 44.1828 267.588 38.5928C269.168 34.3728 267.938 29.7828 264.818 26.8928C258.738 30.6328 253.008 34.8028 247.688 39.3728C248.838 41.8428 250.928 43.8828 253.678 44.9228Z" fill="black"/>
<path d="M319.438 46.4929C313.848 44.4029 307.628 47.2329 305.528 52.8229C303.438 58.4129 306.268 64.6329 311.858 66.7329C317.448 68.8229 323.668 65.9929 325.768 60.4029C327.868 54.8129 325.028 48.5929 319.438 46.4929Z" fill="black"/>
<path d="M384.103 81.6817C385.914 75.9987 382.776 69.9233 377.093 68.1118C371.41 66.3003 365.334 69.4388 363.523 75.1217C361.712 80.8047 364.85 86.8801 370.533 88.6916C376.216 90.5031 382.291 87.3646 384.103 81.6817Z" fill="black"/>
<path d="M432.028 111.013C437.993 111.013 442.828 106.178 442.828 100.213C442.828 94.2482 437.993 89.4128 432.028 89.4128C426.064 89.4128 421.228 94.2482 421.228 100.213C421.228 106.178 426.064 111.013 432.028 111.013Z" fill="black"/>
<path d="M490.218 132.813C496.183 132.813 501.018 127.977 501.018 122.013C501.018 116.048 496.183 111.213 490.218 111.213C484.254 111.213 479.418 116.048 479.418 122.013C479.418 127.977 484.254 132.813 490.218 132.813Z" fill="black"/>
<path d="M558.518 147.603C560.558 142.173 557.918 136.143 552.638 133.893C552.488 133.833 552.348 133.753 552.188 133.703C546.598 131.613 540.378 134.443 538.278 140.033C536.188 145.623 539.018 151.843 544.608 153.943C544.758 154.003 544.918 154.043 545.068 154.093C550.528 155.863 556.478 153.053 558.508 147.623L558.518 147.603Z" fill="black"/>
<path d="M248.325 96.2783C250.142 89.2751 245.937 82.1254 238.934 80.3091C231.931 78.4927 224.781 82.6974 222.965 89.7007C221.148 96.7039 225.353 103.854 232.356 105.67C239.359 107.486 246.509 103.282 248.325 96.2783Z" fill="black"/>
<path d="M296.267 127.648C303.378 126.315 308.062 119.469 306.728 112.358C305.395 105.247 298.55 100.564 291.439 101.897C284.328 103.23 279.644 110.076 280.977 117.187C282.311 124.298 289.156 128.982 296.267 127.648Z" fill="black"/>
<path d="M352.038 149.693C359.273 149.693 365.138 143.828 365.138 136.593C365.138 129.358 359.273 123.493 352.038 123.493C344.803 123.493 338.938 129.358 338.938 136.593C338.938 143.828 344.803 149.693 352.038 149.693Z" fill="black"/>
<path d="M414.818 146.133C408.048 143.593 400.498 147.033 397.958 153.803C395.418 160.573 398.858 168.123 405.628 170.663C412.398 173.203 419.948 169.763 422.488 162.993C425.028 156.223 421.588 148.673 414.818 146.133Z" fill="black"/>
<path d="M468.408 193.303C475.643 193.303 481.508 187.438 481.508 180.203C481.508 172.968 475.643 167.103 468.408 167.103C461.173 167.103 455.308 172.968 455.308 180.203C455.308 187.438 461.173 193.303 468.408 193.303Z" fill="black"/>
<path d="M538.868 206.593C541.348 199.973 538.118 192.623 531.648 189.923C531.498 189.863 531.358 189.783 531.198 189.733C524.428 187.193 516.878 190.633 514.338 197.403C511.798 204.173 515.238 211.723 522.008 214.263C522.158 214.323 522.318 214.363 522.468 214.413C529.118 216.633 536.378 213.213 538.868 206.593Z" fill="black"/>
<path d="M150.278 143.793C158.238 146.773 167.108 142.743 170.088 134.783C171.278 131.603 171.338 128.283 170.488 125.253C160.868 128.843 151.508 132.853 142.468 137.263C144.198 140.163 146.868 142.523 150.278 143.793Z" fill="black"/>
<path d="M225.166 161.64C230.933 155.396 230.547 145.659 224.304 139.892C218.06 134.124 208.324 134.51 202.556 140.754C196.789 146.997 197.175 156.734 203.418 162.502C209.662 168.269 219.399 167.883 225.166 161.64Z" fill="black"/>
<path d="M274.911 188.091C283.263 186.515 288.756 178.466 287.179 170.114C285.602 161.762 277.553 156.269 269.201 157.846C260.849 159.422 255.356 167.471 256.933 175.823C258.51 184.176 266.559 189.668 274.911 188.091Z" fill="black"/>
<path d="M336.612 208.795C344.348 205.276 347.767 196.151 344.248 188.414C340.729 180.677 331.604 177.258 323.867 180.778C316.13 184.297 312.711 193.422 316.231 201.159C319.75 208.896 328.875 212.315 336.612 208.795Z" fill="black"/>
<path d="M391.289 231.677C399.641 230.1 405.134 222.051 403.557 213.699C401.98 205.347 393.931 199.854 385.579 201.431C377.227 203.008 371.734 211.057 373.311 219.409C374.888 227.761 382.937 233.254 391.289 231.677Z" fill="black"/>
<path d="M461.003 243.85C464.019 235.903 460.023 227.016 452.077 223.999C444.131 220.982 435.244 224.978 432.227 232.924C429.21 240.871 433.206 249.758 441.152 252.775C449.098 255.792 457.986 251.796 461.003 243.85Z" fill="black"/>
<path d="M490.388 254.793C487.408 262.753 491.438 271.623 499.398 274.603C499.548 274.663 499.708 274.703 499.858 274.753C507.698 277.413 516.278 273.403 519.208 265.593C522.128 257.783 518.298 249.123 510.638 245.973C510.488 245.913 510.348 245.833 510.188 245.783C502.228 242.803 493.358 246.833 490.378 254.793H490.388Z" fill="black"/>
<path d="M92.2583 171.983C92.7783 170.593 93.0883 169.183 93.2483 167.773C86.8683 172.733 80.7483 177.953 74.9283 183.433C82.3683 183.753 89.4983 179.333 92.2483 171.973L92.2583 171.983Z" fill="black"/>
<path d="M147.508 198.83C153.727 191.302 152.666 180.158 145.138 173.939C137.61 167.72 126.466 168.781 120.247 176.309C114.028 183.837 115.089 194.981 122.617 201.2C130.145 207.419 141.289 206.358 147.508 198.83Z" fill="black"/>
<path d="M209.418 212.757C211.285 203.172 205.028 193.89 195.444 192.023C185.859 190.157 176.577 196.413 174.71 205.998C172.844 215.582 179.1 224.865 188.685 226.731C198.269 228.598 207.552 222.341 209.418 212.757Z" fill="black"/>
<path d="M253.141 248.627C262.773 247.024 269.282 237.916 267.679 228.284C266.076 218.652 256.968 212.144 247.336 213.747C237.704 215.35 231.195 224.458 232.799 234.09C234.402 243.722 243.51 250.23 253.141 248.627Z" fill="black"/>
<path d="M308.438 270.653C318.203 270.653 326.118 262.737 326.118 252.973C326.118 243.208 318.203 235.293 308.438 235.293C298.674 235.293 290.758 243.208 290.758 252.973C290.758 262.737 298.674 270.653 308.438 270.653Z" fill="black"/>
<path d="M372.141 291.542C381.42 288.502 386.477 278.516 383.437 269.237C380.397 259.958 370.411 254.9 361.132 257.94C351.853 260.98 346.795 270.967 349.835 280.246C352.875 289.525 362.861 294.582 372.141 291.542Z" fill="black"/>
<path d="M428.861 313.763C438.366 311.53 444.262 302.014 442.029 292.508C439.796 283.003 430.28 277.107 420.774 279.34C411.269 281.573 405.373 291.089 407.606 300.595C409.839 310.1 419.355 315.996 428.861 313.763Z" fill="black"/>
<path d="M499.558 324.583C502.928 315.593 498.488 305.603 489.648 302.013C489.498 301.953 489.358 301.873 489.198 301.823C480.048 298.393 469.858 303.033 466.438 312.183C463.018 321.333 467.648 331.523 476.798 334.943C476.948 335.003 477.108 335.033 477.258 335.093C486.278 338.193 496.188 333.583 499.558 324.593V324.583Z" fill="black"/>
<path d="M46.8983 242.653C57.2283 246.523 68.7483 241.283 72.6183 230.953C76.4883 220.623 71.2483 209.103 60.9183 205.233C59.1283 204.563 57.2983 204.183 55.4783 204.033C48.1583 212.773 41.5083 222.043 35.5683 231.813C37.6383 236.643 41.5883 240.663 46.8983 242.643V242.653Z" fill="black"/>
<path d="M124.535 261.358C133.167 254.484 134.593 241.914 127.719 233.282C120.845 224.65 108.275 223.224 99.6428 230.098C91.0106 236.972 89.5851 249.542 96.4588 258.174C103.333 266.806 115.903 268.232 124.535 261.358Z" fill="black"/>
<path d="M171.551 287.493C182.563 286.777 190.909 277.27 190.193 266.259C189.477 255.248 179.97 246.902 168.959 247.618C157.947 248.333 149.601 257.84 150.317 268.852C151.033 279.863 160.54 288.209 171.551 287.493Z" fill="black"/>
<path d="M243.968 301.95C250.916 293.377 249.598 280.795 241.025 273.848C232.452 266.901 219.87 268.219 212.923 276.792C205.975 285.365 207.293 297.947 215.866 304.894C224.439 311.841 237.021 310.523 243.968 301.95Z" fill="black"/>
<path d="M287.119 331.139C298.151 330.863 306.87 321.698 306.595 310.666C306.319 299.635 297.153 290.916 286.122 291.191C275.091 291.467 266.372 300.632 266.647 311.664C266.922 322.695 276.088 331.414 287.119 331.139Z" fill="black"/>
<path d="M353.099 351.132C363.143 346.563 367.582 334.717 363.013 324.673C358.444 314.629 346.597 310.19 336.553 314.759C326.509 319.328 322.07 331.174 326.639 341.219C331.208 351.263 343.055 355.701 353.099 351.132Z" fill="black"/>
<path d="M403.018 374.723C414.053 374.723 422.998 365.777 422.998 354.743C422.998 343.708 414.053 334.763 403.018 334.763C391.984 334.763 383.038 343.708 383.038 354.743C383.038 365.777 391.984 374.723 403.018 374.723Z" fill="black"/>
<path d="M442.478 369.533C438.608 379.863 443.848 391.383 454.178 395.253C454.338 395.313 454.488 395.353 454.648 395.403C464.858 398.943 476.078 393.733 479.888 383.553C483.698 373.373 478.668 362.073 468.648 358.033C468.498 357.973 468.348 357.893 468.198 357.833C457.868 353.963 446.348 359.203 442.478 369.533Z" fill="black"/>
<path d="M52.9583 289.953C57.2783 278.433 51.4383 265.603 39.9183 261.283C32.8183 258.623 25.2183 259.823 19.4183 263.843C16.0383 272.073 13.1883 280.373 10.8383 288.723C12.8083 295.073 17.5883 300.483 24.2983 303.003C35.8183 307.323 48.6483 301.483 52.9683 289.963L52.9583 289.953Z" fill="black"/>
<path d="M107.758 317.735C115.381 308.083 113.736 294.079 104.084 286.456C94.4312 278.833 80.427 280.478 72.8041 290.13C65.1812 299.782 66.8263 313.787 76.4785 321.41C86.1308 329.033 100.135 327.387 107.758 317.735Z" fill="black"/>
<path d="M157.685 346.009C168.88 340.916 173.828 327.712 168.735 316.516C163.642 305.321 150.438 300.373 139.243 305.466C128.047 310.559 123.1 323.763 128.193 334.958C133.285 346.154 146.489 351.101 157.685 346.009Z" fill="black"/>
<path d="M215.87 367.812C227.065 362.719 232.013 349.515 226.92 338.32C221.827 327.124 208.623 322.177 197.428 327.269C186.232 332.362 181.285 345.566 186.377 356.762C191.47 367.957 204.674 372.905 215.87 367.812Z" fill="black"/>
<path d="M274.054 389.612C285.249 384.519 290.197 371.315 285.104 360.119C280.011 348.924 266.807 343.976 255.612 349.069C244.416 354.162 239.469 367.366 244.561 378.561C249.654 389.757 262.858 394.704 274.054 389.612Z" fill="black"/>
<path d="M340.379 405.086C348.087 395.502 346.567 381.484 336.983 373.776C327.399 366.067 313.38 367.587 305.672 377.171C297.963 386.756 299.484 400.774 309.068 408.482C318.652 416.191 332.67 414.671 340.379 405.086Z" fill="black"/>
<path d="M388.633 433.933C400.231 429.837 406.312 417.116 402.217 405.518C398.121 393.921 385.399 387.839 373.802 391.935C362.204 396.03 356.123 408.752 360.218 420.349C364.314 431.947 377.036 438.028 388.633 433.933Z" fill="black"/>
<path d="M460.238 442.543C464.498 431.183 458.868 418.543 447.658 414.063C447.508 414.003 447.358 413.933 447.198 413.873C435.678 409.553 422.848 415.393 418.528 426.913C414.208 438.433 420.048 451.263 431.568 455.583C431.728 455.643 431.878 455.693 432.038 455.743C443.438 459.733 455.978 453.903 460.238 442.543Z" fill="black"/>
<path d="M33.2883 348.933C38.0483 336.233 31.6083 322.073 18.9083 317.313C14.2583 315.573 9.41829 315.333 4.91829 316.353C2.59829 332.133 2.03829 348.003 3.17829 363.823C15.4783 367.553 28.7183 361.143 33.2983 348.933H33.2883Z" fill="black"/>
<path d="M74.1473 386.006C87.3459 382.878 95.5104 369.643 92.383 356.445C89.2557 343.246 76.0209 335.082 62.8222 338.209C49.6235 341.336 41.4591 354.571 44.5864 367.77C47.7138 380.969 60.9486 389.133 74.1473 386.006Z" fill="black"/>
<path d="M149.668 392.533C154.428 379.833 147.988 365.673 135.288 360.913C122.588 356.153 108.428 362.593 103.668 375.293C98.9083 387.993 105.348 402.153 118.048 406.913C130.748 411.673 144.908 405.233 149.668 392.533Z" fill="black"/>
<path d="M190.72 429.579C203.889 426.329 211.931 413.02 208.681 399.85C205.432 386.681 192.122 378.64 178.953 381.889C165.784 385.138 157.742 398.448 160.992 411.617C164.241 424.786 177.551 432.828 190.72 429.579Z" fill="black"/>
<path d="M267.603 428.347C268.041 414.79 257.406 403.444 243.849 403.007C230.291 402.569 218.946 413.204 218.508 426.761C218.071 440.318 228.706 451.663 242.263 452.101C255.82 452.539 267.165 441.904 267.603 428.347Z" fill="black"/>
<path d="M323.144 460.418C329.264 448.313 324.412 433.538 312.307 427.418C300.202 421.298 285.428 426.15 279.308 438.255C273.188 450.36 278.04 465.135 290.145 471.255C302.25 477.375 317.024 472.523 323.144 460.418Z" fill="black"/>
<path d="M336.408 462.503C331.648 475.203 338.088 489.363 350.788 494.123C363.488 498.883 377.648 492.443 382.408 479.743C387.168 467.043 380.728 452.883 368.028 448.123C355.328 443.363 341.168 449.803 336.408 462.503Z" fill="black"/>
<path d="M440.588 501.533C445.288 488.983 439.058 475.023 426.658 470.093C426.508 470.033 426.358 469.963 426.198 469.913C413.498 465.153 399.338 471.593 394.578 484.293C389.818 496.993 396.258 511.153 408.958 515.913C409.118 515.973 409.268 516.023 409.428 516.073C422.008 520.503 435.878 514.073 440.588 501.523V501.533Z" fill="black"/>
<path d="M4.50829 376.953C6.04829 388.603 8.50829 400.213 11.8583 411.733C12.5383 410.533 13.1283 409.263 13.6283 407.933C17.9283 396.463 13.8683 383.913 4.49829 376.953H4.50829Z" fill="black"/>
<path d="M57.3985 444.93C70.9984 439.005 77.2203 423.178 71.2956 409.578C65.3709 395.978 49.5432 389.756 35.9433 395.681C22.3434 401.605 16.1214 417.433 22.0461 431.033C27.9708 444.633 43.7986 450.855 57.3985 444.93Z" fill="black"/>
<path d="M123.849 461.096C134.339 450.607 134.338 433.6 123.849 423.11C113.36 412.621 96.3527 412.621 85.8632 423.11C75.3738 433.6 75.3738 450.607 85.8632 461.096C96.3527 471.586 113.36 471.586 123.849 461.096Z" fill="black"/>
<path d="M186.191 477.546C193.713 464.761 189.446 448.298 176.66 440.775C163.875 433.253 147.412 437.52 139.89 450.306C132.367 463.091 136.634 479.554 149.42 487.076C162.205 494.599 178.668 490.332 186.191 477.546Z" fill="black"/>
<path d="M223.403 512.504C238.187 511.288 249.187 498.317 247.971 483.533C246.756 468.749 233.785 457.749 219.001 458.964C204.216 460.18 193.217 473.15 194.432 487.935C195.648 502.719 208.618 513.719 223.403 512.504Z" fill="black"/>
<path d="M299.855 524.958C309.487 513.676 308.15 496.722 296.868 487.09C285.586 477.458 268.632 478.795 259 490.077C249.368 501.359 250.705 518.313 261.987 527.945C273.269 537.577 290.223 536.24 299.855 524.958Z" fill="black"/>
<path d="M351.946 552.04C364.488 544.118 368.233 527.528 360.31 514.986C352.388 502.445 335.798 498.7 323.257 506.623C310.715 514.545 306.97 531.134 314.893 543.676C322.815 556.218 339.405 559.962 351.946 552.04Z" fill="black"/>
<path d="M420.938 560.533C426.088 546.793 419.248 531.513 405.668 526.143C405.518 526.083 405.368 526.013 405.208 525.963C391.318 520.763 375.838 527.803 370.638 541.693C365.438 555.583 372.478 571.063 386.368 576.263C386.528 576.323 386.678 576.373 386.838 576.423C400.608 581.303 415.798 574.273 420.948 560.533H420.938Z" fill="black"/>
<path d="M35.0983 451.193C32.1583 450.093 29.1583 449.503 26.1783 449.363C32.9783 463.773 41.2083 477.933 50.8183 491.753C51.3183 490.773 51.7683 489.763 52.1583 488.713C57.8083 473.633 50.1683 456.833 35.0883 451.183L35.0983 451.193Z" fill="black"/>
<path d="M72.8383 527.593C87.9183 533.243 104.718 525.603 110.368 510.523C116.018 495.443 108.378 478.643 93.2983 472.993C78.2183 467.343 61.4183 474.983 55.7683 490.063C54.9783 492.173 54.4583 494.323 54.1683 496.463C56.8783 500.213 59.6983 503.933 62.6083 507.633L64.5383 510.143C63.9583 513.983 63.5483 517.833 63.2683 521.693C65.9683 524.193 69.1783 526.223 72.8383 527.593Z" fill="black"/>
<path d="M168.227 533.122C174.323 518.222 167.185 501.201 152.285 495.105C137.385 489.009 120.364 496.146 114.268 511.047C108.172 525.947 115.309 542.968 130.21 549.064C145.11 555.16 162.131 548.022 168.227 533.122Z" fill="black"/>
<path d="M220.527 564.04C231.633 552.385 231.188 533.934 219.534 522.827C207.879 511.721 189.428 512.166 178.321 523.82C167.215 535.475 167.66 553.926 179.314 565.033C190.969 576.139 209.42 575.694 220.527 564.04Z" fill="black"/>
<path d="M247.398 592.993C262.478 598.643 279.278 591.003 284.928 575.923C290.578 560.843 282.938 544.043 267.858 538.393C252.778 532.743 235.978 540.383 230.328 555.463C224.678 570.543 232.318 587.343 247.398 592.993Z" fill="black"/>
<path d="M335.759 608.725C347.503 597.713 348.095 579.266 337.083 567.522C326.071 555.779 307.623 555.186 295.88 566.198C284.137 577.211 283.544 595.658 294.556 607.402C305.569 619.145 324.016 619.738 335.759 608.725Z" fill="black"/>
<path d="M363.758 636.593C363.918 636.653 364.068 636.703 364.228 636.753C379.188 642.073 395.698 634.443 401.288 619.523C406.878 604.603 399.448 587.993 384.678 582.183C384.528 582.123 384.378 582.053 384.218 581.993C369.138 576.343 352.338 583.983 346.688 599.063C341.038 614.143 348.678 630.943 363.758 636.593Z" fill="black"/>
<path d="M72.1683 529.383C69.1283 528.243 66.0283 527.613 62.9483 527.443C62.2383 547.753 65.6283 568.123 72.9783 587.243C80.7283 584.083 87.1883 577.823 90.3583 569.373C96.3783 553.303 88.2283 535.403 72.1683 529.383Z" fill="black"/>
<path d="M132.317 608.556C147.936 601.451 154.838 583.029 147.733 567.409C140.628 551.79 122.206 544.888 106.587 551.993C90.9675 559.098 84.0652 577.519 91.1703 593.139C98.2753 608.758 116.697 615.661 132.317 608.556Z" fill="black"/>
<path d="M206.848 612.683C212.658 596.693 204.518 578.973 188.548 572.993C172.478 566.973 154.578 575.123 148.558 591.183C142.538 607.253 150.688 625.153 166.748 631.173C182.718 637.153 200.498 629.143 206.628 613.273C206.668 613.173 206.698 613.073 206.728 612.973C206.758 612.873 206.808 612.783 206.848 612.683Z" fill="black"/>
<path d="M246.718 594.783C230.748 588.803 212.968 596.813 206.838 612.683C206.798 612.783 206.758 612.873 206.718 612.973C206.678 613.073 206.648 613.173 206.618 613.273C200.808 629.263 208.948 646.983 224.918 652.963C240.988 658.983 258.888 650.833 264.908 634.773C270.928 618.713 262.778 600.803 246.718 594.783Z" fill="black"/>
<path d="M299.771 676.182C316.638 673.025 327.752 656.793 324.596 639.926C321.439 623.06 305.207 611.946 288.34 615.102C271.474 618.259 260.36 634.491 263.516 651.357C266.673 668.224 282.905 679.338 299.771 676.182Z" fill="black"/>
<path d="M381.288 678.372C387.248 662.462 379.318 644.752 363.548 638.562C363.398 638.502 363.248 638.432 363.088 638.372C347.018 632.352 329.118 640.502 323.098 656.562C317.078 672.632 325.228 690.533 341.288 696.553C341.448 696.613 341.598 696.663 341.758 696.713C357.708 702.403 375.328 694.273 381.288 678.363V678.372Z" fill="black"/>
<path d="M108.558 609.373C100.328 606.283 91.6083 606.933 84.2583 610.443C92.9783 625.073 104.318 638.493 118.228 649.963C120.198 651.593 122.178 653.153 124.168 654.673C125.178 653.023 126.048 651.253 126.758 649.363C132.778 633.293 124.628 615.393 108.568 609.373H108.558Z" fill="black"/>
<path d="M185.038 670.863C190.848 654.873 182.708 637.153 166.738 631.173C150.668 625.153 132.768 633.303 126.748 649.363C125.998 651.363 125.468 653.393 125.148 655.423C142.298 668.353 159.888 677.153 178.298 681.743C181.058 678.863 183.298 675.403 184.818 671.453C184.858 671.353 184.888 671.253 184.918 671.153C184.958 671.053 184.998 670.963 185.038 670.863Z" fill="black"/>
<path d="M230.578 683.843L236.518 682.933C238.978 685.353 241.498 687.723 244.038 690.063C248.128 674.793 240.028 658.623 224.918 652.963C208.948 646.983 191.168 654.993 185.038 670.863C184.998 670.963 184.958 671.053 184.918 671.153C184.878 671.253 184.848 671.353 184.818 671.453C183.458 675.203 182.858 679.043 182.958 682.813C198.198 686.013 213.998 686.363 230.578 683.843Z" fill="black"/>
<path d="M301.298 714.763C307.318 698.693 299.168 680.793 283.108 674.773C267.958 669.103 251.188 676.013 244.268 690.283C259.128 703.913 275.458 716.153 293.208 726.763C296.708 723.563 299.528 719.513 301.298 714.773V714.763Z" fill="black"/>
<path d="M359.488 736.563C365.448 720.653 357.518 702.943 341.748 696.753C341.598 696.693 341.448 696.623 341.288 696.563C325.218 690.543 307.318 698.693 301.298 714.753C299.338 719.973 298.888 725.393 299.708 730.533C310.808 736.803 322.418 742.453 334.558 747.413C338.588 749.063 342.638 750.623 346.698 752.093C352.368 748.603 356.968 743.273 359.478 736.563H359.488Z" fill="black"/>
<path d="M539.338 761.533C602.768 800.853 681.218 786.463 729.728 727.633C733.218 723.393 736.448 719.023 739.398 714.533L742.068 714.743C762.928 713.293 781.278 701.483 796.508 683.003C804.168 673.713 809.548 663.373 812.678 652.733L816.078 652.083C908.258 635.803 983.178 583.933 1022 502.353C1087.18 365.383 1010.94 201.523 851.718 136.353C830.688 127.743 811.168 121.403 789.668 117.003L787.828 116.703C757.368 81.3227 718.688 52.7727 672.698 33.9427C599.868 4.13267 519.978 3.33267 444.598 26.2527L442.078 25.1227C436.258 22.0027 430.188 19.1327 423.868 16.5427C341.508 -17.1573 248.958 9.70267 217.148 76.5527C212.138 87.0727 208.938 97.9627 207.418 108.963L207.178 112.083C125.148 132.413 57.4283 180.213 24.1383 250.183C-16.0417 334.613 -0.421688 426.923 62.0083 505.983L63.9383 508.493C56.2483 559.373 74.8483 613.043 117.628 648.313C152.408 676.983 188.818 688.473 229.978 682.193L235.918 681.283C263.328 708.273 296.178 730.303 333.958 745.763C398.818 772.303 469.268 775.853 537.158 760.123L539.328 761.533H539.338Z" stroke="black" stroke-width="3" stroke-miterlimit="10"/>
<path d="M477.538 532.533L427.008 430.153L440.978 422.433L480.078 484.923L480.248 481.213L482.748 419.183L545.908 420.413L549.508 530.483L549.838 535.823L637.148 428.743L653.338 440.853L638.668 461.283L636.858 463.863L701.238 458.133L703.078 470.093L621.728 484.843L619.658 487.743L551.518 582.603L551.498 591.473L563.598 962.473H454.448L465.798 750.253L465.678 747.363L310.048 599.423L326.958 578.163L468.438 694.423L470.048 695.573L477.438 534.713L477.538 532.533Z" fill="black" stroke="white" stroke-width="3" stroke-miterlimit="10"/>
</svg>
